<?xml version="1.0" encoding="utf-8"?>
<!-- Generator: Adobe Illustrator 25.0.0, SVG Export Plug-In . SVG Version: 6.00 Build 0)  -->
<svg version="1.1" xmlns="http://www.w3.org/2000/svg" xmlns:xlink="http://www.w3.org/1999/xlink" x="0px" y="0px"
	 viewBox="0 0 1920 1080" style="enable-background:new 0 0 1920 1080;" xml:space="preserve">
<style type="text/css">
	.st0{opacity:0.5;}
	.st1{fill:#3A3B88;}
	.st2{fill:#21224E;}
	.st3{fill:#2B2C64;}
	.st4{fill:#9D4292;}
	.st5{fill:#393A87;}
	.st6{fill:#2E306C;}
	.st7{fill:#161520;}
	.st8{fill:#393A86;}
	.st9{fill:#2C2E66;}
	.st10{fill:#343578;}
	.st11{fill:#383984;}
	.st12{fill:#9A4290;}
	.st13{fill:#3A3881;}
	.st14{fill:#333477;}
	.st15{fill:#35367C;}
	.st16{fill:#100F0D;}
	.st17{fill:#97418E;}
	.st18{fill:#121113;}
	.st19{fill:#2E306B;}
	.st20{fill:#2A2A5D;}
	.st21{fill:#FFFFFF;}
	.st22{fill:#3A3A87;}
	.st23{fill:#25254C;}
	.st24{fill:#1A1A2B;}
	.st25{fill:#111010;}
	.st26{fill:#9E4392;}
	.st27{fill:#6E3677;}
	.st28{fill:#6F3678;}
	.st29{fill:#703679;}
	.st30{fill:#9B4291;}
	.st31{fill:#9C4291;}
	.st32{fill:#93408D;}
	.st33{fill:#2D2E66;}
	.st34{fill:#141319;}
	.st35{fill:#14141A;}
	.st36{fill:#743B84;}
	.st37{fill:#2B2D63;}
	.st38{fill:#6E3573;}
	.st39{fill:#272855;}
	.st40{fill:#2A2C60;}
	.st41{fill:#683677;}
	.st42{fill:#873C83;}
	.st43{fill:#1B161F;}
	.st44{fill:#903F8B;}
	.st45{fill:#383983;}
	.st46{fill:#984290;}
	.st47{fill:#191829;}
	.st48{fill:#F3F3F3;}
	.st49{fill:#F4F4F4;}
</style>
<g class="st0">
	<g id="Calque_1">
	</g>
</g>
<g>
	<path class="st1" d="M81,31.1c-0.4,2.5-3.7,4.1-6,4.8c-8.3,2.6-16,6.6-23.3,11.5c-1.5,1-2.3,2.3-2.2,4c0.3,9.7,0.6,19.5,1.9,29.2
		c0.3,2.5,0.6,4.9,1,7.4c-2.4,0.9-2.9,0.6-3.3-1.8c-1.1-7.3-1.6-14.6-2.1-22c-0.2-4.3-0.2-8.6-0.4-12.9c-0.1-2.8,1.1-4.7,3.1-6.1
		c8.7-6,18.1-10.6,28.3-13.3C78.5,31.7,80.5,30.8,81,31.1z"/>
	<path class="st1" d="M134.8,88.4c1.8-12.1,2.6-24.3,2.8-36.5c0-2.1-0.7-3.5-2.5-4.7c-7.4-4.9-15.3-9-23.9-11.6
		c-1.9-0.6-4.6-2-4.8-4c0.6-0.7,2.9,0.2,3.6,0.4c7.7,2.1,14.9,5.4,21.8,9.5c2.2,1.3,4.4,2.6,6.4,4.2c1.5,1.2,2.2,2.6,2.3,4.5
		c0.1,8.3-0.3,16.5-1.1,24.7c-0.3,3.5-0.7,7.1-1.2,10.6C137.7,88.4,137.7,88.4,134.8,88.4z"/>
	<path class="st2" d="M56.7,118.6c0,0-5-0.5-5.5,1.4c-0.5,2,1.3,4.6,2.4,5s0.9,7.5,0.9,7.5l10.6-3.1c0,0-4.5-1.4-5.5-3.6
		C58.8,123.7,56.7,118.6,56.7,118.6z"/>
	<path class="st2" d="M129.6,118.3c0,0,5-1.1,5.7,0.8c0.7,1.9-0.8,4.8-1.9,5.3c-1.1,0.5-0.1,7.8-0.1,7.8l-11.1-2
		c0,0,4.4-1.9,5.1-4.2C128,123.7,129.6,118.3,129.6,118.3z"/>
	<path class="st3" d="M75.8,65c-0.6-0.5-0.9-1.5-1.8-1.8c-0.1,0.7,0.4,1.2,0.7,1.7c-1.2,1.3-2.8,1.3-4,1.8c1.7,0.6,3.9,1,5.1,3.1
		c0.1,0.7,0.6,1.3,0.4,2.1c-1.3,1.1-3,0.3-4.5,0.8c-1.1,0.3-2.6,0-3,1.2c-0.4,1.2,1.2,1.6,1.9,2.3c1.2,1.1,2.2,2.3,3.3,3.5
		c0.7,0.8,0.8,1.5-0.1,2c-3.1,1.9-5.7,4.4-8.5,6.7c-2.3,0-4.6,0-6.9,0c-0.4-1.7,0.9-2.7,1.9-3.8c0.6-0.7,1.3-1.1,2-1.6
		c0.7-0.5,2-0.5,1.9-1.5c-0.1-1-1.3-1.2-2.2-1.6c-0.8-0.4-1.7-0.5-2.5-0.8c-1.9-0.6-2.2-1.2-1.7-3.1c0.3-1.3,0.9-2.5,1.4-3.7
		c0.2-0.5,0.8-0.9,0.4-1.6c0.2-0.6,0.1-1.3,0.4-1.9c0.7-1.6,1.2-3.3,1.9-4.9c0.5-1.3,0.4-2-1.2-1.5c-0.5,0.2-1.1,0.2-1.5-0.2
		c-0.5-0.8,0-1.2,0.5-1.7c2.1-2.1,4.3-4.2,7.2-5.3c1.6-1,3.4-0.3,4.9,0.1c5.2,1.5,9,4.9,11.8,9.6c-0.3,0.4-0.7,0.5-1.2,0.6
		c-0.6,0.1-1.1,0-1.7-0.1C79,64.9,77.4,65.3,75.8,65z"/>
	<path class="st4" d="M59.2,72.2c0.2,1.5-0.5,2.8-0.9,4.1c-0.5,1.6,0.1,2,1.4,2.3c1.9,0.4,3.8,0.9,5.2,2.4c0.7,0.7,1.1,1.2-0.2,1.6
		c-3,1-5,3.1-6.3,5.9c-0.7-0.1-1.5,0.2-2-0.4c0.3-3.4,2.8-5,5.3-6.6c-1.7-0.8-1.7-0.8-6.8,0.4C55.9,78.3,57,75,59.2,72.2z"/>
	<path class="st5" d="M65.3,88.4c1.6-3.2,4.7-4.9,7.5-6.7c1.4-0.9,1.2-1.4,0.2-2.3c-1.5-1.3-2.6-2.8-4.3-3.9
		c-0.6-0.4-1.4-0.9-1.3-1.7c0.2-0.9,1.2-1,1.9-1.2c2.2-0.6,4.5-0.9,6.7-0.7c0.2,1.1-0.4,1.2-1.3,1.2c-1.7,0-3.5-0.1-5.3,0.6
		c2.2,2.2,3.9,4.6,5.6,7.1c0.5,0.7,0.6,1-0.4,1.4c-3.2,1.1-5.3,3.6-7.1,6.3C66.9,88.4,66.1,88.4,65.3,88.4z"/>
	<path class="st6" d="M128.7,62.6c1.3,2.2,3,4.1,3.3,7.4c-1.7-1.9-2.6-3.9-4.7-5.1c0.7,2.5,2.3,4.3,2.7,6.5c0,0.4-0.8-0.3-0.5,0.4
		c0.4,0.7,0.8,1.3,0.8,2.1c0.6,2,1.4,3.9,1.6,6c0.2,1.3,0.2,2-1.6,1.5c-1.4-0.4-3-1.1-4.7,0c2.6,1.8,5,3.6,6,6.6
		c-0.4,0.6-0.8,0.2-1.2,0c-0.8-0.4-0.8-0.4-0.8,0.4c-3.3,0-6.5,0-9.8-0.1c-0.6-0.6-1.3-0.9-2.1-1.2c-2.7-1-2.9-1.3-2.9-4.2
		c0-0.5,0-0.9-0.1-1.4c-0.1-0.3-0.1-0.6-0.1-0.9c0.6-0.9,1.7-1.4,2.1-2.4c-0.6-0.2-0.7-0.6-0.3-1.1c0.4-0.4,0.9-0.8,1-1.4
		c0.3-0.3,0.5-0.5,0.8-0.8c0.7-0.1,1-0.5,1.2-1.2c0-0.1,0-0.2,0.1-0.3c-1.6-0.8-3.4-0.8-5.1-1c-0.8-0.1-1.6,0-2.2-0.7
		c1.2-2.2,2.6-4,5.5-4.5c-0.6-0.4-1-0.6-1.4-0.8c-0.9-1.2-2.5-0.8-3.7-1.6c0.2-0.8,1-1.2,1-2.3c-1.1,0.5-1.4,1.6-2.2,2.2
		c-2.2,0.5-4.4,0.6-6.6,0.9c-0.5,0.1-1.1,0-1.4-0.4c3.2-4.9,7-8.9,13-10.3c4.6-1.1,12.2,1.9,14,7.8c-0.4-0.3-0.7-0.5-1.1-0.7
		c-1.3-0.4-1.8-1.7-2.8-2.2C127.2,60.6,128.3,61.3,128.7,62.6z"/>
	<path class="st7" d="M129.6,88.4c-0.4-0.8-0.8-1.6-1.3-2.8c1.3,0.7,1.6,1.7,2.2,2.4C130.2,88.3,129.9,88.4,129.6,88.4z"/>
	<path class="st8" d="M75.8,69.8c-1.7-1.3-3.7-2-5.8-2.9c1.4-1.4,3.1-1.6,4.7-2c0.6,0.9,0.6,0.9,0.1,1.9c-0.2,0.4,0.1,0.6,0.2,0.9
		C75.2,68.4,75.7,69,75.8,69.8z"/>
	<path class="st1" d="M80.6,64.9c0.5,0,1.1,0,1.6,0c0.5,0.3,1.3,0.1,1.7,0.8c1.5,0.7,1.8,2.4,2.7,3.6c0.6,0.8,1.2,1.6,1.7,2.4
		c3.1,1.2,3.3,3.7,3,6.5c-0.1,1,0,2,0,3c0,0.7-0.3,1-1,0.7c-3,0.9-6-0.9-9.1-0.2c0.2-0.8,1.2-1.9-0.7-2c-0.6,0-0.6-1.1-0.6-1.8
		c0-1.6-0.3-3.1-1-4.5c-1.4-2.6-1.4-5.6-2.7-8.1c0-0.9,0.7-0.6,1.1-0.6C78.4,64.8,79.5,64.5,80.6,64.9z"/>
	<path class="st8" d="M80.6,64.9c-1.5,0.2-3.1-0.5-4.5,0.5c-0.1-0.1-0.3-0.3-0.4-0.4C77.4,64.3,79,64.3,80.6,64.9z"/>
	<path class="st8" d="M83.9,65.7c-0.6-0.3-1.1-0.5-1.7-0.8c0.4,0,0.8,0,1.2,0C83.6,65.2,83.8,65.5,83.9,65.7z"/>
	<path class="st9" d="M90.3,81.9c0.7-0.1,0.8-0.6,0.8-1.2c0-2,0-3.9,0-5.9c0-0.8-0.4-1.2-1-1.6c-0.7-0.3-1.5-0.7-1.8-1.6
		c2.5,0.8,3.6,2.4,3.2,5.1c-0.2,1.4,0,2.9,0,4.4C91.5,82,91.3,82.6,90.3,81.9z"/>
	<path class="st1" d="M103.3,65.3c2-0.3,4-0.6,6-0.8c0.7-0.1,1.5-0.2,2.1,0.3c-1.8,2.7-1.6,5.8-1.4,8.8c0.1,1.2,0.1,2.4,0.2,3.6
		c0.4,3-0.6,5.2-3,7.2c-1.2,1-2.2,1.4-3.7,0.9c-1.7-0.5-3.5-1-5.3-1.3c-1.2-0.2-1.5-0.8-1.5-1.9c0.1-2.5,0-5,0-7.5
		c0-0.8,0-1.5,0.7-2c1.7-1,2.7-2.6,3.8-4.1C102,67.6,102.6,66.4,103.3,65.3L103.3,65.3z"/>
	<path class="st6" d="M103.3,65.3c-0.3,1.3-0.9,2.4-2.1,3.2C101.6,67.3,102.3,66.2,103.3,65.3z"/>
	<path class="st10" d="M112.6,64.9c1.4,0.2,2.9,0,3.7,1.6C115.1,65.8,113.4,66.2,112.6,64.9z"/>
	<path class="st11" d="M112.2,71.8c2.6,0,5.2-0.3,7.3,1.7c-2.7-0.3-5.4-0.2-8.2,0.4C111.3,73,111.7,72.4,112.2,71.8z"/>
	<path class="st12" d="M115,81c0.7,0.8,0.4,1.8,0.4,2.7c-0.1,1.6,0.4,2.7,2.3,2.8c1.1,0.1,2.1,0.4,2.1,1.9c-1.4,0.3-2.7-0.4-4-0.7
		c-0.7,0.2-1.4,0-2-0.4c-0.4-0.1-0.8-0.1-1.1-0.2C112.2,85.1,113.3,82.1,115,81z"/>
	<path class="st13" d="M115,81c-1.3,1.8-1.7,4-2.4,6.1c-0.5,0.1-1.2-0.1-1-0.6c0.9-2,0.3-4.7,2.9-5.8C114.7,80.8,114.8,80.9,115,81z
		"/>
	<path class="st14" d="M117.9,75.7c0.3,1-1.4,1.4-0.8,2.5c-0.4-0.1-0.9,0.6-1.3,0c-0.3-0.4,0.2-0.7,0.5-1
		C116.8,76.8,117.3,76.3,117.9,75.7z"/>
	<path class="st15" d="M119.9,73.8c0.1,0.9-0.3,1.3-1.2,1.2C119,74.6,119.5,74.2,119.9,73.8z"/>
	<path class="st16" d="M56.3,88c-1.3,0.6-2.6,0.6-4,0c-0.9-0.6-0.9-1.6-1.1-2.5c-1.2-8.4-2-16.8-2.1-25.3c0-2.6-0.4-5.1-0.4-7.7
		c0-2.8,1-4.7,3.4-6.2c7-4.4,14.2-8.3,22.1-10.8c2.3-0.7,3.8-2.1,5.2-3.7c3-4.5,6.7-8.2,11.3-11c1.8-1.1,3.7-1.1,5.5,0
		c4.9,2.8,8.7,6.7,11.7,11.4c1.5,2.5,4.2,2.9,6.6,3.8c7.4,2.7,14.3,6.3,20.8,10.6c2,1.3,2.9,3,2.9,5.4c-0.2,11.4-0.9,22.7-2.5,34
		c-0.1,0.9-0.3,1.7-1,2.4c-1.1-0.1-2.2,0.2-3.2-0.4c-1.9-1.9-3.5-4.2-5.8-5.9c-1.1-0.8-0.1-1.5,0.8-1.8c1-0.3,2,0,3,0.3
		c1.3,0.3,1.7,0,1.5-1.4c-0.2-1.7-1.2-3.3-1.2-5.1c0.7-1-0.2-1.8-0.5-2.7c-0.4-1.7-1.4-3.2-2.1-4.8c-0.3-0.6-0.8-1.3,0-1.8
		c0.7-0.4,1.3,0.2,1.7,0.6c0.7,0.6,1.4,1.4,1.9,2.1c-0.4-1.8-2.3-3.1-2.5-5.1c0.1-0.3,0.2-0.5,0.4-0.6c0.4-1-0.5-1.4-1-2
		c-5.2-5.8-12.7-6-18.7-0.7c-2,1.8-3.9,3.7-5.4,6c-0.1,0.2-0.2,0.3-0.3,0.5c-0.9,1-1.5,2.2-2,3.4c-0.6,1-1.1,2.1-2,2.7
		c-1.7,1.2-2.1,2.8-2,4.7c0.1,1.6,0.1,3.2,0,4.8c0,1.3,0.5,2,1.8,2.3c0.8,0.2,1.6,0.4,2.3,0.6c4.8,1.2,7.8-1.2,7.9-6.2
		c0-2.4-0.5-4.7-0.4-7c0-2.2,0.5-4.3,1.7-6.1c0.5-0.6,0.9-1.3,1.4-1.9c0.4-0.4,0.9-1,1.5-0.5c0.5,0.4,0.2,1,0,1.4
		c-0.1,0.2-0.2,0.5-0.3,0.7c0.8,1,2.1,0.8,3.1,1.4c0.5,0.3,1.3,0.4,1.3,1.1c0,0.6-0.6,0.8-1.1,1c-2,0.7-3.1,2.3-4.1,4
		c-0.4,0.8,0,0.9,0.7,0.8c2-0.2,4-0.3,6,0.2c0.2,0.1,0.3,0.3,0.4,0.4c0,0.8-0.6,1.2-1,1.7c-0.3,0.3-0.6,0.6-1,1
		c-0.3,0.7-1.9,0.8-0.9,2.1c0,1.3-1.1,1.9-1.9,2.7c-2.1,1-1.8,3.2-2.5,4.9c-0.1,0.3,0.3,0.6,0.6,0.7c0.4,0.2,0.8,0.3,0.8,0.8
		c-0.4,0.8-1.1,0.5-1.7,0.6c-3.5,0.1-6.9-0.6-10.3-1.5c-2.3-0.6-4.5-1.1-6.8-1.6c-1.3-0.4-2.6-0.8-4-1.2c-1.6-0.4-2.8-0.1-3.1,1.7
		c-0.3,0.9-0.2,1.9-1,2.5c-0.4,0.3-0.8,0.2-1.2,0c-2,0.5-4-0.4-6,0c-1.2,0.8-2.6,0.3-3.9,0.4c-2.7,0.1-5.5,0-8.2,0
		c-0.4-1,0.4-1.7,0.9-2.3c1.4-1.6,2.9-3.3,4.9-4.1c1.2-0.5,1.2-1.2,0.5-2.1c-1.3-1.6-2.5-3.3-3.9-4.9c-1.2-1.4-1.1-1.9,0.8-2.4
		c1.3-0.3,2.5-0.2,3.8-0.2c0.5,0,0.8-0.2,0.9-0.6c0-0.6-0.2-1.2-0.3-1.8c-0.9-1.5-0.5-3.3-1.1-4.8c-0.1-0.2-0.3-0.4-0.4-0.7
		c-0.2-0.5-0.5-1.1,0.1-1.4c0.5-0.4,1,0.1,1.4,0.4c0.4,0.3,0.7,0.8,1,1.2c0.2,0.2,0.4,0.5,0.5,0.7c1.4,3.9,3,7.8,3.8,12
		c0.3,1.9,1.8,3.3,3.7,3.7c2,0.4,4,0.6,6,0.3c0.3-0.1,0.6-0.2,0.6-0.4c0.3-2.2,0.4-4.5-0.1-6.7c-0.2-1.1-1.6-1.3-2.4-1.9
		c-2-1.7-2.8-4.4-4.6-6.3c-0.2-0.3-0.5-0.6-0.7-1c-2.5-3.5-5.3-6.6-9.3-8.3c-2.1-0.9-4.3-1.4-6.7-1c-6,1-9.3,4.8-10.8,10.2
		c0.9-0.7,1.1-2.7,3.1-2.3c1.1,1.3,0.9,2.5,0.1,4c-1,1.9-1.9,3.9-2.7,6c-0.1,0.1-0.1,0.3-0.2,0.4c0.1,0,0.1,0,0.2-0.2
		c0.6-1.4,1-3,2.5-3.8c0.3,0,0.6,0.1,0.8,0.3c0.5,0.9,0.1,1.5-0.4,2.2c-1.8,2.4-2.6,5.2-3.8,8.2c1.4,0,2.5-0.3,3.5-0.4
		c0.7-0.1,1.5-0.1,2.2,0.3c0.8,0.4,0.9,0.9,0.2,1.5c-0.7,0.6-1.4,1.1-2.1,1.5C57.8,84.7,57.6,86.7,56.3,88z"/>
	<path class="st17" d="M104.1,88.4c-3.3-1.1-6.3-2.9-9.7-3.7c0-0.4,0.1-0.6,0.5-0.4c4.7,1,9.4,2.1,14.2,3c1,0.2,2,0.2,3,0.3
		c0.9,0.6,2-0.5,2.9,0.4c-2.5,0.7-5,0.2-7.5,0.3C106.4,88.4,105.3,88.4,104.1,88.4z"/>
	<path class="st18" d="M113.8,87.3c0.7-0.2,1.4,0.3,2,0.4c-0.3,0.1-0.5,0.3-0.8,0.4c-1-0.1-2,0.1-2.9-0.4
		C112.7,87.5,113.3,87.7,113.8,87.3z"/>
	<path class="st19" d="M87.1,88c0-1-0.1-2,0.5-2.8c2.1-2.3,4.5-1.3,6.9-0.7c2.8,0.7,5.6,1.5,8.3,2.7c0.6,0.3,1.3,0.3,1.4,1.2
		c-5.1,0-10.2,0-15.4,0C88.2,88.4,87.6,88.5,87.1,88z"/>
	<path class="st20" d="M79.9,88c0-0.6,0.4-0.7,1-0.6c1.7,0.2,3.4,0.4,5.1,0.6C83.9,88.7,81.9,88.6,79.9,88z"/>
	<polygon class="st2" points="145.6,111.8 42.1,111.8 24.8,87.7 161.4,87.7 	"/>
	<g>
		<path class="st21" d="M39.5,101.7c0,0,0-0.1,0-0.1c0-0.1,0-0.1,0-0.1c0-0.1,0-0.2,0-0.5c0-0.1,0-0.4,0-0.9v0h0c0.1,0,0.2,0,0.3,0
			h0.9c0.1,0,0.2,0,0.4,0h0.4H42c0.2,0,0.4,0,0.5,0c0.1,0,0.2,0,0.3,0c0.1,0,0.1,0,0.3,0c0.1,0,0.1,0,0.2,0c0.1,0,0.2,0,0.3,0h0.4
			c0,0,0,0,0,0c0,0,0,0,0,0c0,0,0.1,0,0.1,0c0,0,0.1,0,0.1,0c0.2,0,0.3,0,0.4,0c0,0,0,0,0.1,0c0,0,0.1,0,0.1,0c0.1,0,0.1,0,0.2,0
			c0.1,0,0.1,0,0.1,0c0.1,0,0.2,0,0.3-0.1c0.1,0,0.2-0.1,0.2-0.2c0,0,0-0.1,0-0.1v-0.1c0-0.1-0.1-0.1-0.2-0.1c-0.1,0-0.1,0-0.2,0
			c0,0-0.1,0-0.2,0c-0.1,0-0.1,0-0.2,0h-0.1c-0.1,0-0.1,0-0.2,0c-0.1,0-0.3,0-0.6,0h-1.2c-0.2,0-0.4,0-0.5,0h-0.3
			c-0.1,0-0.2,0-0.3,0c-0.1,0-0.2,0-0.3,0c0,0,0,0,0,0c0,0,0,0,0,0c0,0-0.1,0-0.2,0l-0.2,0c0,0-0.1,0-0.1,0c-0.1,0-0.2,0-0.3-0.1
			c-0.1,0-0.2-0.1-0.4-0.2c0,0,0,0,0,0c-0.1,0-0.2-0.1-0.3-0.2c0,0,0,0,0,0c0,0,0,0,0-0.1c0,0,0,0,0,0c-0.1-0.1-0.1-0.1-0.2-0.2
			c-0.1-0.2-0.1-0.3-0.1-0.5c0,0,0,0,0-0.1c0,0,0-0.1,0-0.1c0,0,0-0.1,0-0.2c0,0,0-0.1,0-0.1c0,0,0-0.1,0-0.1v0c0-0.2,0-0.4,0.1-0.6
			c0-0.1,0.1-0.2,0.2-0.3c0,0,0-0.1,0.1-0.1c0,0,0.1-0.1,0.1-0.1c0.1-0.1,0.2-0.2,0.3-0.2c0,0,0.1-0.1,0.2-0.1c0,0,0.1,0,0.2-0.1
			c0.1-0.1,0.3-0.1,0.5-0.2c0.1,0,0.1,0,0.3-0.1l0.2,0c0.1,0,0.2,0,0.2,0c0.1,0,0.2,0,0.3,0h0.1c0.2,0,0.5,0,0.9,0c0,0,0.1,0,0.2,0
			h0.2c0.1,0,0.3,0,0.6,0c0,0,0,0,0.1,0c0,0,0.1,0,0.1,0h0.3c0.1,0,0.2,0,0.3,0h0.1c0,0,0.1,0,0.1,0c0,0,0.2,0,0.4,0
			c0,0,0.1,0,0.1,0c0.1,0,0.1,0,0.1,0c0.1,0,0.3,0,0.7,0c0,0,0.1,0,0.1,0c0.1,0,0.1,0,0.1,0h0h0.1c0.2,0,0.4,0,0.5,0
			c0.1,0,0.3,0,0.4,0h0.4c0,0,0.1,0,0.2,0c0.1,0,0.1,0,0.1,0H48c0,0,0,0.2,0,0.4c0,0.2,0,0.4,0,0.4c0,0.2,0,0.4,0,0.8c0,0,0,0,0,0
			h-0.2c0,0-0.1,0-0.2,0c-0.1,0-0.2,0-0.2,0c-0.1,0-0.2,0-0.5,0h-0.9c0,0-0.1,0-0.2,0c-0.1,0-0.1,0-0.2,0c-0.1,0-0.2,0-0.3,0h-0.1
			h-0.7c0,0-0.1,0-0.2,0c-0.1,0-0.2,0-0.2,0h-0.2c-0.1,0-0.2,0-0.2,0c0,0-0.1,0-0.1,0c-0.1,0-0.1,0-0.1,0c-0.1,0-0.2,0-0.2,0
			c0,0,0,0,0,0c0,0,0,0-0.1,0c0,0-0.1,0-0.1,0c0,0-0.1,0-0.1,0c-0.1,0-0.1,0-0.1,0h-0.2c-0.1,0-0.1,0-0.2,0.1
			c-0.1,0-0.1,0.1-0.1,0.2c0,0,0,0.1,0,0.1c0,0.1,0.1,0.1,0.2,0.1c0,0,0,0,0.1,0h0.5c0,0,0.1,0,0.2,0c0.1,0,0.2,0,0.2,0
			c0.2,0,0.4,0,0.6,0h0.1h0.1h0.1c0.3,0,0.5,0,0.6,0c0,0,0.1,0,0.1,0c0.1,0,0.1,0,0.1,0c0,0,0.1,0,0.1,0c0,0,0.1,0,0.1,0h0
			c0.1,0,0.2,0,0.2,0h0.1h0.6c0,0,0.1,0,0.2,0c0.1,0,0.1,0,0.2,0c0.2,0,0.3,0.1,0.4,0.1c0.1,0,0.1,0.1,0.2,0.1c0,0,0.1,0.1,0.1,0.1
			c0.1,0,0.1,0.1,0.1,0.1c0,0,0,0,0.1,0.1c0.1,0.2,0.2,0.2,0.2,0.3c0.1,0.1,0.1,0.2,0.2,0.3c0,0,0,0.1,0,0.1c0,0,0,0.1,0,0.1
			c0,0.1,0,0.2,0,0.2c0,0.1,0,0.2,0,0.5c0,0,0,0.1,0,0.1c0,0,0,0.1,0,0.2c0,0.1,0,0.2-0.1,0.3c-0.1,0.2-0.2,0.3-0.2,0.4
			c-0.1,0.1-0.2,0.2-0.2,0.2c0,0-0.1,0.1-0.1,0.1c-0.1,0.1-0.2,0.2-0.3,0.2c0,0-0.1,0-0.2,0.1s-0.1,0.1-0.2,0.1c-0.1,0-0.1,0-0.2,0
			h-0.7c0,0-0.1,0-0.2,0c-0.1,0-0.1,0-0.2,0c-0.1,0-0.2,0-0.4,0h-0.8c-0.3,0-0.7,0-1.3,0c0,0-0.2,0-0.4,0c0,0-0.1,0-0.1,0
			c0,0-0.1,0-0.1,0c-0.1,0-0.1,0-0.1,0c-0.1,0-0.3,0-0.5,0c-0.1,0-0.1,0-0.3,0c0,0,0,0-0.1,0c0,0-0.1,0-0.1,0c-0.1,0-0.2,0-0.3,0
			c0,0-0.2,0-0.4,0c0,0-0.1,0-0.2,0c-0.1,0-0.2,0-0.3,0c0,0-0.1,0-0.2,0c-0.1,0-0.1,0-0.2,0C40.1,101.6,39.9,101.7,39.5,101.7
			L39.5,101.7L39.5,101.7z"/>
		<path class="st21" d="M52.4,95.7C52.4,95.7,52.4,95.7,52.4,95.7C52.4,95.8,52.4,95.8,52.4,95.7c0,0.2,0,0.3,0,0.4
			c0,0.1,0,0.2,0,0.2c0,0.1,0,0.3,0,0.5c0,0.2,0,0.3,0,0.3c0,0,0,0.1,0,0.2v0.2c0,0,0,0,0,0c0,0,0,0,0,0c0.3-0.2,0.5-0.3,0.5-0.3
			c0,0,0.1,0,0.1-0.1c0,0,0.1,0,0.1-0.1c0,0,0.1-0.1,0.2-0.1c0.1,0,0.1-0.1,0.1-0.1c0,0,0,0,0.1-0.1c0,0,0.1,0,0.1-0.1
			c0,0,0.1,0,0.1-0.1c0.1,0,0.1-0.1,0.1-0.1c0.2-0.1,0.4-0.2,0.5-0.3c0,0,0,0,0.1-0.1c0,0,0.1,0,0.1,0c0,0,0,0,0.1,0
			c0,0,0.1,0,0.1-0.1c0.1,0,0.1,0,0.1-0.1c0.1,0,0.1-0.1,0.2-0.2c0.1-0.1,0.3-0.2,0.3-0.2c0,0,0,0,0,0c0.2,0,0.3,0,0.4,0
			c0,0,0.2,0,0.4,0h0.9c0.2,0,0.5,0,0.9,0c0.1,0,0.2,0,0.3,0c0.1,0,0.2,0,0.3,0c0.1,0,0.4,0,0.9,0l0,0h0l0,0v0c0,0-0.1,0.1-0.1,0.1
			c0,0-0.1,0.1-0.2,0.1c-0.1,0.1-0.2,0.1-0.3,0.2c0,0,0,0-0.1,0s-0.1,0-0.1,0c-0.1,0-0.2,0.1-0.4,0.2c0,0-0.1,0.1-0.2,0.1
			c-0.1,0-0.1,0.1-0.1,0.1c-0.2,0.1-0.4,0.2-0.5,0.3c0,0-0.1,0-0.1,0.1c0,0-0.1,0.1-0.1,0.1c-0.2,0.1-0.3,0.1-0.3,0.2
			c0,0-0.1,0-0.1,0.1s-0.1,0.1-0.1,0.1c0,0-0.2,0.1-0.5,0.3c-0.1,0-0.2,0.1-0.3,0.2c0,0-0.1,0-0.1,0.1c0,0-0.1,0.1-0.2,0.1
			c-0.1,0.1-0.1,0.1-0.2,0.1c0,0-0.1,0-0.1,0.1c-0.1,0-0.1,0.1-0.1,0.1c0,0,0,0-0.1,0.1c0,0-0.1,0.1-0.1,0.1l-0.3,0.1c0,0,0,0-0.1,0
			c0,0,0,0,0.1,0c0.1,0,0.1,0.1,0.2,0.1c0,0,0,0,0,0c0,0,0,0,0,0c0,0,0.1,0.1,0.2,0.1c0.1,0,0.1,0.1,0.1,0.1
			c0.2,0.1,0.3,0.2,0.4,0.2c0,0,0.1,0.1,0.2,0.1c0.1,0,0.1,0.1,0.2,0.1c0.1,0,0.1,0.1,0.2,0.1c0.1,0.1,0.2,0.1,0.3,0.1
			c0.2,0.1,0.3,0.2,0.4,0.3c0,0,0.1,0.1,0.2,0.1c0,0,0,0,0,0l0,0c0.1,0.1,0.3,0.2,0.5,0.3c0,0,0.1,0,0.1,0.1c0,0,0.1,0,0.1,0.1
			c0,0,0.1,0.1,0.2,0.1c0.1,0.1,0.3,0.2,0.4,0.3c0.2,0.1,0.3,0.2,0.4,0.2c0,0,0,0,0.1,0c0,0,0,0,0.1,0c0.1,0.1,0.2,0.1,0.2,0.1
			c0,0,0.1,0.1,0.2,0.1c0.1,0,0.2,0.1,0.3,0.2l0.1,0.1c0,0,0,0,0,0h-0.3c0,0,0,0-0.1,0c0,0-0.1,0-0.1,0c0,0-0.1,0-0.1,0c0,0,0,0,0,0
			s0,0,0,0h-0.1c-0.1,0-0.1,0-0.2,0c-0.1,0-0.2,0-0.2,0c-0.1,0-0.3,0-0.5,0h-0.5H57h-0.4h-0.5h0h0l0,0c-0.1,0-0.2,0-0.3,0h-0.2
			c0,0,0,0,0,0c0,0,0,0,0,0c0,0-0.1,0-0.1-0.1c0,0-0.1,0-0.1-0.1c-0.1,0-0.1-0.1-0.2-0.1c0,0-0.1,0-0.1-0.1c0,0-0.1-0.1-0.1-0.1
			c-0.1-0.1-0.2-0.1-0.3-0.2c-0.1,0-0.2-0.1-0.3-0.2c0,0,0,0,0,0h0c0,0-0.1-0.1-0.2-0.1c-0.1,0-0.1-0.1-0.2-0.1c0,0-0.1-0.1-0.2-0.1
			c-0.1-0.1-0.1-0.1-0.2-0.1c0,0-0.1,0-0.1-0.1c0,0-0.1-0.1-0.2-0.1c0,0-0.1,0-0.1-0.1c-0.1,0-0.1-0.1-0.1-0.1
			c-0.1-0.1-0.1-0.1-0.2-0.1c0,0-0.1-0.1-0.2-0.1c-0.1,0-0.1-0.1-0.2-0.1c0,0-0.1-0.1-0.2-0.1c-0.1,0-0.1-0.1-0.2-0.1l-0.1-0.1
			c0,0,0,0,0,0v0v0.2c0,0.1,0,0.2,0,0.3c0,0.1,0,0.2,0,0.3c0,0.2,0,0.4,0,0.5c0,0.1,0,0.1,0,0.3v0.3v0l0,0c0,0,0,0.1,0,0.1v0.1v0
			c0,0,0,0-0.1,0c-0.2,0-0.3,0-0.3,0c-0.1,0-0.4,0-0.8,0c0,0,0,0-0.1,0c0,0-0.1,0-0.1,0c0,0-0.1,0-0.1,0c0,0-0.1,0-0.1,0
			c-0.1,0-0.3,0-0.6,0c-0.2,0-0.3,0-0.4,0c0,0-0.1,0-0.1,0c0-0.1,0-0.2,0-0.2c0-0.1,0-0.3,0-0.6c0,0,0-0.1,0-0.2s0-0.2,0-0.2v-0.3
			c0-0.1,0-0.2,0-0.3v-1.1c0-0.1,0-0.2,0-0.3c0-0.2,0-0.3,0-0.3c0-0.1,0-0.2,0-0.3v-0.1c0-0.1,0-0.1,0-0.1c0-0.1,0-0.2,0-0.4v-0.4
			v-0.2c0-0.1,0-0.2,0-0.2c0,0,0,0,0,0c0,0,0,0,0-0.1c0,0,0-0.1,0-0.2v-0.1c0-0.1,0-0.2,0-0.3c0,0,0,0,0,0c0.1,0,0.2,0,0.4,0
			c0.1,0,0.2,0,0.3,0c0.1,0,0.2,0,0.2,0c0.1,0,0.3,0,0.4,0h0.3c0.1,0,0.2,0,0.3,0c0.1,0,0.2,0,0.4,0C52.2,95.6,52.3,95.6,52.4,95.7
			C52.4,95.6,52.4,95.6,52.4,95.7L52.4,95.7z"/>
		<path class="st21" d="M63.8,95.5C63.8,95.5,63.8,95.5,63.8,95.5c0,0.1,0,0.1,0,0.2c0,0.1,0,0.1,0,0.2c0,0.1,0,0.4,0,0.9
			c0,0.1,0,0.2,0,0.3c0,0.1,0,0.2,0,0.3c0,0.1,0,0.1,0,0.1v0.3c0,0.1,0,0.2,0,0.3c0,0.1,0,0.3,0,0.6c0,0.3,0,1.2,0,2.7
			c0,0,0,0.1,0,0.2c0,0,0,0.1-0.1,0.1c0,0,0,0,0,0c0,0,0,0,0,0c0,0-0.1,0-0.1,0c0,0,0,0,0,0c0,0-0.1,0-0.2,0h0c-0.1,0-0.1,0-0.2,0
			c0,0-0.1,0-0.2,0c-0.1,0-0.1,0-0.2,0h-1.5h-0.1c0,0-0.1,0-0.1,0v-0.2v-0.2c0-0.1,0-0.2,0-0.4c0-0.1,0-0.2,0-0.2c0-0.1,0-0.3,0-0.5
			s0-0.4,0-0.5c0-0.2,0-0.4,0-0.6v-0.6c0,0,0-0.1,0-0.2c0-0.1,0-0.1,0-0.2c0,0,0-0.1,0-0.2c0-0.1,0-0.2,0-0.3c0-0.1,0-0.2,0-0.4
			l0-0.5c0-0.3,0-0.5,0-0.5c0-0.1,0-0.3,0-0.6v-0.1c0,0,0,0,0.1-0.1c0,0,0.1,0,0.1,0c0.1,0,0.1,0,0.1,0h0h0.3c0,0,0.1,0,0.1,0
			c0.1,0,0.1,0,0.1,0c0,0,0.1,0,0.2,0c0.1,0,0.2,0,0.2,0h0.2c0,0,0.1,0,0.1,0c0,0,0.1,0,0.1,0c0,0,0.1,0,0.1,0c0.2,0,0.3,0,0.3,0
			h0.1c0,0,0.1,0,0.1,0C63.6,95.5,63.6,95.5,63.8,95.5C63.7,95.5,63.7,95.5,63.8,95.5C63.7,95.5,63.8,95.5,63.8,95.5L63.8,95.5z"/>
		<path class="st21" d="M67.7,95.7C67.7,95.7,67.7,95.7,67.7,95.7l0,0.7c0,0,0,0.1,0,0.2c0,0.1,0,0.2,0,0.2c0,0,0,0.1,0,0.1
			c0,0.1,0,0.1,0,0.1c0,0.1,0,0.2,0,0.5c0,0.2,0,0.3,0,0.3c0,0.1,0,0.1,0,0.3c0,0.1,0,0.2,0,0.5v0.4c0,0,0,0.1,0,0.2
			c0,0.1,0,0.1,0,0.2v0.4v0.2c0,0,0,0,0.1,0c0.2,0,0.3,0,0.4,0c0,0,0.1,0,0.2,0h0.1h0.5h0.2c0.1,0,0.2,0,0.2,0c0,0,0.1,0,0.2,0
			c0.1,0,0.1,0,0.2,0c0.1,0,0.2,0,0.3,0c0.1,0,0.2,0,0.4,0h0.4c0.1,0,0.1,0,0.2,0c0.1,0,0.2,0,0.2,0h0.5h0.2c0.1,0,0.2,0,0.5,0
			c0,0,0.1,0,0.2,0c0.1,0,0.1,0,0.2,0h0.1h0H73h0c0,0,0.1,0,0.1,0v0.2c0,0.1,0,0.6,0,1.3v0c0,0,0,0-0.1,0h0h-0.3h-0.1h-0.3h-0.3h0
			h-0.3h-0.1h-0.2h-0.2c0,0,0,0-0.1,0h-0.1c-0.2,0-0.3,0-0.4,0c0,0,0,0-0.1,0c0,0,0,0-0.1,0c0,0-0.1,0-0.1,0h-1.3
			c-0.1,0-0.2,0-0.3,0c-0.1,0-0.2,0-0.3,0c-0.1,0-0.2,0-0.3,0c-0.1,0-0.2,0-0.3,0H67c0,0,0,0-0.1,0c0,0,0,0-0.1,0
			c-0.1,0-0.2,0-0.3,0h-0.2c-0.1,0-0.2,0-0.3,0c0,0-0.1,0-0.2,0c-0.1,0-0.2,0-0.2,0h-0.3h-0.1c0,0,0,0,0,0h-0.2h-0.1v-0.1
			c0-0.1,0-0.1,0-0.1v0v-0.3c0-0.1,0-0.4,0-0.6c0-0.3,0-0.5,0-0.6c0-0.1,0-0.3,0-0.5v-0.5c0-0.1,0-0.3,0-0.5c0-0.2,0-0.3,0-0.4v-0.4
			c0,0,0-0.1,0-0.1c0,0,0-0.1,0-0.1c0-0.1,0-0.2,0-0.4c0-0.2,0-0.4,0-0.5v-0.4c0-0.2,0-0.3,0-0.4c0,0,0,0,0,0c0,0,0,0,0,0
			c0,0,0.1,0,0.2,0h0.2c0,0,0,0,0.1,0c0,0,0.1,0,0.1,0h0.1c0,0,0,0,0.1,0c0,0,0.1,0,0.1,0c0.1,0,0.2,0,0.3,0c0,0,0,0,0.1,0
			c0,0,0,0,0.1,0c0.1,0,0.2,0,0.6,0h0.6c0,0,0.1,0,0.1,0C67.6,95.6,67.6,95.6,67.7,95.7L67.7,95.7L67.7,95.7z"/>
		<path class="st21" d="M77,95.7C77,95.7,77.1,95.7,77,95.7l0,0.7c0,0,0,0.1,0,0.2c0,0.1,0,0.2,0,0.2c0,0,0,0.1,0,0.1
			c0,0.1,0,0.1,0,0.1c0,0.1,0,0.2,0,0.5c0,0.2,0,0.3,0,0.3c0,0.1,0,0.1,0,0.3c0,0.1,0,0.2,0,0.5v0.4c0,0,0,0.1,0,0.2
			c0,0.1,0,0.1,0,0.2v0.4v0.2c0,0,0,0,0.1,0c0.2,0,0.3,0,0.4,0c0,0,0.1,0,0.2,0h0.1h0.5h0.2c0.1,0,0.2,0,0.2,0c0,0,0.1,0,0.2,0
			c0.1,0,0.1,0,0.2,0c0.1,0,0.2,0,0.3,0c0.1,0,0.2,0,0.4,0h0.4c0.1,0,0.1,0,0.2,0s0.2,0,0.2,0h0.5h0.2c0.1,0,0.2,0,0.5,0
			c0,0,0.1,0,0.2,0c0.1,0,0.1,0,0.2,0h0.1h0h0.1h0c0,0,0.1,0,0.1,0v0.2c0,0.1,0,0.6,0,1.3v0c0,0,0,0-0.1,0h0h-0.3h-0.1h-0.3h-0.3h0
			h-0.3h-0.1h-0.2h-0.2c0,0,0,0-0.1,0h-0.1c-0.2,0-0.3,0-0.4,0c0,0,0,0-0.1,0c0,0,0,0-0.1,0c0,0-0.1,0-0.1,0h-1.3
			c-0.1,0-0.2,0-0.3,0c-0.1,0-0.2,0-0.3,0c-0.1,0-0.2,0-0.3,0c-0.1,0-0.2,0-0.3,0h-1.2c0,0,0,0-0.1,0c0,0,0,0-0.1,0
			c-0.1,0-0.2,0-0.3,0h-0.2c-0.1,0-0.2,0-0.3,0c0,0-0.1,0-0.2,0c-0.1,0-0.2,0-0.2,0h-0.3h-0.1c0,0,0,0,0,0h-0.2h-0.1v-0.1
			c0-0.1,0-0.1,0-0.1v0v-0.3c0-0.1,0-0.4,0-0.6c0-0.3,0-0.5,0-0.6c0-0.1,0-0.3,0-0.5v-0.5c0-0.1,0-0.3,0-0.5c0-0.2,0-0.3,0-0.4v-0.4
			c0,0,0-0.1,0-0.1c0,0,0-0.1,0-0.1c0-0.1,0-0.2,0-0.4c0-0.2,0-0.4,0-0.5v-0.4c0-0.2,0-0.3,0-0.4c0,0,0,0,0,0c0,0,0,0,0,0
			c0,0,0.1,0,0.2,0h0.2c0,0,0,0,0.1,0c0,0,0.1,0,0.1,0h0.1c0,0,0,0,0.1,0c0,0,0.1,0,0.1,0c0.1,0,0.2,0,0.3,0c0,0,0,0,0.1,0
			c0,0,0,0,0.1,0c0.1,0,0.2,0,0.6,0h0.6c0,0,0.1,0,0.1,0C77,95.6,77,95.6,77,95.7L77,95.7L77,95.7z"/>
		<path class="st21" d="M90,95.5C90,95.5,90,95.5,90,95.5c0,0.1,0,0.1,0,0.2c0,0.1,0,0.1,0,0.2c0,0.1,0,0.4,0,0.9c0,0.1,0,0.2,0,0.3
			c0,0.1,0,0.2,0,0.3c0,0.1,0,0.1,0,0.1v0.3c0,0.1,0,0.2,0,0.3c0,0.1,0,0.3,0,0.6c0,0.3,0,1.2,0,2.7c0,0,0,0.1,0,0.2
			c0,0,0,0.1-0.1,0.1c0,0,0,0,0,0c0,0,0,0,0,0c0,0-0.1,0-0.1,0c0,0,0,0,0,0c0,0-0.1,0-0.2,0h0c-0.1,0-0.1,0-0.2,0c0,0-0.1,0-0.2,0
			c-0.1,0-0.1,0-0.2,0h-1.5h-0.1c0,0-0.1,0-0.1,0v-0.2v-0.2c0-0.1,0-0.2,0-0.4c0-0.1,0-0.2,0-0.2c0-0.1,0-0.3,0-0.5s0-0.4,0-0.5
			c0-0.2,0-0.4,0-0.6v-0.6c0,0,0-0.1,0-0.2c0-0.1,0-0.1,0-0.2c0,0,0-0.1,0-0.2c0-0.1,0-0.2,0-0.3c0-0.1,0-0.2,0-0.4l0-0.5
			c0-0.3,0-0.5,0-0.5c0-0.1,0-0.3,0-0.6v-0.1c0,0,0,0,0.1-0.1c0,0,0.1,0,0.1,0c0.1,0,0.1,0,0.1,0h0H88c0,0,0.1,0,0.1,0
			c0.1,0,0.1,0,0.1,0c0,0,0.1,0,0.2,0c0.1,0,0.2,0,0.2,0h0.2c0,0,0.1,0,0.1,0c0,0,0.1,0,0.1,0c0,0,0.1,0,0.1,0c0.2,0,0.3,0,0.3,0
			h0.1c0,0,0.1,0,0.1,0C89.8,95.5,89.8,95.5,90,95.5C89.9,95.5,89.9,95.5,90,95.5C89.9,95.5,90,95.5,90,95.5L90,95.5z"/>
		<path class="st21" d="M91.3,101.7C91.3,101.7,91.3,101.7,91.3,101.7l0-0.2c0,0,0,0,0,0v-1c0-0.1,0-0.1,0-0.2c0-0.1,0-0.2,0-0.2
			c0-0.1,0-0.1,0-0.2c0-0.1,0-0.2,0-0.3v0v-0.5c0-0.2,0-0.3,0-0.4c0-0.1,0-0.3,0-0.5v-0.3c0-0.1,0-0.2,0-0.4c0-0.2,0-0.3,0-0.4v-0.2
			c0-0.1,0-0.1,0-0.2c0,0,0,0,0,0c0,0,0,0,0,0v-0.7c0,0,0,0,0-0.1c0,0,0-0.1,0-0.1v-0.1c0,0,0,0,0.1,0c0,0,0,0,0.1,0
			c0.1,0,0.1,0,0.2,0c0.1,0,0.1,0,0.2,0H92c0.1,0,0.2,0,0.4,0c0.2,0,0.3,0,0.3,0c0,0,0.1,0,0.2,0c0.1,0,0.1,0,0.2,0h0.8
			c0.1,0,0.1,0,0.1,0.1c0.1,0.1,0.1,0.1,0.2,0.2c0.1,0.1,0.2,0.1,0.3,0.2c0,0,0,0,0.1,0.1c0,0,0.1,0.1,0.2,0.1
			c0.1,0.1,0.1,0.1,0.2,0.1c0.1,0.1,0.2,0.1,0.2,0.2c0.1,0.1,0.2,0.2,0.3,0.3c0.1,0.1,0.2,0.1,0.2,0.2c0,0,0.1,0.1,0.2,0.1
			c0.1,0.1,0.1,0.1,0.2,0.1c0,0,0,0,0.1,0s0,0,0.1,0c0.1,0.1,0.2,0.1,0.3,0.2c0,0,0.1,0.1,0.2,0.1c0.1,0.1,0.1,0.1,0.2,0.1
			c0.1,0.1,0.2,0.2,0.2,0.2c0,0,0.1,0.1,0.1,0.1c0,0,0.1,0.1,0.2,0.1c0.1,0.1,0.2,0.2,0.2,0.2c0.1,0.1,0.2,0.1,0.2,0.2
			c0,0,0.1,0.1,0.1,0.1c0.1,0,0.1,0.1,0.1,0.1c0,0,0,0,0.1,0.1c0,0,0.1,0.1,0.1,0.1c0,0,0,0,0.1,0.1c0,0,0,0,0.1,0v0v-1.1
			c0,0,0-0.1,0-0.1c0-0.1,0-0.1,0-0.2v-0.3c0-0.1,0-0.1,0-0.2c0,0,0-0.1,0-0.2c0,0,0-0.2,0-0.3v-0.3v-0.2c0-0.1,0-0.1,0-0.2
			c0,0,0-0.1,0-0.1c0.1,0,0.1,0,0.2,0c0.4,0,0.8,0,1,0h0.5c0.1,0,0.1,0,0.3,0h0.2h0.4c0,0,0,0,0,0c0,0,0,0,0,0v0v0.2V96v0.1
			c0,0.2,0,0.4,0,0.6v0.6c0,0.2,0,0.4,0,0.6c0,0.1,0,0.6,0,1.2v0.9c0,0.3,0,0.5,0,0.6c0,0.2,0,0.3,0,0.4c0,0,0,0.1,0,0.2
			c0,0.1,0,0.1,0,0.2c0,0,0,0.1,0,0.1c0,0,0,0.1,0,0.1c0,0,0,0,0,0.1h0c-0.1,0-0.2,0-0.2,0h-0.1h-0.1c-0.1,0-0.4,0-0.6,0h-0.2
			c-0.2,0-0.4,0-0.7,0c-0.1,0-0.2,0-0.3,0c-0.1,0-0.2,0-0.3,0H98c0,0-0.1,0-0.1,0c0,0,0,0-0.1-0.1c0,0-0.1-0.1-0.1-0.1
			c0,0-0.1,0-0.1-0.1c0,0-0.1-0.1-0.1-0.1c0,0-0.1,0-0.1-0.1c0,0-0.1-0.1-0.1-0.1c-0.1,0-0.1-0.1-0.1-0.1c0,0-0.1-0.1-0.1-0.1
			c0,0-0.1-0.1-0.2-0.2c0,0,0,0-0.1,0c0,0-0.1-0.1-0.1-0.1c0,0,0,0-0.1-0.1c0,0-0.1,0-0.1-0.1c0,0-0.1,0-0.1-0.1
			c0,0-0.1-0.1-0.1-0.1c-0.1-0.1-0.1-0.1-0.1-0.1c0,0-0.1-0.1-0.2-0.2c-0.1-0.1-0.1-0.1-0.2-0.1c0,0,0,0-0.1-0.1c0,0,0,0,0,0
			c-0.1-0.1-0.2-0.2-0.2-0.2c0,0-0.1-0.1-0.1-0.1c-0.1-0.1-0.1-0.1-0.1-0.1c-0.1,0-0.1-0.1-0.1-0.1c0,0,0-0.1-0.1-0.1
			c0,0-0.1-0.1-0.1-0.1c0,0-0.1-0.1-0.1-0.1c-0.1-0.1-0.3-0.2-0.4-0.3c0,0-0.1-0.1-0.1-0.1l0,0c-0.1-0.1-0.1-0.1-0.2-0.1L94,98.5v0
			c0,0.2,0,0.3,0,0.4v0.2v0.2v0.2v0.1v0.1v0.1c0,0,0,0.1,0,0.3v0.3c0,0.2,0,0.5,0,0.9v0.2v0.1c0,0-0.1,0-0.1,0c0,0,0,0-0.1,0h-0.1
			h-0.3c-0.1,0-0.3,0-0.3,0c-0.2,0-0.5,0-0.8,0h-0.8c0,0,0,0-0.1,0C91.4,101.7,91.3,101.7,91.3,101.7L91.3,101.7z"/>
		<path class="st21" d="M114.9,95.5C114.9,95.5,114.9,95.5,114.9,95.5C114.9,95.6,114.9,95.6,114.9,95.5c0,0.2,0,0.5,0,0.7v0.6
			c0,0,0,0.1,0,0.2c0,0,0,0-0.1,0c0,0-0.1,0-0.1,0c-0.2,0-0.4,0-0.5,0H114c-0.1,0-0.1,0-0.2,0c-0.1,0-0.2,0-0.3,0
			c-0.1,0-0.2,0-0.3,0c-0.1,0-0.3,0-0.4,0c-0.1,0-0.3,0-0.3,0c0,0-0.1,0-0.1,0c-0.1,0-0.1,0-0.1,0h-0.1c0,0-0.1,0-0.1,0
			c0,0-0.1,0-0.3,0c-0.2,0-0.4,0-0.7,0c-0.1,0-0.2,0-0.3,0c-0.1,0-0.2,0-0.2,0c0,0-0.3,0-0.7,0c0,0-0.1,0-0.3,0h-0.3
			c-0.1,0-0.2,0-0.3,0c-0.1,0-0.3,0.1-0.4,0.1c-0.1,0.1-0.2,0.2-0.3,0.3c0,0.1-0.1,0.2-0.1,0.3c0,0,0,0,0,0.1c0,0,0,0.1,0,0.1v0.2
			c0,0.1,0,0.2,0,0.2c0,0,0,0,0,0.1v0.7c0,0,0,0.1,0,0.1c0,0.1,0,0.3,0.1,0.4l0,0l0.1,0c0,0,0.1,0.1,0.2,0.2c0,0,0.1,0,0.1,0
			c0,0,0.1,0,0.2,0h0h0.6c0.1,0,0.2,0,0.3,0h0.2h0.2c0.2,0,0.3,0,0.4,0c0.1,0,0.2,0,0.3,0c0.2,0,0.3,0,0.4,0c0.1,0,0.2,0,0.4,0h0.4
			c0,0,0.1,0,0.1,0h0.1c0-0.1,0-0.1,0-0.3s0-0.2,0-0.3h0h-0.1c0,0-0.1,0-0.1,0c-0.1,0-0.1,0-0.2,0h-0.3c-0.1,0-0.1,0-0.3,0h-0.1
			c0,0-0.1,0-0.2,0c-0.1,0-0.1,0-0.2,0c0,0-0.1,0-0.2,0c-0.1,0-0.1,0-0.1,0c0,0-0.1,0-0.1,0h0v0v-0.3c0-0.1,0-0.2,0-0.3v-0.1v-0.7
			c0,0,0-0.1,0-0.1c0,0,0-0.1,0-0.1h0h0.4c0,0,0.1,0,0.1,0c0.2,0,0.4,0,0.5,0c0.1,0,0.2,0,0.2,0c0.1,0,0.2,0,0.5,0
			c0.1,0,0.1,0,0.2,0h0.1h0.5c0.1,0,0.2,0,0.3,0c0,0,0.2,0,0.5,0h0.4c0.1,0,0.3,0,0.8,0c0,0,0.1,0,0.2,0c0.1,0,0.1,0,0.2,0v0
			c0,0,0,0.1,0,0.1c0,0.1,0,0.1,0,0.1v0.1v1c0,0,0,0.3,0,0.7v0.7c0,0,0,0.1,0,0.1c0,0.1,0,0.1,0,0.1c0,0,0,0.1,0,0.1
			c0,0,0,0.1,0,0.1c0,0.1-0.1,0.2-0.2,0.3c-0.1,0.1-0.2,0.2-0.3,0.3c-0.1,0-0.2,0.1-0.3,0.1c0,0,0,0-0.1,0l-0.3,0h-0.1h-0.4
			c0,0-0.1,0-0.2,0c-0.1,0-0.1,0-0.2,0h-0.6c0,0,0,0-0.1,0c-0.2,0-0.3,0-0.4,0c-0.1,0-0.2,0-0.4,0c0,0-0.1,0-0.1,0
			c-0.1,0-0.1,0-0.1,0h-0.5c-0.1,0-0.2,0-0.3,0c-0.1,0-0.3,0-0.5,0c-0.1,0-0.4,0-1,0c0,0-0.1,0-0.2,0c-0.1,0-0.1,0-0.2,0h-0.3
			c0,0-0.1,0-0.1,0c-0.1,0-0.1,0-0.1,0h-0.1h-0.4c-0.1,0-0.2,0-0.3,0c0,0,0,0-0.1,0c0,0,0,0-0.1,0c0,0-0.1,0-0.1,0
			c-0.2,0-0.3-0.1-0.3-0.1c0,0-0.1,0-0.3-0.1l0,0c0,0,0,0,0,0c-0.1,0-0.2-0.1-0.4-0.2c-0.1-0.1-0.2-0.2-0.3-0.3c0,0,0,0,0,0
			c0,0,0,0,0,0c-0.1-0.1-0.1-0.2-0.2-0.3c0-0.1,0-0.1,0-0.2v0c0,0,0-0.1,0-0.2c0-0.1,0-0.1,0-0.2v-0.2c0-0.1,0-0.2,0-0.3v-0.3
			c0-0.1,0-0.2,0-0.3c0-0.1,0-0.1,0-0.3c0-0.1,0-0.2,0-0.3v-0.6c0,0,0-0.1,0-0.2c0-0.1,0-0.1,0-0.1c0,0,0-0.1,0-0.2c0,0,0-0.1,0-0.1
			c0,0,0-0.1,0-0.1c0-0.1,0.1-0.2,0.1-0.2c0,0,0-0.1,0.1-0.2c0-0.1,0.1-0.1,0.1-0.1c0-0.1,0.1-0.2,0.2-0.2l0.1-0.1
			c0.1-0.1,0.2-0.2,0.3-0.2c0.1-0.1,0.2-0.1,0.4-0.2c0,0,0.1,0,0.2,0c0.1,0,0.2,0,0.2,0h0h0.1c0.1,0,0.3,0,0.5,0c0.1,0,0.2,0,0.2,0
			c0,0,0,0,0.1,0h0.4c0.3,0,0.4,0,0.4,0c0.1,0,0.2,0,0.3,0c0.1,0,0.2,0,0.3,0c0,0,0.1,0,0.1,0c0.1,0,0.1,0,0.1,0h0.1
			c0.1,0,0.2,0,0.3,0c0.2,0,0.4,0,0.7,0c0.2,0,0.4,0,0.5,0c0.1,0,0.2,0,0.3,0c0.1,0,0.2,0,0.3,0h0.3h0.2c0.3,0,0.6,0,0.6,0
			c0.2,0,0.4,0,0.6,0c0.3,0,0.5,0,0.6,0L114.9,95.5C114.9,95.5,114.9,95.5,114.9,95.5L114.9,95.5z"/>
		<path class="st21" d="M120.3,95.5c0.1,0,0.3,0,0.4,0h0.5c0.1,0,0.3,0,0.5,0h0.8c0,0,0.1,0,0.2,0c0,0,0,0,0,0.1
			c0.1,0.1,0.1,0.2,0.1,0.2c0,0,0,0,0.1,0.1c0,0,0,0,0,0c0,0,0.1,0.1,0.1,0.1c0.1,0.1,0.1,0.1,0.1,0.2c0,0.1,0.1,0.2,0.2,0.4
			c0.2,0.2,0.3,0.4,0.4,0.6c0,0,0,0,0,0.1c0,0,0,0.1,0,0.1c0,0,0,0,0,0c0,0,0.1,0.1,0.2,0.2c0,0.1,0.1,0.2,0.1,0.3
			c0,0.1,0.1,0.1,0.2,0.2c0.1,0.1,0.2,0.2,0.3,0.4c0,0,0.1,0.1,0.1,0.2c0,0.1,0.1,0.1,0.1,0.1c0,0,0.1,0.1,0.1,0.2c0,0,0,0,0.1,0.1
			c0,0,0,0.1,0.1,0.1c0,0,0,0,0,0c0,0,0,0,0,0c0,0.1,0.1,0.2,0.2,0.4c0.1,0.1,0.2,0.2,0.2,0.4c0,0,0.1,0.1,0.1,0.2
			c0,0,0.1,0.2,0.2,0.4c0.1,0.1,0.1,0.2,0.2,0.3c0,0,0.1,0.1,0.1,0.1c0,0.1,0.1,0.1,0.1,0.1c0,0,0.1,0.1,0.1,0.2
			c0,0.1,0.1,0.1,0.1,0.1c0.1,0.1,0.2,0.2,0.3,0.4c0,0,0,0,0,0.1l0,0.1c0,0,0,0,0,0h-3c0,0,0,0,0-0.1c0-0.1-0.1-0.1-0.1-0.1
			c0,0,0-0.1-0.1-0.1c-0.1-0.1-0.1-0.1-0.1-0.2c0,0,0,0,0,0c0,0,0,0,0,0c0,0,0-0.1-0.1-0.1c0,0-0.1-0.1-0.1-0.1c0,0,0,0,0,0
			c0,0,0,0,0,0c0,0,0,0,0,0c0,0,0,0,0,0c0,0,0-0.1-0.1-0.1c0,0-0.1-0.1-0.1-0.1h-0.1c0,0,0,0-0.1,0c0,0,0,0-0.1,0h-0.3
			c-0.2,0-0.3,0-0.3,0c-0.2,0-0.5,0-0.8,0c-0.2,0-0.4,0-0.8,0h-0.8h-0.1c-0.1,0.1-0.1,0.1-0.1,0.2c0,0,0,0.1-0.1,0.1
			c0,0-0.1,0.1-0.1,0.1c0,0-0.1,0.1-0.1,0.2c-0.1,0.1-0.1,0.1-0.1,0.2c0,0-0.1,0.1-0.1,0.2c0,0,0,0,0,0c0,0.1-0.1,0.1-0.1,0.2h-0.1
			h-1h-1h-0.1c0,0-0.1,0-0.1,0h-0.1h-0.6h-0.1l0.1-0.2c0.1-0.1,0.1-0.2,0.2-0.3c0.1-0.1,0.1-0.2,0.1-0.2c0-0.1,0.1-0.1,0.1-0.1
			c0.1-0.1,0.2-0.3,0.3-0.5c0,0,0.1-0.1,0.1-0.2c0-0.1,0.1-0.1,0.1-0.2c0,0,0.1-0.2,0.2-0.4l0.2-0.3c0,0,0.1-0.1,0.1-0.2
			c0.1-0.1,0.1-0.1,0.1-0.2c0,0,0.1-0.1,0.2-0.3l0.2-0.3c0.1-0.1,0.1-0.1,0.1-0.2c0,0,0-0.1,0.1-0.1c0-0.1,0.1-0.1,0.1-0.1
			c0,0,0.1-0.1,0.1-0.1c0-0.1,0.1-0.1,0.1-0.2c0,0,0-0.1,0.1-0.1c0-0.1,0.1-0.1,0.1-0.1c0,0,0-0.1,0.1-0.1c0-0.1,0.1-0.1,0.1-0.1
			c0.1-0.1,0.1-0.2,0.2-0.3c0.1-0.1,0.1-0.2,0.2-0.3l0.1-0.1c0.1-0.1,0.1-0.2,0.2-0.3c0,0,0-0.1,0.1-0.2c0-0.1,0.1-0.1,0.1-0.1
			l0.2-0.2l0.1-0.2c0,0,0-0.1,0.1-0.2L120.3,95.5z M121.8,99c-0.1-0.1-0.2-0.2-0.2-0.2c0,0,0,0,0,0c0,0,0,0,0,0l-0.1-0.1
			c0,0-0.1-0.1-0.1-0.1c0,0,0-0.1,0-0.1c0,0-0.1-0.1-0.1-0.2l-0.1,0l0,0c-0.1,0.2-0.2,0.3-0.3,0.4c-0.1,0.1-0.2,0.2-0.2,0.3
			c0,0,0,0-0.1,0.1L121.8,99L121.8,99z"/>
		<path class="st21" d="M138.1,101.8L138.1,101.8h-0.6h-0.6c-0.1,0-0.1,0-0.3,0c-0.1,0-0.2,0-0.3,0c-0.1,0-0.3,0-0.7,0h-0.2
			c0,0,0,0,0,0v0v-1c0,0,0-0.1,0-0.1s0-0.1,0-0.1c0-0.2,0-0.3,0-0.3V100v-0.4c0,0,0,0,0,0c0,0,0,0,0,0v-0.1c0,0-0.1,0.1-0.1,0.1
			c0,0.1-0.1,0.1-0.2,0.2c0,0-0.1,0.1-0.1,0.1c0,0-0.1,0.1-0.2,0.2c0,0,0,0,0,0.1l-0.1,0.1c0,0,0,0,0,0.1c0,0,0,0,0,0c0,0,0,0,0,0
			c-0.1,0.1-0.1,0.2-0.2,0.2c0,0,0,0-0.1,0.1c0,0,0,0-0.1,0.1c0,0,0,0,0,0c0,0,0,0,0,0c0,0,0,0-0.1,0.1c0,0.1-0.1,0.1-0.1,0.1
			c0,0.1-0.1,0.1-0.1,0.1c0,0.1-0.1,0.1-0.1,0.1c0,0-0.1,0-0.1,0h-1.4c0,0-0.1,0-0.2,0c-0.1,0-0.2,0-0.2,0c-0.1,0-0.1,0-0.3,0
			c-0.1,0-0.2,0-0.3,0h0c0,0-0.1,0-0.1-0.1c0,0,0-0.1-0.1-0.1c0,0,0-0.1-0.1-0.1c0,0,0-0.1-0.1-0.1c0,0-0.1-0.1-0.1-0.1
			c0,0-0.1-0.1-0.1-0.2c0,0-0.1-0.1-0.1-0.1c0-0.1-0.1-0.1-0.1-0.1c0,0,0-0.1-0.1-0.1c0-0.1-0.1-0.1-0.1-0.1
			c-0.1-0.1-0.1-0.1-0.1-0.2c0,0-0.1-0.1-0.1-0.2l-0.1-0.1c0,0-0.1-0.1-0.1-0.2c0,0,0-0.1,0-0.1c0,0,0,0,0,0c0,0,0,0,0,0v0.1
			c0,0,0,0.1,0,0.1c0,0.1,0,0.2,0,0.3c0,0.1,0,0.2,0,0.3c0,0.1,0,0.5,0,1.1c0,0.1,0,0.3,0,0.3v0.1v0c0,0,0,0,0,0h0
			c-0.1,0-0.2,0-0.3,0c-0.3,0-0.5,0-0.6,0H129c-0.1,0-0.2,0-0.2,0c-0.1,0-0.2,0-0.3,0h-0.3c-0.1,0-0.1,0-0.3,0c0,0-0.1,0-0.1,0
			c0,0-0.1,0-0.1,0c0,0,0,0,0,0c0,0,0,0,0,0v-0.3c0,0,0-0.1,0-0.1c0-0.1,0-0.1,0-0.2c0-0.1,0-0.6,0-1.4c0-0.1,0-0.2,0-0.4
			c0,0,0,0,0,0c0,0,0,0,0-0.1v-0.1c0-0.4,0-0.6,0-0.7v-0.6v-0.1c0-0.1,0-0.1,0-0.1c0,0,0-0.1,0-0.1c0-0.1,0-0.1,0-0.1
			c0-0.1,0-0.1,0-0.3V96v-0.1c0-0.1,0-0.2,0-0.2c0,0,0,0,0.1,0h0.1h0.1h0.1c0.2,0,0.3,0,0.4,0c0.2,0,0.4,0,0.6,0c0.1,0,0.4,0,0.7,0
			c0.1,0,0.3,0,0.6,0l0.1,0.1c0.1,0.1,0.2,0.2,0.3,0.5c0,0,0.1,0.1,0.1,0.1c0,0.1,0.1,0.1,0.1,0.2c0,0.1,0.1,0.1,0.1,0.1
			c0,0,0.1,0.1,0.2,0.2c0,0.1,0.1,0.1,0.2,0.3c0,0,0.1,0.1,0.1,0.2c0.1,0.1,0.1,0.1,0.1,0.2c0,0,0,0,0,0.1c0,0,0,0,0,0.1
			c0,0,0.1,0.1,0.2,0.3c0.1,0.1,0.2,0.2,0.3,0.4c0,0.1,0.1,0.1,0.2,0.2c0,0,0.1,0.1,0.1,0.2c0.1,0.1,0.1,0.1,0.1,0.2
			c0,0,0.1,0.1,0.1,0.1c0,0.1,0.1,0.1,0.1,0.1c0,0,0,0,0,0c0,0,0,0,0.1-0.1c0,0,0-0.1,0.1-0.1c0-0.1,0.1-0.2,0.3-0.4
			c0,0,0.1-0.1,0.1-0.1c0.1-0.1,0.1-0.1,0.1-0.2c0,0,0.1-0.1,0.1-0.2c0-0.1,0.1-0.1,0.1-0.2c0,0,0,0,0.1-0.1c0,0,0-0.1,0.1-0.1
			c0,0,0-0.1,0.1-0.1c0,0,0,0,0-0.1s0,0,0-0.1c0-0.1,0.1-0.1,0.2-0.2c0.1-0.1,0.1-0.1,0.1-0.2c0,0,0.1-0.1,0.1-0.1c0,0,0,0,0.1-0.1
			c0,0,0.1-0.1,0.1-0.1c0,0,0.1-0.1,0.1-0.1c0-0.1,0.1-0.1,0.1-0.1c0,0,0.1-0.1,0.2-0.2c0.1-0.1,0.1-0.1,0.1-0.2
			c0,0,0.1-0.1,0.1-0.2c0.1-0.1,0.1-0.1,0.1-0.2c0.1-0.1,0.1-0.1,0.1-0.1c0,0,0,0,0-0.1c0,0,0,0,0-0.1h0.1h1.6c0,0,0.1,0,0.2,0
			c0.1,0,0.1,0,0.2,0c0.1,0,0.3,0,0.6,0c0,0,0,0,0,0c0,0,0,0,0,0.1c0,0,0,0.1,0,0.1v0.6c0,0.2,0,0.4,0,0.5c0,0.1,0,0.3,0,0.6V98
			c0,0,0,0.1,0,0.2c0,0.1,0,0.2,0,0.2c0,0.2,0,0.5,0,0.9v0.9c0,0.1,0,0.6,0,1.3c0,0,0,0.1,0,0.1
			C138.2,101.6,138.2,101.7,138.1,101.8L138.1,101.8z"/>
		<path class="st21" d="M139.6,95.6h0.3h0.3h0.3c0.2,0,0.4,0,0.5,0h0.2c0.1,0,0.2,0,0.2,0c0.1,0,0.2,0,0.3,0h0.1h0.6c0,0,0,0,0.1,0
			c0,0,0.1,0,0.1,0c0,0,0.1,0,0.1,0h0c0.1,0,0.1,0,0.1,0c0,0,0,0,0.1,0c0,0,0,0,0,0h0.4c0.2,0,0.3,0,0.4,0c0.2,0,0.3,0,0.4,0
			c0.1,0,0.3,0,0.6,0c0,0,0.1,0,0.2,0l0.2,0c0,0,0.1,0,0.1,0c0.1,0,0.1,0,0.1,0c0.1,0,0.1,0,0.2,0c0,0,0.1,0,0.2,0
			c0.1,0,0.4,0,0.9,0c0.2,0,0.4,0,0.6,0h0.6l0,0c0,0.1,0,0.1,0,0.2c0,0,0,0.1,0,0.1c0,0,0,0.1,0,0.2v1v0h0H147c0,0,0,0-0.1,0
			c0,0-0.1,0-0.1,0c-0.1,0-0.2,0-0.3,0c-0.1,0-0.1,0-0.3,0h-0.7c-0.1,0-0.2,0-0.3,0h-0.1c-0.1,0-0.3,0-0.5,0c0,0-0.1,0-0.2,0
			s-0.1,0-0.2,0h0c-0.1,0-0.2,0-0.2,0c-0.2,0-0.3,0-0.4,0c-0.1,0-0.2,0-0.4,0H143h-0.2c-0.1,0-0.2,0-0.3,0h-0.3c0,0,0,0-0.1,0
			c0,0-0.1,0-0.1,0v0.1c0,0,0,0,0,0.1c0,0,0,0.1,0,0.1v0c0,0,0,0.1,0,0.2c0,0.1,0,0.1,0,0.2v0h0h0.8c0,0,0.1,0,0.2,0s0.2,0,0.2,0
			c0.1,0,0.1,0,0.2,0h0.2c0.1,0,0.2,0,0.3,0h0h1.3c0.1,0,0.3,0,0.6,0c0,0,0,0,0.1,0c0,0,0.1,0,0.1,0h0.5c0,0,0,0,0.1,0
			c0,0,0.1,0,0.1,0h0.1v0V98c0,0.1,0,0.1,0,0.1v1c0,0.1,0,0.2,0,0.2c0,0,0,0-0.1,0c0,0-0.1,0-0.1,0c0,0-0.1,0-0.2,0h0h-0.5
			c0,0-0.1,0-0.2,0c-0.1,0-0.2,0-0.2,0c-0.1,0-0.1,0-0.2,0h0c-0.1,0-0.1,0-0.2,0c-0.1,0-0.2,0-0.2,0c0,0-0.1,0-0.2,0
			c-0.1,0-0.2,0-0.2,0c-0.1,0-0.2,0-0.4,0H144c0,0-0.1,0-0.1,0c-0.1,0-0.1,0-0.1,0c-0.1,0-0.2,0-0.2,0c0,0-0.1,0-0.1,0h-0.1
			c-0.1,0-0.1,0-0.2,0c-0.1,0-0.4,0-0.9,0h0v0.2c0,0,0,0.1,0,0.1c0,0.1,0,0.1,0,0.1v0.2c0.1,0,0.1,0,0.1,0h1.2c0,0,0,0,0.1,0
			c0,0,0,0,0,0c0.1,0,0.2,0,0.3,0c0,0,0,0,0.1,0c0,0,0.1,0,0.1,0c0,0,0.1,0,0.2,0h0.1h0.7c0.2,0,0.3,0,0.3,0c0.1,0,0.3,0,0.4,0h0.3
			h0.3c0.2,0,0.3,0,0.4,0c0.1,0,0.3,0,0.7,0c0,0,0.1,0,0.2,0c0.1,0,0.1,0,0.2,0c0,0,0,0,0,0h0c0,0.1,0,0.2,0,0.3s0,0.2,0,0.3
			c0,0.1,0,0.2,0,0.3v0.8h0c-0.1,0-0.1,0-0.2,0c-0.1,0-0.2,0-0.3,0c-0.1,0-0.2,0-0.4,0c0,0-0.1,0-0.1,0c-0.1,0-0.1,0-0.2,0
			c-0.2,0-0.4,0-0.5,0c-0.2,0-0.4,0-0.5,0c-0.1,0-0.2,0-0.3,0h-0.1c-0.1,0-0.1,0-0.1,0c-0.1,0-0.3,0-0.7,0c-0.1,0-0.2,0-0.3,0
			c-0.1,0-0.2,0-0.5,0c0,0-0.1,0-0.1,0c0,0-0.1,0-0.1,0h0c0,0-0.1,0-0.2,0c-0.1,0-0.1,0-0.2,0c0,0-0.1,0-0.2,0h-0.2h-0.2
			c-0.1,0-0.1,0-0.2,0c-0.1,0-0.2,0-0.3,0h-0.3c-0.1,0-0.3,0-0.6,0c-0.2,0-0.4,0-0.5,0c-0.2,0-0.3,0-0.4,0c-0.1,0-0.2,0-0.3,0
			c-0.1,0-0.3,0-0.5,0h0c0,0,0,0,0,0c0,0,0,0,0,0c0-0.2,0-0.4,0-0.4c0-0.1,0-0.2,0-0.4c0-0.2,0-0.3,0-0.4c0,0,0-0.1,0-0.2V100v-0.2
			c0-0.1,0-0.1,0-0.2c0-0.1,0-0.3,0-0.5v-0.3c0-0.1,0-0.3,0-0.3c0-0.1,0-0.4,0-0.9c0,0,0,0,0-0.1c0,0,0-0.1,0-0.1v-0.2v-0.2v-0.2
			c0-0.2,0-0.4,0-0.6c0-0.1,0-0.2,0-0.3L139.6,95.6L139.6,95.6L139.6,95.6C139.5,95.5,139.5,95.5,139.6,95.6L139.6,95.6z"/>
	</g>
	<path class="st22" d="M103.7,122.4c-6.8,2.6-13.5,2.6-20.3,0c2.1-0.8,4.3-0.3,6.4-0.4c1,0.6,2-0.2,3-0.1c0.8,0.2,1.7,0.1,2.6,0.1
		c0.7,0.3,1.6,0,2.3,0.4C99.7,121.7,101.7,121.8,103.7,122.4z"/>
	<path class="st23" d="M92.9,122.4c-1,0.3-2,0.8-3,0c2.1-0.3,4.1-0.6,6.2,0c-0.2,0.3-0.6,0.3-0.9,0.3
		C94.4,122.5,93.6,122.7,92.9,122.4z"/>
	<path class="st24" d="M95.2,122.4c0.3,0,0.6-0.1,0.9-0.1c0.6,0,1-0.1,1.6,0.4c-0.8,0-1.7,0-2.5,0C95.2,122.6,95.2,122.5,95.2,122.4
		z"/>
	<path class="st25" d="M95.2,122.4c0,0.1,0,0.2,0,0.3c-0.8,0-1.6,0.4-2.3-0.3C93.6,122.4,94.4,122.4,95.2,122.4z"/>
	<path class="st26" d="M71.7,124c-2.5,0.2-4.9,0.8-7.3,1.6c-0.9,0.3-0.1,0.6,0,0.8c0.2,1.2,1.3,2.7,0.5,3.4
		c-0.8,0.7-2.1-0.7-3.3-0.9c-3-0.6-4.3-2.5-4.9-5.3c-0.9-3.5-2.1-6.9-3.3-10.4c-0.4-1.2-0.3-1.7,1.1-2.2c16.1-5.1,32.6-6.5,49.3-5.5
		c9.9,0.6,19.6,2.7,29.1,5.5c0.9,0.3,1.5,0.5,1.1,1.6c-1.6,4.8-3.2,9.7-4.8,14.6c-0.1,0.3-1-0.5-0.7,0.5c-2.1,0.8-4.2,1.7-6.4,2.6
		c-0.1-1.5,0.6-2.6,0.8-3.8c0-0.3,0.9-0.6,0-0.8c-2.4-0.8-4.8-1.3-7.3-1.6c-2,0.5-3.9-0.2-5.9-0.6c-1.9,0.1-3.8-0.3-5.7-0.5
		c-2-0.7-4,0-6-0.2c-0.7-0.1-3.6,0.2-4.2,0.1c-3.2-0.1-1.6,0-3.8-0.2c-2.1,0.3-4.2-0.5-6.3,0.3c-2,0.2-3.9,0.6-5.9,0.5
		C75.7,123.8,73.8,124.5,71.7,124z"/>
	<g>
		<g>
			<path class="st21" d="M67.9,116.2c-0.6,0.1-0.8,0.2-1.4,0.3c0.1,0.6,0.2,0.9,0.4,1.5c-0.2,0.1-0.4,0.1-0.6,0.1
				c-0.4-1.5-0.5-2.2-0.9-3.7c0.8-0.2,1.3-0.3,2.1-0.5c0,0.2,0.1,0.3,0.1,0.5c-0.6,0.1-0.9,0.2-1.5,0.3c0.1,0.4,0.2,0.7,0.3,1.1
				c0.6-0.1,0.8-0.2,1.4-0.3C67.8,115.9,67.9,116,67.9,116.2z"/>
			<path class="st21" d="M68.9,117.6c-0.3-1.5-0.5-2.2-0.8-3.7c0.2-0.1,0.4-0.1,0.6-0.1c0.3,1.5,0.5,2.2,0.8,3.7
				C69.2,117.6,69.1,117.6,68.9,117.6z"/>
			<path class="st21" d="M70.3,114.6c0.2,1,0.3,1.6,0.5,2.6c-0.2,0-0.3,0.1-0.5,0.1c-0.3-1.5-0.4-2.2-0.7-3.7c0.2,0,0.3-0.1,0.4-0.1
				c0.9,0.9,1.4,1.4,2.3,2.3c-0.2-1-0.3-1.6-0.5-2.6c0.2,0,0.3-0.1,0.5-0.1c0.3,1.5,0.4,2.2,0.7,3.7c-0.2,0-0.3,0-0.4,0.1
				C71.7,116,71.2,115.5,70.3,114.6z"/>
			<path class="st21" d="M73.2,113c0.7-0.1,1-0.2,1.7-0.3c0.1,0,0.2,0,0.3,0c0.4,0,0.7,0.2,0.8,0.7c0.1,0.9,0.2,1.3,0.3,2.2
				c0,0,0,0.1,0,0.1c0,0.5-0.2,0.8-0.8,0.9c-0.7,0.1-1,0.1-1.6,0.2C73.5,115.2,73.4,114.5,73.2,113z M73.9,113.4
				c0.2,1.1,0.3,1.6,0.5,2.7c0.5-0.1,0.7-0.1,1.2-0.2c0,0,0.1,0,0.1-0.1c-0.2-1-0.2-1.5-0.4-2.6c0,0,0-0.1-0.1-0.1
				C74.6,113.2,74.4,113.3,73.9,113.4z"/>
			<path class="st21" d="M79.2,115.9c-0.1-0.5-0.1-0.8-0.2-1.3c-0.1,0-0.1,0-0.2,0c-0.1-0.1-0.2-0.2-0.4-0.4c-0.4-0.7-0.6-1.1-1-1.8
				c0.3,0,0.4-0.1,0.7-0.1c0.4,0.7,0.6,1,0.9,1.7c0,0,0,0,0.1,0c0.1,0,0.2,0,0.3,0c0,0,0.1,0,0.1-0.1c0.2-0.8,0.3-1.1,0.5-1.9
				c0.3,0,0.4,0,0.6-0.1c-0.2,0.8-0.3,1.2-0.5,1.9c0,0.1-0.1,0.3-0.1,0.3c-0.1,0.1-0.2,0.2-0.3,0.3c0.1,0.5,0.1,0.8,0.2,1.3
				C79.5,115.8,79.4,115.9,79.2,115.9z"/>
			<path class="st21" d="M81,112.6c0-0.1,0-0.2,0-0.2c0-0.4,0.3-0.6,0.8-0.6c0.4,0,0.6-0.1,1-0.1c0.1,0,0.2,0,0.3,0
				c0.4,0,0.6,0.3,0.6,0.7c0.1,0.9,0.1,1.4,0.2,2.3c0,0.1,0,0.1,0,0.2c0,0.4-0.3,0.6-0.8,0.6c-0.4,0-0.6,0.1-1,0.1
				c-0.1,0-0.2,0-0.2,0c-0.4,0-0.6-0.2-0.7-0.7C81.1,114,81.1,113.5,81,112.6z M81.7,112.3C81.6,112.3,81.6,112.4,81.7,112.3
				c0,1.1,0.1,1.6,0.2,2.7c0,0,0,0.1,0.1,0.1c0.5-0.1,0.8-0.1,1.3-0.1c0,0,0.1,0,0.1-0.1c-0.1-1-0.1-1.6-0.2-2.6c0,0,0-0.1-0.1-0.1
				C82.5,112.3,82.2,112.3,81.7,112.3z"/>
			<path class="st21" d="M85.6,115.3c-0.1,0-0.2,0-0.2,0c-0.4,0-0.6-0.3-0.7-0.7c-0.1-1.2-0.1-1.8-0.2-3c0.3,0,0.4,0,0.6,0
				c0.1,1.3,0.1,1.9,0.2,3.2c0,0,0,0.1,0.1,0.1c0.5,0,0.8-0.1,1.3-0.1c0,0,0.1,0,0.1-0.1c-0.1-1.3-0.1-1.9-0.2-3.2
				c0.3,0,0.4,0,0.6,0c0.1,1.2,0.1,1.8,0.2,3c0,0.1,0,0.1,0,0.2c0,0.4-0.3,0.6-0.8,0.6C86.2,115.3,86,115.3,85.6,115.3z"/>
			<path class="st21" d="M88.2,115.1c-0.1-1.5-0.1-2.3-0.2-3.8c0.7,0,1-0.1,1.6-0.1c0.6,0,0.9,0.2,0.9,0.8c0,0.3,0,0.4,0,0.7
				c0,0.4-0.2,0.7-0.5,0.8c0.1,0.1,0.2,0.2,0.3,0.4c0.2,0.5,0.3,0.7,0.4,1.2c-0.2,0-0.4,0-0.6,0c-0.2-0.6-0.3-0.8-0.5-1.4
				c0,0-0.1-0.1-0.1-0.1c-0.3,0-0.5,0-0.8,0c0,0.6,0,0.9,0.1,1.5C88.6,115.1,88.4,115.1,88.2,115.1z M88.7,111.8
				c0,0.5,0,0.8,0.1,1.3c0.5,0,0.7,0,1.2,0c0,0,0.1,0,0.1-0.1c0-0.4,0-0.7,0-1.1c0,0,0-0.1-0.1-0.1
				C89.4,111.8,89.2,111.8,88.7,111.8z"/>
			<path class="st21" d="M92.7,115c0-1.5,0-2.3,0-3.8c0.7,0,1,0,1.6,0c0,0,0.1,0,0.1,0c0.6,0,0.8,0.3,0.8,0.8c0,0.3,0,0.5,0,0.8
				c0,0.1,0,0.2-0.1,0.3c-0.1,0.3-0.4,0.5-0.9,0.5c-0.4,0-0.6,0-1,0c0,0.6,0,0.8,0,1.4C93,115,92.9,115,92.7,115z M93.3,111.8
				c0,0.5,0,0.8,0,1.3c0.5,0,0.7,0,1.2,0c0,0,0.1,0,0.1-0.1c0-0.5,0-0.7,0-1.2c0,0,0-0.1-0.1-0.1C94,111.8,93.8,111.8,93.3,111.8z"
				/>
			<path class="st21" d="M97.6,115.1c-0.1-0.4-0.1-0.6-0.2-0.9c-0.6,0-0.9,0-1.5,0c-0.1,0.4-0.2,0.6-0.3,0.9c-0.2,0-0.3,0-0.6,0
				c0.4-1.3,0.5-1.9,0.9-3.2c0.1-0.2,0.1-0.4,0.2-0.4c0.1-0.1,0.3-0.2,0.6-0.2c0.3,0,0.4,0,0.6,0c0.3,1.5,0.5,2.3,0.8,3.8
				C98,115.1,97.9,115.1,97.6,115.1z M96.1,113.6c0.5,0,0.7,0,1.2,0c-0.1-0.7-0.2-1.1-0.4-1.8c-0.1,0-0.2,0-0.3,0c0,0-0.1,0-0.1,0.1
				C96.4,112.6,96.3,112.9,96.1,113.6z"/>
			<path class="st21" d="M98.8,115.1c0.1-1.5,0.1-2.3,0.2-3.8c0.7,0,1,0,1.6,0.1c0.6,0,0.9,0.3,0.9,0.9c0,0.3,0,0.4,0,0.7
				c0,0.4-0.2,0.6-0.6,0.7c0.1,0.1,0.2,0.2,0.2,0.4c0.1,0.5,0.2,0.7,0.3,1.2c-0.2,0-0.4,0-0.6,0c-0.2-0.6-0.2-0.9-0.4-1.4
				c0,0,0-0.1-0.1-0.1c-0.3,0-0.5,0-0.8,0c0,0.6,0,0.9-0.1,1.5C99.1,115.1,99,115.1,98.8,115.1z M99.5,111.9c0,0.5,0,0.8-0.1,1.3
				c0.5,0,0.7,0,1.2,0.1c0,0,0.1,0,0.1-0.1c0-0.4,0-0.7,0.1-1.1c0,0,0-0.1-0.1-0.1C100.3,111.9,100,111.9,99.5,111.9z"/>
			<path class="st21" d="M102.4,115.3c0.1-1.3,0.1-1.9,0.2-3.2c-0.4,0-0.6,0-0.9-0.1c0-0.2,0-0.3,0-0.5c1,0.1,1.5,0.1,2.5,0.2
				c0,0.2,0,0.3,0,0.5c-0.4,0-0.6-0.1-0.9-0.1c-0.1,1.3-0.2,1.9-0.3,3.2C102.8,115.4,102.6,115.4,102.4,115.3z"/>
			<path class="st21" d="M104.3,115.5c0.1-1.5,0.2-2.2,0.3-3.7c0.9,0.1,1.3,0.1,2.2,0.2c0,0.2,0,0.3-0.1,0.5
				c-0.6-0.1-0.9-0.1-1.6-0.2c0,0.4-0.1,0.6-0.1,1.1c0.6,0.1,0.9,0.1,1.5,0.2c0,0.2,0,0.3-0.1,0.5c-0.6-0.1-0.9-0.1-1.4-0.2
				c0,0.4-0.1,0.7-0.1,1.1c0.6,0.1,0.9,0.1,1.6,0.2c0,0.2,0,0.3-0.1,0.5C105.6,115.6,105.2,115.6,104.3,115.5z"/>
			<path class="st21" d="M107.9,113.2c-0.1,1.1-0.2,1.6-0.3,2.6c-0.2,0-0.3,0-0.5-0.1c0.2-1.5,0.3-2.2,0.4-3.7c0.2,0,0.3,0,0.4,0.1
				c0.6,1.1,0.9,1.7,1.4,2.9c0.1-1.1,0.2-1.6,0.4-2.6c0.2,0,0.3,0,0.5,0.1c-0.2,1.5-0.3,2.2-0.5,3.7c-0.2,0-0.3,0-0.4-0.1
				C108.8,114.9,108.5,114.4,107.9,113.2z"/>
			<path class="st21" d="M112.7,116.6c0-0.4,0-0.6-0.1-1c-0.6-0.1-0.9-0.1-1.5-0.2c-0.2,0.4-0.2,0.5-0.4,0.9c-0.2,0-0.3-0.1-0.6-0.1
				c0.5-1.2,0.8-1.8,1.3-3c0.1-0.2,0.2-0.3,0.3-0.4c0.1-0.1,0.3-0.1,0.6-0.1c0.3,0,0.4,0.1,0.6,0.1c0.1,1.5,0.2,2.3,0.3,3.9
				C113,116.7,112.9,116.6,112.7,116.6z M111.4,114.9c0.5,0.1,0.7,0.1,1.2,0.2c0-0.7-0.1-1.1-0.1-1.8c-0.1,0-0.2,0-0.3,0
				c0,0-0.1,0-0.1,0.1C111.8,113.9,111.7,114.3,111.4,114.9z"/>
			<path class="st21" d="M113.8,116.8c0.3-1.5,0.4-2.2,0.7-3.7c0.2,0,0.4,0.1,0.6,0.1c-0.3,1.5-0.4,2.2-0.7,3.7
				C114.2,116.9,114.1,116.8,113.8,116.8z"/>
			<path class="st21" d="M115.4,117.1c0.3-1.5,0.4-2.2,0.7-3.7c0.7,0.1,1,0.2,1.6,0.3c0.6,0.1,0.9,0.4,0.7,1
				c-0.1,0.3-0.1,0.4-0.1,0.7c-0.1,0.4-0.3,0.6-0.7,0.6c0.1,0.1,0.1,0.2,0.2,0.4c0.1,0.5,0.1,0.7,0.2,1.2c-0.2-0.1-0.4-0.1-0.6-0.1
				c-0.1-0.6-0.1-0.9-0.2-1.5c0,0,0-0.1-0.1-0.1c-0.3-0.1-0.5-0.1-0.8-0.2c-0.1,0.6-0.2,0.9-0.3,1.4
				C115.7,117.1,115.6,117.1,115.4,117.1z M116.6,114c-0.1,0.5-0.1,0.7-0.2,1.2c0.5,0.1,0.7,0.1,1.2,0.2c0,0,0.1,0,0.1-0.1
				c0.1-0.4,0.1-0.7,0.2-1.1c0,0,0-0.1-0.1-0.1C117.3,114.1,117.1,114.1,116.6,114z"/>
			<path class="st21" d="M118.6,117.7c0.3-1.5,0.5-2.2,0.8-3.7c0.9,0.2,1.3,0.3,2.2,0.5c0,0.2-0.1,0.3-0.1,0.5
				c-0.6-0.1-0.9-0.2-1.6-0.4c-0.1,0.4-0.1,0.6-0.2,1c0.6,0.1,0.9,0.2,1.4,0.3c0,0.2-0.1,0.3-0.1,0.5c-0.6-0.1-0.9-0.2-1.4-0.3
				c-0.1,0.4-0.1,0.7-0.2,1.1c0.6,0.1,0.9,0.2,1.5,0.4c0,0.2-0.1,0.3-0.1,0.5C119.8,118,119.4,117.9,118.6,117.7z"/>
		</g>
	</g>
	<path class="st1" d="M71.7,124c1.9-0.4,3.7-0.7,5.6-1.1c4.9,2.2,10,3.8,15.2,5c0.7,0.2,1.5,0.1,2.2,0c5.2-1.2,10.2-2.8,15-5
		c1.9,0.4,3.7,0.7,5.6,1.1c-4.9,3.1-10.4,4.6-15.7,6.5c-4.6,1.6-9.1,1.1-13.5-0.4C81.2,128.4,76.2,126.8,71.7,124z"/>
	<path class="st27" d="M128.4,127.7c-0.3-0.2-0.6-0.5-0.9-0.7c0.6-0.4,1.1,0,1.6,0.2C129,127.5,128.8,127.6,128.4,127.7z"/>
	<path class="st28" d="M64.4,126.4c-0.4-0.2-0.8-0.4-1.5-0.8c0.7,0,1.1-0.1,1.5-0.1C64.4,125.9,64.4,126.2,64.4,126.4z"/>
	<path class="st29" d="M122.7,125.6c0.4,0,0.8,0,1.5,0.1c-0.7,0.3-1,0.6-1.4,0.8C122.7,126.2,122.7,125.9,122.7,125.6z"/>
	<path class="st6" d="M76.5,49.6c1.6-5.4,2.6-10.9,4.8-16c2.2-5.1,6.6-8.6,11.5-11.3c0.8-0.5,1.6-0.1,2.3,0.3
		c5.5,3.6,10.4,7.5,12,14.4c0.9,3.9,2.3,7.7,3.5,11.6c0.3,0.8,0.6,1.6,0.2,2.7c-0.8-2-1.5-3.8-2.3-5.7c-1.4-1.7-1.6-3.8-2.1-5.8
		c-0.9-3.6-2.5-6.8-5.3-9.3c-1.4-2.3-3.7-3.7-5.8-5.3c-0.3-0.2-0.6-0.2-0.9,0c-0.4,1.1,0,2.2-0.5,3.2c-0.3,0.6-0.8,0.9-1.3,1.3
		c-4.6,3.3-7.5,7.6-8.6,13.2c-0.5,2.6-1.2,5.2-2,7.8c-0.5,1.5-0.3,2.8,1,3.8c0.9,0.7,1.2,1.8,2.2,2.3c1.2,1.1,2.2,2.4,2.9,3.8
		c1.1,2.6,2.8,4.9,4.6,7.1c0.9,1,1.5,0.9,2.2-0.1c1.6-2.2,3-4.5,4-6.9c0.6-1.4,1.4-2.7,2.7-3.6c0.9-0.3,1.4-1.2,2.1-1.8
		c0.5-0.5,1-1.1,1.8-0.9c0.1,1.1,0.2,2.1-0.6,3c-3,3.2-4.9,7.2-7.8,10.5c-3.4,4-2.5,4.1-6.5,0.4c-1.5-1.4-2.6-3.1-3.8-4.7
		c-1.2-1.8-2.5-3.5-3.8-5.2c-1.9-2.2-4.7-3.9-4.1-7.8c-1.1,0.8-0.6,1.6-1,2.2c-1.2-1.3,0-2.7-0.3-4c-0.6-0.1-0.5,0.5-0.8,0.7
		C76.8,49.7,76.7,49.7,76.5,49.6z"/>
	<path class="st6" d="M77.4,38.3c-1.2,3.8-2.1,7.2-3.3,10.6c-0.4,1.2,0.2,3-0.7,3.6c-0.9,0.5-2.4-0.4-3.7-0.4
		c-7-0.2-13.1,4.2-15.7,11.1c-0.2,0.6-0.4,1.1-0.6,1.8c-0.5-1.9-1-12.1-0.7-13.8c0.1-0.6,0.4-1,0.8-1.3C60.8,45,68.6,41,77.4,38.3z"
		/>
	<path class="st26" d="M134,65c-5.8-11.3-10.6-14.2-20.5-12.3c0.1-3.9-1.8-7.4-2.7-11.1c-0.1-0.5-0.3-1-0.5-1.5
		c-0.4-1.3,0-1.6,1.2-1.1c5.1,1.7,9.9,3.8,14.6,6.4c2.5,1.4,4.8,2.9,7.3,4.4c0.8,0.5,1.1,1,1.1,2C134.5,56.1,134.5,60.5,134,65z"/>
	<path class="st1" d="M105.7,54.4c-1.4,0.7-1.9,2.5-3.6,2.8c-0.4-0.9,0.1-1.7,0.4-2.5c1.9-5,1.1-9.6-2.1-13.9
		c-0.6-0.8-1.8-1.8-0.9-2.5c1-0.9,1.9,0.5,2.5,1.3c0.9,1,1.6,2.2,2,3.4c-0.2-0.1,0.2,0,0,0.2c-0.2,0.2,0.1,0.4,0,0.2
		c-0.1-0.5-0.3-1-0.4-1.5c-0.3-1.7-1-3.3-0.9-5.1c0.1-1.6-1.3-2.6-2.4-3.6c-0.7-0.6-1.5-1.1-2.1-1.9c-0.2-0.3-0.5-0.7-0.2-1.1
		c0.3-0.4,0.7-0.2,1.1-0.2c0.6,0.1,1.1,0.8,1.8,0.5c0.1-0.1,0.1-0.2,0.3-0.3c2.4,1.8,4.2,4,5,7c0.7,2.8,1.8,5.6,2.3,8.5
		c-1-0.1-0.5,0.6-0.4,0.9c0.4,1.3,0.8,2.5,1.2,3.8c0.2,0.4,0.3,0.8-0.4,0.8c-1.1,0.6-0.1,1.7-0.6,2.4c-0.3-0.2-0.7-0.5-1-0.7
		c-0.4,0.4-0.5,1.2-1.3,1.2C106,54.2,105.8,54.3,105.7,54.4z"/>
	<path class="st30" d="M59.2,62.1c1-0.2,1.9-0.5,2.9-0.7c0.8-0.2,1.4,0,1,1.1c-0.8,2.2-1.4,4.5-2.6,6.5c-0.3,0.5-0.7,0.9-1.2,1.2
		c-0.9,1.3-1.7,2.7-2.6,4c-0.4,0-0.6,0-0.4-0.5c0.5-2.5,1.8-4.6,2.8-6.9c0.3-0.7,1.6-1.6-0.1-2.2c0,0,0.2-0.6,0.2-0.9
		C58,62.6,58,62.5,59.2,62.1z"/>
	<path class="st31" d="M59.2,62.1c-1.3,0.6,0.8,1,0,1.6c-2,0.7-2.4,2.9-3.8,4.3c0.3-6.6,5.4-12.2,11.5-12.7c-2.3,2-5,3.7-7.1,6
		C59.5,61.5,59.2,61.7,59.2,62.1z"/>
	<path class="st32" d="M94.9,84.3c-0.2,0.1-0.4,0.3-0.5,0.4c-2.4-0.8-4.6-0.4-6.9,0.4c0.8-2.4,1-2.6,3.4-2
		C92.3,83.5,93.6,83.9,94.9,84.3z"/>
	<path class="st33" d="M81.1,85.5c1.8,0,3.4,0.4,5,1.2c-1.8,0.5-3.6,0-5.4-0.4C80.4,85.9,80.7,85.7,81.1,85.5z"/>
	<path class="st34" d="M128.7,62.6c-1.3-1.1-2.5-2.3-3.8-3.4c1.9,0.3,3.1,1.6,4.2,3C129,62.3,128.9,62.4,128.7,62.6z"/>
	<path class="st35" d="M130.3,73.9c-0.8-1.2-1.6-2.4-2.4-3.6c0.1-0.1,0.2-0.2,0.3-0.3c0.6,0.4,1.2,0.9,1.8,1.3
		c0.3,0.5,0.4,1,0.8,1.3C131.4,73.4,130.8,73.6,130.3,73.9z"/>
	<path class="st36" d="M86.2,85.4c-1.6-0.4-3.1-0.8-4.5-1.1C83.3,84.1,85,83.4,86.2,85.4z"/>
	<path class="st37" d="M106.1,54.1c0.3-0.6,0.7-1,1.3-1.2c0,0.3,0,0.7,0,1c0,0.4,0.2,1.1-0.4,1.2C106.4,55.1,106.4,54.4,106.1,54.1z
		"/>
	<path class="st38" d="M82.1,82.7c1-0.5,1.5-0.4,2.1,0.1C83.5,83.3,83,83.1,82.1,82.7z"/>
	<path class="st39" d="M109,51.2c0.1-0.3,0.3-0.5,0.4-0.8c0.6,0.6,0.4,1.5,0.9,2.5C109.2,52.4,109.3,51.6,109,51.2z"/>
	<path class="st40" d="M76.5,49.6c0.1,0,0.3,0,0.4,0c0,0.7-0.2,1.4-0.6,2.2C76,50.9,76.1,50.2,76.5,49.6z"/>
	<path class="st41" d="M87,82.9c-0.7,0.8-1.2,0.7-1.8,0.3C85.6,82.4,86.2,82.9,87,82.9z"/>
	<path class="st42" d="M56.3,73.7c0.1,0.2,0.3,0.3,0.4,0.5c-0.2,0.5-0.2,1.2-1,1.4C55.7,74.9,55.9,74.3,56.3,73.7z"/>
	<path class="st43" d="M59.3,70.2c0.3-0.5,0.5-1.1,1.2-1.2c0,0.7-0.3,1.2-0.8,1.6C59.5,70.5,59.4,70.4,59.3,70.2z"/>
	<path class="st44" d="M81.1,85.5c-0.1,0.3-0.3,0.6-0.4,0.9c-0.4-0.1-0.5-0.4-0.3-0.7C80.5,85.3,80.8,85.3,81.1,85.5z"/>
	<path class="st16" d="M109.8,122.9c0.4,1-0.5,0.9-1,1.1c-4.2,1.9-8.7,3.2-13.2,4.4c-1.5,0.4-2.9,0.3-4.4-0.1
		c-4.3-1.1-8.5-2.4-12.6-4.2c-0.5-0.2-1.6-0.1-1.4-1.3c2-0.1,4-0.7,6.1-0.5c1.7,0.1,3.3,0.3,5,0.7c4.2,0.9,8.3,0.6,12.4-0.4
		c1-0.2,2-0.4,3-0.3C105.8,122.2,107.8,122.8,109.8,122.9z"/>
	<path class="st16" d="M101.3,30.5c0.2,0.4,0.5,0.9,0.9,1.6c-1.4-0.7-2.4-1.6-4-1.9c1.6,2.1,4,2.9,4.9,5.1c0.8,2.1,0.4,4.4,1.2,6.5
		c0.1,0.6,0.6,1.3-0.4,1.6c-1.2-1.8-2-4-4.2-5.1c4.9,5.8,6,12,2.6,18.8c-0.8,1.2-1.6,2.4-2.4,3.6c-0.5,1-1.4,1.8-2.3,2.5
		c-2.9,2.4-5.9,2.1-8.3-0.8c-0.4-0.5-0.9-1-1.2-1.6c-0.9-1.2-1.8-2.5-2.8-3.7c-2.1-2.1-2.8-4.9-2.6-7.6c0.4-5.6,2.7-10.6,7.5-13.9
		c1.9-1.3,3.3-2.7,2.9-5.2c-0.1-0.7,0.2-1.3,0.6-1.9c0.3-1.3-0.3-2.7,0.4-4C96.9,26,99.3,27.9,101.3,30.5z"/>
	<path class="st1" d="M93.5,28.6c0,0.3,0,0.5,0.1,0.8c0.5,3.1-0.5,5.1-3.3,7.1c-5.3,3.7-9.9,11.2-5.1,20.7c-2.2-0.7-4.3-4-3.7-6.1
		c1-3.9,1.8-7.9,3-11.7C85.9,34.6,89.3,31.2,93.5,28.6z"/>
	<path class="st1" d="M87.9,60.9c5.6,4.7,5.6,4.7,11.4,0.1c0.1-0.1,0.2-0.1,0.3-0.2c-1.2,3-2.8,5.8-5,8.2c-0.4,0.4-0.8,1-1.3,0.3
		C91.3,66.7,88.9,64.3,87.9,60.9z"/>
	<path class="st45" d="M101.3,30.5c-2.5-2-4.9-4-7.4-6c0.2-0.1,0.5-0.4,0.6-0.3c2.6,1.6,5.2,3.1,6.7,5.9
		C101.3,30.3,101.3,30.4,101.3,30.5z"/>
	<path class="st46" d="M89.8,25.5c-2.1,2-4,3.9-5.7,5.6C85.1,28.7,87.2,27,89.8,25.5z"/>
	<path class="st47" d="M103.7,43.5c0.5-0.4,0.3-1.1,0.4-1.6c0.6,0.8,0.3,1.6,0.4,2.5C103.9,44.2,103.9,43.8,103.7,43.5z"/>
	<path class="st19" d="M91.7,49.1c1.5,1.8,2.2,1.8,3.7,0.1c0.4,2.5-0.8,3.4-4.1,2.3c3.8,2.9,1.5,6.4,2.4,9.6
		c-3.3-1.1-6.1-3.8-7.5-7.1c1.8-0.4,2-0.8,0.9-2.5c-0.5-0.7-0.9-1.1-0.1-1.9c0.8-0.8,1.2-0.4,1.8,0.2C90,51,91,50.4,91.7,49.1z"/>
	<path class="st4" d="M91.3,43.8c-0.2-0.1-0.4-0.1-0.5-0.2c-2.5-1.7-2.6-2.2-0.3-4.3c3.2-3.1,3.2-3.1,6.4,0.1
		c2.3,2.3,2.2,2.9-1.1,4.4c-0.1-0.6-0.2-1.2-0.2-1.8c-1.2,0.3-0.5,2.3-1.9,2.3c-1.4,0-0.7-1.9-1.8-2.3
		C91.2,42.5,91.9,43.3,91.3,43.8z"/>
	<path class="st48" d="M90,46.7c-1.6,0.2-2.7,0-3.2-1.4c-0.1-0.4,0-0.7,0.4-0.7C88.7,44.4,89.4,45.3,90,46.7z"/>
	<path class="st49" d="M98,46.6c0.4-1.4,1.2-2.1,2.5-2.1c0.5,0,0.6,0.4,0.5,0.9C100.7,46.4,99.9,46.7,98,46.6z"/>
	<g>
	</g>
	<g>
	</g>
	<g>
	</g>
	<g>
	</g>
	<g>
	</g>
	<g>
	</g>
	<g>
	</g>
	<g>
	</g>
	<g>
	</g>
	<g>
	</g>
	<g>
	</g>
	<g>
	</g>
	<g>
	</g>
	<g>
	</g>
	<g>
	</g>
</g>
</svg>
