<?xml version="1.0" encoding="utf-8"?>
<!-- Generator: Adobe Illustrator 25.0.0, SVG Export Plug-In . SVG Version: 6.00 Build 0)  -->
<svg version="1.1" id="Calque_1" xmlns="http://www.w3.org/2000/svg" xmlns:xlink="http://www.w3.org/1999/xlink" x="0px" y="0px"
	 viewBox="0 0 300 300" style="enable-background:new 0 0 300 300;" xml:space="preserve">
<style type="text/css">
	.st0{fill:#3A3B88;}
	.st1{fill:#21224E;}
	.st2{fill:#2B2C64;}
	.st3{fill:#9D4292;}
	.st4{fill:#393A87;}
	.st5{fill:#2E306C;}
	.st6{fill:#161520;}
	.st7{fill:#393A86;}
	.st8{fill:#2C2E66;}
	.st9{fill:#343578;}
	.st10{fill:#383984;}
	.st11{fill:#9A4290;}
	.st12{fill:#3A3881;}
	.st13{fill:#333477;}
	.st14{fill:#35367C;}
	.st15{fill:#100F0D;}
	.st16{fill:#97418E;}
	.st17{fill:#121113;}
	.st18{fill:#2E306B;}
	.st19{fill:#2A2A5D;}
	.st20{fill:#FFFFFF;}
	.st21{fill:#3A3A87;}
	.st22{fill:#25254C;}
	.st23{fill:#1A1A2B;}
	.st24{fill:#111010;}
	.st25{fill:#9E4392;}
	.st26{fill:#6E3677;}
	.st27{fill:#6F3678;}
	.st28{fill:#703679;}
	.st29{fill:#9B4291;}
	.st30{fill:#9C4291;}
	.st31{fill:#93408D;}
	.st32{fill:#2D2E66;}
	.st33{fill:#141319;}
	.st34{fill:#14141A;}
	.st35{fill:#743B84;}
	.st36{fill:#2B2D63;}
	.st37{fill:#6E3573;}
	.st38{fill:#272855;}
	.st39{fill:#2A2C60;}
	.st40{fill:#683677;}
	.st41{fill:#873C83;}
	.st42{fill:#1B161F;}
	.st43{fill:#903F8B;}
	.st44{fill:#383983;}
	.st45{fill:#984290;}
	.st46{fill:#191829;}
	.st47{fill:#F3F3F3;}
	.st48{fill:#F4F4F4;}
</style>
<g>
	<path class="st0" d="M127.9,51.3c-0.8,5.1-7.4,8.2-12,9.7c-16.8,5.3-32.4,13.4-47,23.2c-3,2-4.6,4.6-4.5,8.1
		c0.6,19.7,1.2,39.4,3.8,58.9c0.6,5,1.3,10,1.9,14.9c-4.9,1.8-5.9,1.2-6.7-3.6c-2.3-14.7-3.3-29.6-4.1-44.5
		c-0.5-8.7-0.3-17.4-0.8-26.1c-0.3-5.6,2.2-9.5,6.4-12.4c17.6-12.1,36.5-21.5,57.3-26.9C122.9,52.5,127,50.6,127.9,51.3z"/>
	<path class="st0" d="M236.7,167.1c3.7-24.5,5.2-49.1,5.7-73.8c0.1-4.3-1.5-7.1-5-9.4c-15.1-10-30.9-18.2-48.2-23.4
		c-3.8-1.2-9.4-4.1-9.8-8.1c1.3-1.4,5.8,0.5,7.3,0.9c15.6,4.2,30.2,10.8,44,19.1c4.4,2.6,8.9,5.3,12.9,8.5c3,2.4,4.5,5.3,4.6,9.1
		c0.3,16.7-0.6,33.4-2.3,50c-0.7,7.1-1.4,14.3-2.5,21.4C242.5,167,242.6,167,236.7,167.1z"/>
	<path class="st1" d="M78.8,228.1c0,0-10.1-1.1-11,2.9c-1,3.9,2.6,9.3,4.9,10.1c2.3,0.8,1.9,15.2,1.9,15.2L96,250
		c0,0-9.1-2.9-11-7.2S78.8,228.1,78.8,228.1z"/>
	<path class="st1" d="M226.1,227.5c0,0,10.1-2.2,11.5,1.7c1.4,3.9-1.6,9.7-3.8,10.8s-0.2,15.7-0.2,15.7l-22.4-4
		c0,0,8.9-3.9,10.4-8.6S226.1,227.5,226.1,227.5z"/>
	<path class="st2" d="M117.4,119.7c-1.3-1.1-1.8-2.9-3.7-3.7c-0.1,1.5,0.9,2.4,1.5,3.5c-2.3,2.5-5.6,2.6-8,3.6
		c3.5,1.1,7.9,2,10.3,6.3c0.1,1.4,1.2,2.6,0.8,4.2c-2.7,2.2-6.1,0.6-9,1.5c-2.1,0.6-5.3-0.1-6.1,2.3c-0.8,2.4,2.3,3.3,3.8,4.7
		c2.3,2.3,4.5,4.6,6.7,7.1c1.3,1.5,1.6,3.1-0.2,4.1c-6.3,3.8-11.6,8.9-17.1,13.6c-4.7,0-9.3,0-14,0c-0.7-3.5,1.9-5.4,3.7-7.6
		c1.1-1.3,2.7-2.3,4.1-3.3c1.3-1,4-1,3.8-3.1c-0.2-2-2.6-2.5-4.3-3.2c-1.6-0.7-3.4-1-5-1.5c-3.8-1.2-4.5-2.3-3.5-6.3
		c0.7-2.6,1.8-5.1,2.9-7.6c0.5-1,1.6-1.9,0.9-3.2c0.4-1.3,0.2-2.7,0.9-3.8c1.5-3.2,2.5-6.6,3.8-9.8c1.1-2.6,0.8-4-2.5-2.9
		c-1,0.3-2.1,0.4-3.1-0.3c-1-1.6,0.1-2.5,1-3.5c4.3-4.3,8.7-8.4,14.5-10.7c3.3-2.1,6.8-0.6,9.8,0.3c10.6,3,18.3,9.9,23.8,19.3
		c-0.6,0.9-1.5,1.1-2.4,1.2c-1.2,0.2-2.3,0-3.4-0.2C124,119.6,120.6,120.3,117.4,119.7z"/>
	<path class="st3" d="M83.8,134.4c0.3,2.9-1,5.6-1.9,8.2c-1.1,3.3,0.2,4.1,2.9,4.6c3.9,0.7,7.6,1.8,10.5,4.8
		c1.4,1.4,2.2,2.4-0.5,3.3c-6,2-10,6.2-12.6,11.8c-1.4-0.3-2.9,0.4-4.1-0.8c0.5-6.9,5.6-10.1,10.7-13.3c-3.4-1.6-3.4-1.6-13.8,0.8
		C77.3,146.7,79.5,140.1,83.8,134.4z"/>
	<path class="st4" d="M96.2,167c3.3-6.5,9.4-10,15.2-13.6c2.9-1.8,2.5-2.8,0.4-4.6c-2.9-2.6-5.4-5.7-8.7-8c-1.1-0.8-2.9-1.8-2.5-3.4
		c0.3-1.8,2.4-2,3.9-2.5c4.5-1.2,9-1.8,13.6-1.4c0.4,2.2-0.8,2.4-2.6,2.4c-3.5-0.1-7-0.3-10.6,1.3c4.4,4.4,8,9.3,11.4,14.3
		c1,1.4,1.1,2.1-0.9,2.8c-6.5,2.3-10.7,7.3-14.4,12.8C99.4,167.1,97.8,167.1,96.2,167z"/>
	<path class="st5" d="M224.4,114.9c2.6,4.4,6.1,8.3,6.7,14.9c-3.4-3.8-5.2-7.9-9.6-10.3c1.5,5,4.7,8.6,5.4,13.2
		c0.1,0.8-1.7-0.5-0.9,0.8c0.8,1.4,1.6,2.7,1.7,4.3c1.2,4,2.8,7.9,3.3,12c0.3,2.5,0.3,4.1-3.3,3.1c-2.9-0.8-6.1-2.2-9.6-0.1
		c5.3,3.6,10.2,7.2,12.2,13.3c-0.8,1.2-1.7,0.4-2.5,0.1c-1.6-0.9-1.6-0.9-1.7,0.8c-6.6,0-13.2-0.1-19.8-0.1
		c-1.2-1.1-2.7-1.8-4.2-2.3c-5.4-1.9-5.9-2.7-5.9-8.5c0-0.9,0.1-1.9-0.2-2.8c-0.2-0.6-0.2-1.2-0.3-1.8c1.1-1.9,3.4-2.8,4.2-4.9
		c-1.1-0.5-1.3-1.2-0.5-2.2c0.8-0.9,1.7-1.7,2.1-2.9c0.5-0.5,1-1.1,1.5-1.6c1.4-0.2,2.1-1.1,2.5-2.3c0-0.2,0.1-0.4,0.1-0.5
		c-3.2-1.7-6.8-1.5-10.2-2c-1.6-0.2-3.3,0-4.5-1.4c2.3-4.4,5.2-8.1,11.1-9.1c-1.3-0.7-2.1-1.2-2.9-1.6c-1.9-2.3-5.1-1.7-7.4-3.2
		c0.4-1.5,2-2.5,2.1-4.6c-2.3,1-2.9,3.3-4.5,4.5c-4.4,1-8.9,1.3-13.4,1.7c-1.1,0.1-2.1,0-2.9-0.9c6.4-9.9,14.2-18,26.3-20.8
		c9.4-2.1,24.6,3.8,28.3,15.7c-0.9-0.6-1.5-1-2.1-1.4c-2.6-0.8-3.7-3.5-5.7-4.5C221.3,110.9,223.5,112.3,224.4,114.9z"/>
	<path class="st6" d="M226.1,167.1c-0.8-1.6-1.6-3.2-2.7-5.6c2.6,1.4,3.2,3.4,4.4,4.8C227.4,166.9,226.8,167,226.1,167.1z"/>
	<path class="st7" d="M117.3,129.4c-3.4-2.7-7.4-4.1-11.8-5.8c2.8-2.8,6.2-3.3,9.5-4c1.3,1.8,1.3,1.8,0.2,3.9
		c-0.4,0.8,0.2,1.3,0.5,1.9C116.3,126.7,117.3,127.9,117.3,129.4z"/>
	<path class="st0" d="M127.2,119.7c1.1,0,2.2,0,3.3,0c1,0.7,2.7,0.2,3.3,1.6c3,1.5,3.6,4.8,5.5,7.2c1.2,1.6,2.3,3.3,3.5,4.9
		c6.3,2.4,6.6,7.5,6.1,13.2c-0.2,2,0,4-0.1,6.1c0,1.3-0.6,2.1-2,1.3c-6.1,1.8-12.1-1.8-18.4-0.4c0.4-1.7,2.4-3.8-1.5-4.1
		c-1.2-0.1-1.2-2.2-1.2-3.6c0-3.2-0.6-6.3-2.1-9c-2.8-5.2-2.7-11.2-5.4-16.4c0-1.8,1.4-1.3,2.3-1.3
		C122.7,119.4,125,118.9,127.2,119.7z"/>
	<path class="st7" d="M127.2,119.7c-3,0.4-6.2-0.9-9.1,0.9c-0.3-0.3-0.5-0.6-0.8-0.9C120.6,118.3,123.9,118.4,127.2,119.7z"/>
	<path class="st7" d="M133.8,121.3c-1.1-0.5-2.2-1.1-3.3-1.6c0.8,0,1.7,0,2.5,0C133.3,120.2,133.5,120.7,133.8,121.3z"/>
	<path class="st8" d="M146.8,154c1.4-0.2,1.6-1.2,1.6-2.4c0-3.9,0-7.9,0-11.8c0-1.6-0.7-2.5-2.1-3.2c-1.5-0.7-3-1.4-3.5-3.2
		c5,1.6,7.3,4.8,6.5,10.3c-0.4,2.9,0,5.9-0.1,8.9C149.2,154.2,148.7,155.4,146.8,154z"/>
	<path class="st0" d="M172.9,120.4c4-0.5,8-1.1,12.1-1.5c1.4-0.1,3-0.5,4.3,0.7c-3.7,5.5-3.3,11.6-2.9,17.7c0.2,2.4,0.1,4.9,0.4,7.3
		c0.8,6.1-1.2,10.6-6,14.5c-2.5,2.1-4.5,2.9-7.5,1.9c-3.5-1.1-7.1-2-10.7-2.7c-2.4-0.5-3-1.7-3-3.9c0.1-5,0-10.1,0-15.1
		c0-1.5-0.1-3.1,1.4-4c3.4-2,5.4-5.3,7.6-8.4C170.4,124.9,171.6,122.7,172.9,120.4L172.9,120.4z"/>
	<path class="st5" d="M172.9,120.4c-0.5,2.7-1.9,4.9-4.2,6.5C169.5,124.4,171,122.3,172.9,120.4z"/>
	<path class="st9" d="M191.7,119.6c2.8,0.4,5.8,0.1,7.4,3.2C196.8,121.4,193.5,122.3,191.7,119.6z"/>
	<path class="st10" d="M190.9,133.5c5.2,0.1,10.5-0.5,14.7,3.5c-5.5-0.5-11-0.4-16.6,0.8C189.2,135.9,190,134.7,190.9,133.5z"/>
	<path class="st11" d="M196.6,152.2c1.4,1.6,0.9,3.6,0.8,5.4c-0.1,3.3,0.9,5.4,4.6,5.6c2.2,0.1,4.3,0.9,4.3,3.8
		c-2.9,0.6-5.4-0.8-8-1.4c-1.5,0.4-2.8-0.1-4.1-0.8c-0.8-0.1-1.5-0.3-2.3-0.4C190.9,160.4,193.3,154.4,196.6,152.2z"/>
	<path class="st12" d="M196.6,152.2c-2.6,3.7-3.5,8-4.8,12.2c-1,0.1-2.5-0.2-2-1.2c1.9-4,0.5-9.6,5.9-11.8
		C196,151.7,196.3,151.9,196.6,152.2z"/>
	<path class="st13" d="M202.5,141.5c0.7,2.1-2.9,2.8-1.6,5.1c-0.9-0.2-1.9,1.2-2.6,0.1c-0.6-0.8,0.4-1.4,1-2
		C200.3,143.5,201.4,142.5,202.5,141.5z"/>
	<path class="st14" d="M206.5,137.5c0.1,1.9-0.6,2.6-2.5,2.3C204.8,139.1,205.7,138.3,206.5,137.5z"/>
	<path class="st15" d="M78.1,166.3c-2.7,1.2-5.4,1.2-8,0c-1.8-1.3-1.9-3.2-2.1-5.1c-2.3-17-4-34-4.2-51.2
		c-0.1-5.2-0.9-10.3-0.9-15.5c0-5.6,2.1-9.5,6.8-12.5c14.1-9,28.7-16.8,44.6-21.8c4.6-1.4,7.6-4.2,10.6-7.5
		c6-9.1,13.5-16.6,22.9-22.1c3.7-2.2,7.4-2.3,11.2-0.1c9.9,5.7,17.6,13.5,23.6,23.1c3.1,5,8.5,5.8,13.4,7.6
		c14.9,5.4,28.9,12.7,42.1,21.5c4,2.6,5.9,6.1,5.8,10.9c-0.5,23-1.9,46-5.1,68.8c-0.3,1.8-0.7,3.5-2.1,4.8c-2.1-0.2-4.4,0.5-6.4-0.9
		c-3.9-3.9-7.2-8.4-11.6-11.8c-2.2-1.7-0.2-3.1,1.7-3.6c2-0.5,4.1,0.1,6,0.5c2.6,0.6,3.4-0.1,3-2.8c-0.5-3.5-2.5-6.6-2.5-10.2
		c1.4-2.1-0.5-3.6-1-5.4c-0.9-3.4-2.8-6.5-4.2-9.7c-0.5-1.2-1.6-2.6-0.1-3.6c1.4-0.9,2.5,0.4,3.5,1.2c1.5,1.3,2.8,2.8,3.8,4.3
		c-0.8-3.7-4.6-6.2-5-10.3c0.1-0.5,0.4-1,0.9-1.3c0.7-2-1-2.9-1.9-3.9c-10.6-11.6-25.6-12.2-37.8-1.4c-4.1,3.6-7.9,7.5-11,12
		c-0.2,0.3-0.4,0.7-0.6,1c-1.7,2.1-3.1,4.4-4.1,6.9c-1.1,2-2.2,4.2-4.1,5.5c-3.4,2.4-4.3,5.6-4,9.6c0.2,3.2,0.1,6.5,0,9.8
		c-0.1,2.6,1.1,4,3.6,4.6c1.6,0.3,3.2,0.8,4.7,1.2c9.7,2.4,15.8-2.5,16-12.6c0.1-4.8-0.9-9.5-0.9-14.2c0-4.5,1-8.6,3.5-12.3
		c0.9-1.3,1.8-2.7,2.9-3.8c0.8-0.8,1.8-1.9,3-1c1,0.8,0.5,1.9,0.1,2.9c-0.2,0.5-0.5,1-0.6,1.4c1.6,2.1,4.3,1.6,6.3,2.8
		c1.1,0.5,2.5,0.8,2.6,2.3c0,1.2-1.3,1.7-2.3,2c-4,1.4-6.2,4.7-8.3,8c-0.9,1.6-0.1,1.8,1.3,1.7c4-0.3,8.1-0.7,12.1,0.3
		c0.3,0.2,0.6,0.5,0.7,0.9c0.1,1.6-1.1,2.4-2,3.4c-0.7,0.6-1.3,1.3-2,2c-0.6,1.4-3.9,1.7-1.9,4.3c-0.1,2.6-2.3,3.8-3.8,5.4
		c-4.2,2.1-3.7,6.5-5,10c-0.3,0.7,0.5,1.1,1.2,1.3c0.8,0.3,1.5,0.6,1.7,1.5c-0.8,1.6-2.2,1.1-3.5,1.2c-7.1,0.3-14-1.1-20.8-3
		c-4.6-1.2-9.2-2.2-13.7-3.3c-2.7-0.7-5.3-1.6-8-2.4c-3.2-0.9-5.6-0.2-6.2,3.5c-0.6,1.7-0.3,3.8-2,5.1c-0.8,0.6-1.6,0.5-2.4,0.1
		c-4.1,1-8.1-0.8-12.2,0c-2.5,1.5-5.3,0.7-7.9,0.7c-5.5,0.2-11.1,0.1-16.6,0.1c-0.7-2.1,0.7-3.4,1.8-4.6c2.9-3.3,5.8-6.6,9.9-8.3
		c2.5-1,2.5-2.3,1-4.3c-2.6-3.3-5.1-6.7-7.9-9.8c-2.5-2.8-2.1-3.8,1.6-4.8c2.5-0.7,5.1-0.4,7.7-0.5c0.9,0,1.6-0.3,1.8-1.3
		c0-1.3-0.4-2.5-0.7-3.7c-1.9-3-1-6.6-2.2-9.8c-0.3-0.4-0.6-0.9-0.8-1.4c-0.4-1-0.9-2.2,0.1-2.9c1.1-0.7,2,0.2,2.8,0.9
		c0.8,0.7,1.4,1.6,2,2.5c0.4,0.5,0.7,1,1,1.5c2.8,8,6.1,15.8,7.6,24.2c0.7,3.9,3.6,6.7,7.5,7.4c4,0.7,8,1.2,12.1,0.6
		c0.5-0.1,1.2-0.3,1.3-0.8c0.6-4.5,0.9-9.1-0.1-13.6c-0.5-2.2-3.3-2.5-4.9-3.9c-4.1-3.5-5.7-8.8-9.3-12.7c-0.5-0.6-0.9-1.3-1.3-2
		c-5-7.1-10.7-13.4-18.9-16.8c-4.3-1.8-8.8-2.9-13.5-1.9c-12.1,2-18.8,9.7-21.9,20.6c1.7-1.5,2.1-5.5,6.3-4.6c2.3,2.6,1.9,5.1,0.3,8
		c-2.1,3.9-3.9,7.9-5.5,12.1c-0.1,0.3-0.2,0.6-0.5,0.8c0.1,0.1,0.2,0,0.3-0.4c1.2-2.9,2-6,5.1-7.6c0.7-0.1,1.2,0.2,1.6,0.7
		c1.1,1.7,0.2,3.1-0.9,4.4c-3.6,4.9-5.2,10.6-7.7,16.5c2.9,0,5-0.6,7.1-0.9c1.5-0.2,3-0.2,4.4,0.5c1.6,0.8,1.9,1.9,0.4,3.1
		c-1.3,1.2-2.8,2.2-4.3,3.1C81,159.5,80.7,163.7,78.1,166.3z"/>
	<path class="st16" d="M174.7,167c-6.6-2.3-12.8-5.8-19.7-7.4c-0.1-0.8,0.2-1.2,1.1-0.8c9.5,2.1,19.1,4.2,28.6,6.1
		c2,0.4,4,0.4,6,0.6c1.8,1.3,4.1-1,5.8,0.8c-5,1.5-10.1,0.3-15.1,0.6C179.3,167.1,177,167,174.7,167z"/>
	<path class="st17" d="M194.2,164.8c1.5-0.3,2.7,0.5,4.1,0.8c-0.5,0.3-1.1,0.5-1.6,0.8c-1.9-0.3-4,0.2-5.8-0.8
		C191.9,165.3,193.2,165.7,194.2,164.8z"/>
	<path class="st18" d="M140.2,166.2c0.1-2-0.2-4,0.9-5.7c4.2-4.6,9.2-2.5,14-1.4c5.7,1.4,11.4,3,16.8,5.5c1.1,0.5,2.7,0.7,2.8,2.4
		c-10.3,0-20.7,0.1-31,0.1C142.5,167.1,141.2,167.3,140.2,166.2z"/>
	<path class="st19" d="M125.6,166.3c0.1-1.3,0.8-1.3,1.9-1.2c3.4,0.5,6.8,0.8,10.3,1.2C133.7,167.7,129.7,167.4,125.6,166.3z"/>
	<polygon class="st1" points="258.4,214.4 49.4,214.4 14.4,165.6 290.4,165.6 	"/>
	<g>
		<path class="st20" d="M44.1,193.9c0,0,0-0.1,0-0.2c0-0.1,0-0.2,0-0.2c0-0.1,0-0.4,0-0.9c0-0.2,0-0.8,0-1.9v-0.1h0.1
			c0.3,0,0.4,0,0.5,0h1.7c0.2,0,0.5,0,0.9,0h0.9h1c0.4,0,0.7,0,0.9,0c0.2,0,0.4,0,0.5,0c0.1,0,0.3,0,0.5,0c0.1,0,0.3,0,0.5,0
			c0.2,0,0.4,0,0.5,0h0.8c0,0,0,0,0,0c0,0,0,0,0,0c0.1,0,0.2,0,0.3,0c0,0,0.1,0,0.2,0c0.4,0,0.6,0,0.8,0c0,0,0.1,0,0.1,0
			c0.1,0,0.1,0,0.2,0c0.1,0,0.3,0,0.4-0.1c0.1,0,0.2,0,0.3,0c0.3,0,0.5-0.1,0.6-0.1c0.2-0.1,0.3-0.2,0.4-0.4c0-0.1,0-0.1,0-0.1v-0.2
			c0-0.1-0.2-0.2-0.4-0.3c-0.1,0-0.3-0.1-0.4-0.1c-0.1,0-0.2,0-0.4,0c-0.2,0-0.3,0-0.4,0h-0.3c-0.1,0-0.2,0-0.3,0
			c-0.1,0-0.6,0-1.3,0h-2.4c-0.4,0-0.7,0-1,0h-0.6c-0.3,0-0.5,0-0.6,0c-0.2,0-0.4,0-0.5,0c0,0,0,0-0.1,0c0,0,0,0-0.1,0
			c-0.1,0-0.2,0-0.3,0l-0.4-0.1c-0.1,0-0.2,0-0.3-0.1c-0.1,0-0.3-0.1-0.6-0.2c-0.2-0.1-0.5-0.2-0.7-0.4c0,0,0,0-0.1-0.1
			c-0.1-0.1-0.3-0.2-0.6-0.4c0,0-0.1-0.1-0.1-0.1c0,0-0.1-0.1-0.1-0.1c0,0-0.1-0.1-0.1-0.1c-0.1-0.1-0.2-0.3-0.3-0.5
			c-0.1-0.4-0.2-0.7-0.3-1c0,0,0-0.1,0-0.2c0-0.1,0-0.1,0-0.2c0-0.1,0-0.2,0-0.3c0,0,0-0.1,0-0.2c0-0.1,0-0.2,0-0.2v-0.1
			c0-0.4,0.1-0.8,0.3-1.2c0.1-0.3,0.2-0.5,0.3-0.7c0-0.1,0.1-0.1,0.2-0.2c0.1-0.1,0.1-0.1,0.1-0.2c0.1-0.2,0.3-0.3,0.5-0.5
			c0.1,0,0.2-0.1,0.3-0.2c0,0,0.1-0.1,0.3-0.2c0.3-0.1,0.6-0.3,0.9-0.3c0.1,0,0.3-0.1,0.5-0.1l0.4-0.1c0.2,0,0.3,0,0.4,0
			c0.3,0,0.5,0,0.5,0h0.1c0.4,0,1,0,1.9,0c0.1,0,0.2,0,0.4,0h0.4c0.1,0,0.5,0,1.2,0c0,0,0.1,0,0.2,0c0.1,0,0.1,0,0.2,0h0.6
			c0.2,0,0.3,0,0.6,0h0.1c0.1,0,0.1,0,0.1,0c0.1,0,0.3,0,0.8,0c0.1,0,0.1,0,0.3,0c0.1,0,0.2,0,0.2,0c0.2,0,0.6,0,1.4,0
			c0,0,0.1,0,0.2,0c0.1,0,0.2,0,0.2,0h0.1h0.1c0.5,0,0.8,0,1.1,0c0.2,0,0.5,0,0.9,0h0.9c0.1,0,0.2,0,0.3,0c0.1,0,0.2,0,0.3,0h0.1
			c0,0.1,0,0.4,0,0.8c0,0.5,0,0.7,0,0.8c0,0.4,0,0.9,0,1.6c0,0,0,0-0.1,0h-0.4c-0.1,0-0.2,0-0.4,0c-0.2,0-0.3,0-0.4,0
			c-0.1,0-0.4,0-1,0h-1.8c-0.1,0-0.2,0-0.3,0c-0.1,0-0.2,0-0.3,0c-0.3,0-0.4,0-0.6,0h-0.1h-1.4c-0.1,0-0.2,0-0.4,0
			c-0.2,0-0.3,0-0.4,0H53c-0.2,0-0.4,0-0.5,0c-0.1,0-0.1,0-0.3,0c-0.1,0-0.2,0-0.3,0c-0.2,0-0.4,0-0.5,0c0,0-0.1,0-0.1,0
			c0,0-0.1,0-0.1,0c-0.1,0-0.1,0-0.1,0c0,0-0.1,0-0.2,0c-0.1,0-0.2,0-0.3,0h-0.4c-0.1,0-0.3,0-0.4,0.1c-0.1,0.1-0.2,0.2-0.2,0.3
			c0,0.1,0,0.2,0,0.3c0,0.1,0.1,0.2,0.3,0.3c0,0,0.1,0,0.2,0h1.1c0.1,0,0.2,0,0.4,0c0.2,0,0.3,0,0.5,0c0.4,0,0.8,0,1.3,0h0.2h0.3
			h0.2c0.5,0,1,0,1.2,0c0.1,0,0.1,0,0.3,0c0.1,0,0.2,0,0.3,0c0,0,0.1,0,0.2,0c0.1,0,0.2,0,0.2,0h0.1c0.2,0,0.3,0,0.5,0.1h0.1h1.2
			c0.1,0,0.3,0,0.5,0c0.1,0,0.3,0,0.5,0.1c0.3,0.1,0.6,0.2,0.9,0.3c0.1,0,0.3,0.1,0.5,0.2c0.1,0,0.2,0.1,0.3,0.2
			c0.1,0.1,0.2,0.1,0.3,0.2c0,0,0.1,0.1,0.1,0.1c0.3,0.3,0.4,0.5,0.5,0.5c0.2,0.2,0.3,0.5,0.4,0.7c0,0,0,0.1,0.1,0.2
			c0,0.1,0,0.2,0.1,0.2c0,0.2,0.1,0.3,0.1,0.5c0,0.1,0,0.5,0,1.1c0,0.1,0,0.2,0,0.2c0,0.1,0,0.2-0.1,0.5c0,0.2-0.1,0.4-0.1,0.5
			c-0.1,0.3-0.3,0.6-0.5,0.8c-0.1,0.2-0.3,0.3-0.5,0.5c-0.1,0.1-0.2,0.2-0.2,0.2c-0.2,0.2-0.4,0.3-0.7,0.5c-0.1,0-0.2,0.1-0.4,0.1
			c-0.2,0.1-0.3,0.1-0.4,0.1c-0.1,0-0.3,0.1-0.4,0.1h-1.4c-0.1,0-0.2,0-0.3,0c-0.1,0-0.3,0-0.3,0c-0.2,0-0.5,0-0.8,0h-1.6
			c-0.6,0-1.4,0-2.6,0c-0.1,0-0.3,0-0.8,0c0,0-0.1,0-0.2,0c-0.1,0-0.2,0-0.2,0c-0.1,0-0.2,0-0.3,0c-0.2,0-0.5,0-1,0
			c-0.1,0-0.3,0-0.5,0c0,0-0.1,0-0.1,0s-0.1,0-0.1,0c-0.3,0-0.5,0-0.6,0c-0.1,0-0.4,0-0.8,0c-0.1,0-0.2,0-0.5,0c-0.2,0-0.4,0-0.6,0
			c-0.1,0-0.2,0-0.4,0c-0.2,0-0.3,0-0.4,0c-0.1,0-0.5,0-1.2,0L44.1,193.9L44.1,193.9z"/>
		<path class="st20" d="M70.1,181.9C70.1,181.9,70.1,181.9,70.1,181.9c0,0.1,0,0.1,0,0.1c0,0.3,0,0.5,0,0.6c0,0.2,0,0.4,0,0.5
			c0,0.2,0,0.5,0,0.9c0,0.3,0,0.5,0,0.7c0,0.1,0,0.2,0,0.4v0.4c0,0,0,0,0,0c0,0,0,0,0.1,0c0.6-0.4,1-0.6,1-0.7c0,0,0.1-0.1,0.2-0.1
			c0.1-0.1,0.1-0.1,0.2-0.1c0.1,0,0.2-0.1,0.3-0.2c0.1-0.1,0.2-0.1,0.3-0.2c0,0,0.1-0.1,0.2-0.1c0.1-0.1,0.2-0.1,0.2-0.1
			c0,0,0.1-0.1,0.2-0.1c0.1-0.1,0.2-0.1,0.2-0.1c0.4-0.2,0.7-0.4,1.1-0.7c0,0,0.1-0.1,0.1-0.1c0.1,0,0.1-0.1,0.2-0.1
			c0.1,0,0.1-0.1,0.1-0.1c0,0,0.1-0.1,0.2-0.1s0.2-0.1,0.2-0.1c0.1-0.1,0.3-0.2,0.4-0.3c0.3-0.2,0.5-0.3,0.7-0.4c0,0,0.1,0,0.1,0
			c0.4,0,0.7,0,0.9,0c0.1,0,0.4,0,0.9,0h1.8c0.4,0,1,0,1.8,0c0.1,0,0.3,0,0.6,0c0.3,0,0.4,0,0.6,0c0.2,0,0.8,0,1.7,0l0,0h0l0,0v0
			c-0.1,0.1-0.1,0.1-0.3,0.2c-0.1,0-0.2,0.1-0.4,0.3c-0.2,0.1-0.4,0.2-0.5,0.3c0,0-0.1,0-0.1,0.1s-0.1,0.1-0.2,0.1
			c-0.1,0.1-0.4,0.3-0.8,0.5c-0.1,0-0.2,0.1-0.4,0.2c-0.2,0.1-0.3,0.2-0.3,0.2c-0.4,0.2-0.7,0.4-0.9,0.5c0,0-0.1,0.1-0.2,0.1
			c-0.1,0.1-0.2,0.1-0.2,0.2c-0.3,0.2-0.5,0.3-0.7,0.4c-0.1,0-0.2,0.1-0.3,0.2c-0.1,0.1-0.2,0.1-0.3,0.2c-0.1,0-0.4,0.2-0.9,0.6
			c-0.2,0.1-0.3,0.2-0.5,0.3c-0.1,0-0.2,0.1-0.2,0.1c-0.1,0.1-0.2,0.1-0.4,0.2c-0.2,0.1-0.3,0.2-0.4,0.3c-0.1,0-0.1,0.1-0.3,0.2
			c-0.1,0.1-0.2,0.1-0.2,0.1c0,0-0.1,0-0.2,0.1c-0.1,0.1-0.2,0.1-0.2,0.1l-0.5,0.3c0,0-0.1,0-0.1,0.1c0,0,0.1,0.1,0.1,0.1
			c0.1,0.1,0.3,0.2,0.3,0.3c0,0,0,0,0.1,0c0,0,0.1,0,0.1,0c0.1,0.1,0.2,0.1,0.3,0.2c0.1,0.1,0.2,0.1,0.3,0.2
			c0.3,0.2,0.6,0.4,0.8,0.5c0.1,0.1,0.2,0.1,0.4,0.2c0.2,0.1,0.3,0.2,0.4,0.2c0.1,0.1,0.3,0.2,0.5,0.3s0.4,0.2,0.5,0.3
			c0.4,0.2,0.7,0.4,0.9,0.5c0,0,0.2,0.1,0.5,0.3c0,0,0,0,0,0l0,0c0.2,0.1,0.5,0.3,0.9,0.6c0,0,0.1,0.1,0.2,0.1
			c0.1,0.1,0.2,0.1,0.2,0.1c0.1,0,0.2,0.1,0.4,0.3c0.3,0.2,0.6,0.4,0.8,0.5c0.4,0.2,0.7,0.4,0.9,0.5c0,0,0.1,0,0.1,0.1
			c0,0,0.1,0,0.1,0.1c0.2,0.1,0.4,0.2,0.5,0.3c0.1,0,0.2,0.1,0.3,0.2c0.1,0.1,0.4,0.2,0.7,0.4l0.2,0.1c0,0,0,0-0.1,0.1h-0.7
			c0,0-0.1,0-0.2,0c-0.1,0-0.2,0-0.2,0c0,0-0.1,0-0.2,0c0,0,0,0-0.1,0c0,0,0,0-0.1,0h-0.1c-0.1,0-0.3,0-0.5,0c-0.2,0-0.4,0-0.5,0
			c-0.2,0-0.5,0-1,0h-1h-1.4h-0.7h-1h-0.1h0l0,0c-0.2,0-0.4,0-0.5,0h-0.4c0,0,0,0-0.1,0c0,0,0,0-0.1,0c-0.1,0-0.1-0.1-0.2-0.1
			c-0.1-0.1-0.1-0.1-0.2-0.1c-0.1-0.1-0.3-0.2-0.4-0.3c-0.1,0-0.1-0.1-0.2-0.2c-0.1-0.1-0.2-0.1-0.2-0.2c-0.2-0.1-0.4-0.2-0.5-0.3
			c-0.1-0.1-0.3-0.2-0.6-0.3c0,0,0,0-0.1,0h0c-0.1,0-0.2-0.1-0.3-0.2c-0.1-0.1-0.3-0.2-0.3-0.2c-0.1,0-0.2-0.1-0.3-0.2
			c-0.1-0.1-0.3-0.2-0.3-0.2c-0.1-0.1-0.1-0.1-0.1-0.1c-0.1-0.1-0.2-0.2-0.4-0.3c-0.1,0-0.1-0.1-0.3-0.2c-0.1-0.1-0.2-0.1-0.2-0.1
			c-0.1-0.1-0.3-0.2-0.3-0.3c-0.1,0-0.2-0.1-0.3-0.2c-0.1-0.1-0.2-0.2-0.3-0.2c-0.1,0-0.2-0.1-0.3-0.2c-0.1-0.1-0.2-0.2-0.3-0.2
			l-0.1-0.1c0,0,0,0,0,0.1v0v0.4c0,0.1,0,0.3,0,0.6c0,0.3,0,0.5,0,0.6c0,0.5,0,0.8,0,1c0,0.1,0,0.3,0,0.5v0.5v0.1l0,0
			c0,0.1,0,0.1,0,0.3v0.2v0c0,0-0.1,0-0.1,0c-0.3,0-0.5,0-0.7,0c-0.2,0-0.8,0-1.7,0c0,0-0.1,0-0.1,0c-0.1,0-0.1,0-0.1,0
			c0,0-0.1,0-0.2,0c-0.1,0-0.2,0-0.2,0c-0.1,0-0.5,0-1.2,0c-0.3,0-0.6,0-0.7,0c-0.1,0-0.1,0-0.1,0c0-0.1,0-0.3,0-0.5
			c0-0.1,0-0.5,0-1.2c0-0.1,0-0.2,0-0.4c0-0.2,0-0.3,0-0.4v-0.6c0-0.3,0-0.5,0-0.6V188c0-0.2,0-0.4,0-0.7c0-0.3,0-0.5,0-0.7
			c0-0.1,0-0.3,0-0.6v-0.2c0-0.1,0-0.2,0-0.3c0-0.2,0-0.4,0-0.8V184v-0.4c0-0.2,0-0.3,0-0.4c0,0,0,0,0-0.1c0,0,0-0.1,0-0.1
			c0-0.1,0-0.2,0-0.4v-0.1c0-0.2,0-0.4,0-0.5c0,0,0-0.1,0.1-0.1c0.2,0,0.5,0,0.9,0c0.1,0,0.4,0,0.7,0c0.2,0,0.4,0,0.5,0
			c0.3,0,0.6,0,0.8,0h0.6c0.3,0,0.5,0,0.6,0c0.2,0,0.4,0,0.7,0c0,0,0.1,0,0.2,0c0.1,0,0.2,0,0.2,0L70.1,181.9z"/>
		<path class="st20" d="M93.1,181.4C93.1,181.5,93.1,181.5,93.1,181.4c0.1,0.2,0.1,0.3,0.1,0.4c0,0.2,0,0.3,0,0.3c0,0.2,0,0.8,0,1.9
			c0,0.1,0,0.3,0,0.6c0,0.3,0,0.5,0,0.6c0,0.1,0,0.2,0,0.2v0.5c0,0.3,0,0.4,0,0.5c0,0.1,0,0.6,0,1.3c0,0.6,0,2.4,0,5.5
			c0,0.1,0,0.2,0,0.4c0,0.1,0,0.1-0.1,0.2c0,0,0,0-0.1,0c0,0,0,0-0.1,0c-0.1,0-0.2,0-0.2,0c0,0,0,0-0.1,0c0,0-0.2,0-0.4,0h0
			c-0.2,0-0.3,0-0.4,0c-0.1,0-0.2,0-0.3,0c-0.1,0-0.3,0-0.3,0h-2.9H88c-0.1,0-0.1,0-0.2-0.1v-0.4V193c0-0.2,0-0.5,0-0.8
			c0-0.2,0-0.4,0-0.5c0-0.2,0-0.6,0-1s0-0.7,0-1c0-0.3,0-0.8,0-1.3v-1.3c0-0.1,0-0.2,0-0.4c0-0.2,0-0.3,0-0.4c0-0.1,0-0.2,0-0.3
			c0-0.3,0-0.5,0-0.6c0-0.2,0-0.4,0-0.8l0-1c0-0.7,0-1,0-1c0-0.3,0-0.6,0-1.1v-0.1c0-0.1,0.1-0.1,0.2-0.1c0.1,0,0.1,0,0.3,0
			c0.1,0,0.2,0,0.3,0h0.1h0.6c0,0,0.1,0,0.2,0c0.1,0,0.2,0,0.2,0c0.1,0,0.2,0,0.4,0s0.3,0,0.4,0h0.4c0.1,0,0.1,0,0.2,0
			c0.1,0,0.2,0,0.2,0c0.1,0,0.1,0,0.2,0c0.4,0,0.6,0,0.7,0h0.1c0.1,0,0.2,0,0.3,0c0.1,0,0.2,0,0.3,0C92.9,181.4,93,181.4,93.1,181.4
			C93.1,181.4,93.1,181.4,93.1,181.4L93.1,181.4z"/>
		<path class="st20" d="M101,181.7c0,0.1,0.1,0.1,0.1,0.2v1.3c0,0.1,0,0.2,0,0.4c0,0.2,0,0.3,0,0.4c0,0,0,0.1,0,0.2s0,0.2,0,0.3
			c0,0.1,0,0.5,0,1.1c0,0.3,0,0.5,0,0.7c0,0.1,0,0.3,0,0.5c0,0.1,0,0.5,0,1v0.9c0,0.1,0,0.2,0,0.4c0,0.2,0,0.3,0,0.4v0.8v0.5
			c0,0,0.1,0,0.1,0.1c0.3,0,0.6,0,0.8,0c0.1,0,0.2,0,0.3,0h0.1h1h0.5c0.2,0,0.4,0,0.5,0c0,0,0.1,0,0.3,0c0.2,0,0.3,0,0.4,0
			c0.2,0,0.5,0,0.7,0c0.2,0,0.4,0,0.8,0h0.8c0.1,0,0.3,0,0.5,0c0.2,0,0.4,0,0.5,0h1h0.4c0.1,0,0.4,0,1,0c0,0,0.1,0,0.3,0
			c0.2,0,0.3,0,0.4,0h0.3h0.1h0.1h0.1c0,0,0.1,0,0.2,0v0.3c0,0.3,0,1.2,0,2.7v0.1c0,0-0.1,0.1-0.1,0.1h-0.1h-0.6h-0.1h-0.5H110H110
			h-0.6h-0.2h-0.3h-0.4c0,0-0.1,0-0.1,0h-0.2c-0.3,0-0.6,0-0.8,0c0,0-0.1,0-0.1,0c-0.1,0-0.1,0-0.1,0c-0.1,0-0.1,0-0.3,0h-2.6
			c-0.1,0-0.3,0-0.6,0c-0.3,0-0.4,0-0.6,0c-0.1,0-0.3,0-0.6,0c-0.3,0-0.4,0-0.6,0h-2.3c0,0-0.1,0-0.1,0c-0.1,0-0.1,0-0.1,0
			c-0.3,0-0.4,0-0.5,0h-0.5c-0.2,0-0.4,0-0.5,0c-0.1,0-0.2,0-0.4,0c-0.2,0-0.3,0-0.4,0h-0.5h-0.1c0,0,0,0,0,0h-0.3h-0.1v-0.1
			c0-0.1,0-0.2,0-0.3v-0.1v-0.5c0-0.3,0-0.7,0-1.3c0-0.6,0-1,0-1.3c0-0.2,0-0.6,0-1.1v-1.1c0-0.2,0-0.6,0-1c0-0.3,0-0.6,0-0.7v-0.8
			c0-0.1,0-0.1,0-0.2c0-0.1,0-0.2,0-0.2c0-0.1,0-0.4,0-0.8c0-0.4,0-0.7,0-1v-0.9c0-0.4,0-0.7,0-0.9c0,0,0,0,0-0.1c0,0,0-0.1,0-0.1
			c0.1,0,0.2,0,0.3,0h0.4c0,0,0.1,0,0.1,0c0.1,0,0.1,0,0.1,0h0.3c0,0,0.1,0,0.1,0c0.1,0,0.1,0,0.2,0c0.3,0,0.5,0,0.6,0
			c0,0,0.1,0,0.1,0c0.1,0,0.1,0,0.1,0c0.1,0,0.5,0,1.1,0h1.1c0.1,0,0.1,0,0.3,0C100.9,181.7,100.9,181.7,101,181.7L101,181.7
			L101,181.7z"/>
		<path class="st20" d="M119.9,181.7c0,0.1,0.1,0.1,0.1,0.2v1.3c0,0.1,0,0.2,0,0.4c0,0.2,0,0.3,0,0.4c0,0,0,0.1,0,0.2s0,0.2,0,0.3
			c0,0.1,0,0.5,0,1.1c0,0.3,0,0.5,0,0.7c0,0.1,0,0.3,0,0.5c0,0.1,0,0.5,0,1v0.9c0,0.1,0,0.2,0,0.4c0,0.2,0,0.3,0,0.4v0.8v0.5
			c0,0,0.1,0,0.1,0.1c0.3,0,0.6,0,0.8,0c0.1,0,0.2,0,0.3,0h0.1h1h0.5c0.2,0,0.4,0,0.5,0c0,0,0.1,0,0.3,0c0.2,0,0.3,0,0.4,0
			c0.2,0,0.5,0,0.7,0c0.2,0,0.4,0,0.8,0h0.8c0.1,0,0.3,0,0.5,0c0.2,0,0.4,0,0.5,0h1h0.4c0.1,0,0.4,0,1,0c0,0,0.1,0,0.3,0
			c0.2,0,0.3,0,0.4,0h0.3h0.1h0.1h0.1c0,0,0.1,0,0.2,0v0.3c0,0.3,0,1.2,0,2.7v0.1c0,0-0.1,0.1-0.1,0.1h-0.1h-0.6h-0.1h-0.5h-0.7
			h-0.1h-0.6h-0.2h-0.3h-0.4c0,0-0.1,0-0.1,0H127c-0.3,0-0.6,0-0.8,0c0,0-0.1,0-0.1,0c-0.1,0-0.1,0-0.1,0c-0.1,0-0.1,0-0.3,0h-2.6
			c-0.1,0-0.3,0-0.6,0c-0.3,0-0.4,0-0.6,0c-0.1,0-0.3,0-0.6,0c-0.3,0-0.4,0-0.6,0h-2.3c0,0-0.1,0-0.1,0c-0.1,0-0.1,0-0.1,0
			c-0.3,0-0.4,0-0.5,0h-0.5c-0.2,0-0.4,0-0.5,0c-0.1,0-0.2,0-0.4,0c-0.2,0-0.3,0-0.4,0h-0.5h-0.1c0,0,0,0,0,0h-0.3h-0.1v-0.1
			c0-0.1,0-0.2,0-0.3v-0.1v-0.5c0-0.3,0-0.7,0-1.3c0-0.6,0-1,0-1.3c0-0.2,0-0.6,0-1.1v-1.1c0-0.2,0-0.6,0-1c0-0.3,0-0.6,0-0.7v-0.8
			c0-0.1,0-0.1,0-0.2c0-0.1,0-0.2,0-0.2c0-0.1,0-0.4,0-0.8c0-0.4,0-0.7,0-1v-0.9c0-0.4,0-0.7,0-0.9c0,0,0,0,0-0.1c0,0,0-0.1,0-0.1
			c0.1,0,0.2,0,0.3,0h0.4c0,0,0.1,0,0.1,0c0.1,0,0.1,0,0.1,0h0.3c0,0,0.1,0,0.1,0c0.1,0,0.1,0,0.2,0c0.3,0,0.5,0,0.6,0
			c0,0,0.1,0,0.1,0c0.1,0,0.1,0,0.1,0c0.1,0,0.5,0,1.1,0h1.1c0.1,0,0.1,0,0.3,0C119.8,181.7,119.8,181.7,119.9,181.7L119.9,181.7
			L119.9,181.7z"/>
		<path class="st20" d="M146,181.4C146.1,181.5,146.1,181.5,146,181.4c0.1,0.2,0.1,0.3,0.1,0.4c0,0.2,0,0.3,0,0.3c0,0.2,0,0.8,0,1.9
			c0,0.1,0,0.3,0,0.6c0,0.3,0,0.5,0,0.6c0,0.1,0,0.2,0,0.2v0.5c0,0.3,0,0.4,0,0.5c0,0.1,0,0.6,0,1.3c0,0.6,0,2.4,0,5.5
			c0,0.1,0,0.2,0,0.4c0,0.1,0,0.1-0.1,0.2c0,0,0,0-0.1,0c0,0,0,0-0.1,0c-0.1,0-0.2,0-0.2,0c0,0,0,0-0.1,0c0,0-0.2,0-0.4,0h0
			c-0.2,0-0.3,0-0.4,0c-0.1,0-0.2,0-0.3,0c-0.1,0-0.3,0-0.3,0h-2.9h-0.2c-0.1,0-0.1,0-0.2-0.1v-0.4V193c0-0.2,0-0.5,0-0.8
			c0-0.2,0-0.4,0-0.5c0-0.2,0-0.6,0-1s0-0.7,0-1c0-0.3,0-0.8,0-1.3v-1.3c0-0.1,0-0.2,0-0.4c0-0.2,0-0.3,0-0.4c0-0.1,0-0.2,0-0.3
			c0-0.3,0-0.5,0-0.6c0-0.2,0-0.4,0-0.8l0-1c0-0.7,0-1,0-1c0-0.3,0-0.6,0-1.1v-0.1c0-0.1,0.1-0.1,0.2-0.1c0.1,0,0.1,0,0.3,0
			c0.1,0,0.2,0,0.3,0h0.1h0.6c0,0,0.1,0,0.2,0c0.1,0,0.2,0,0.2,0c0.1,0,0.2,0,0.4,0c0.2,0,0.3,0,0.4,0h0.4c0.1,0,0.1,0,0.2,0
			c0.1,0,0.2,0,0.2,0c0.1,0,0.1,0,0.2,0c0.4,0,0.6,0,0.7,0h0.1c0.1,0,0.2,0,0.3,0c0.1,0,0.2,0,0.3,0
			C145.9,181.4,145.9,181.4,146,181.4C146,181.4,146.1,181.4,146,181.4L146,181.4z"/>
		<path class="st20" d="M148.7,194c0,0,0-0.1-0.1-0.1v-0.4c0,0,0,0,0-0.1v-2.1c0-0.1,0-0.3,0-0.5c0-0.2,0-0.3,0-0.4
			c0-0.2,0-0.3,0-0.3c0-0.1,0-0.3,0-0.6v0v-1c0-0.4,0-0.7,0-0.9c0-0.3,0-0.6,0-1.1V186c0-0.2,0-0.4,0-0.8s0-0.6,0-0.8V184
			c0-0.1,0-0.2,0-0.3c0,0,0-0.1,0-0.1c0,0,0,0,0-0.1v-1.4c0,0,0-0.1,0-0.1c0-0.1,0-0.1,0-0.1v-0.1c0,0,0.1,0,0.1,0
			c0.1,0,0.1,0,0.1,0c0.2,0,0.3,0,0.4,0c0.1,0,0.3,0,0.5,0h0.5c0.2,0,0.5,0,0.8,0c0.4,0,0.6,0,0.7,0c0.1,0,0.2,0,0.3,0
			c0.1,0,0.2,0,0.3,0h1.6c0.1,0,0.2,0,0.3,0.1c0.1,0.1,0.3,0.2,0.4,0.4c0.2,0.2,0.4,0.3,0.5,0.4c0,0,0.1,0.1,0.2,0.1
			c0.1,0.1,0.2,0.1,0.3,0.3c0.1,0.1,0.2,0.2,0.3,0.3c0.3,0.2,0.4,0.3,0.4,0.3c0.2,0.2,0.4,0.3,0.7,0.5c0.2,0.1,0.3,0.3,0.5,0.3
			c0.1,0.1,0.2,0.1,0.3,0.3c0.1,0.1,0.3,0.2,0.3,0.3c0,0,0.1,0,0.1,0.1c0,0,0.1,0.1,0.1,0.1c0.2,0.2,0.4,0.3,0.5,0.4
			c0.1,0.1,0.2,0.1,0.3,0.3c0.1,0.1,0.2,0.2,0.3,0.3c0.2,0.2,0.4,0.3,0.5,0.4c0.1,0.1,0.1,0.1,0.2,0.2c0,0,0.2,0.1,0.4,0.3
			c0.2,0.2,0.4,0.3,0.4,0.4c0.2,0.1,0.3,0.3,0.4,0.3c0,0,0.1,0.1,0.2,0.2s0.2,0.1,0.2,0.1c0,0,0.1,0.1,0.2,0.1
			c0.1,0.1,0.1,0.1,0.2,0.1c0,0,0.1,0.1,0.1,0.1c0.1,0.1,0.1,0.1,0.1,0.1v-0.1v-2.3c0-0.1,0-0.2,0-0.3c0-0.1,0-0.2,0-0.3v-0.7
			c0-0.2,0-0.3,0-0.4c0-0.1,0-0.2,0-0.4c0-0.1,0-0.3,0-0.7v-0.7v-0.3c0-0.1,0-0.2,0-0.3c0-0.1,0-0.1,0-0.1c0.1,0,0.3,0,0.3,0
			c0.9,0,1.6,0,2,0h1c0.1,0,0.3,0,0.5,0h0.3h0.9c0,0,0,0,0.1,0c0,0,0.1,0,0.1,0v0.1v0.3v0.4v0.3c0,0.3,0,0.7,0,1.3v1.3
			c0,0.5,0,0.9,0,1.1c0,0.3,0,1.1,0,2.5v1.9c0,0.5,0,1,0,1.2c0,0.3,0,0.6,0,0.8c0,0.1,0,0.2,0,0.3c0,0.1,0,0.3,0,0.3
			c0,0,0,0.1,0,0.2c0,0.1,0,0.1,0,0.2c0,0,0,0.1-0.1,0.1h0c-0.2,0-0.3,0-0.3,0h-0.2H167c-0.3,0-0.7,0-1.3,0h-0.4c-0.3,0-0.8,0-1.5,0
			c-0.1,0-0.3,0-0.6,0c-0.3,0-0.5,0-0.6,0h-0.2c-0.1,0-0.1,0-0.2-0.1c0,0-0.1-0.1-0.2-0.1c-0.1-0.1-0.2-0.1-0.2-0.2
			c-0.1,0-0.1-0.1-0.2-0.1c-0.1-0.1-0.1-0.1-0.2-0.2s-0.1-0.1-0.2-0.1c-0.1,0-0.1-0.1-0.3-0.2c-0.1-0.1-0.2-0.2-0.3-0.2
			c-0.1,0-0.2-0.1-0.3-0.2c-0.1-0.1-0.2-0.2-0.4-0.3c0,0-0.1,0-0.1-0.1c0-0.1-0.1-0.1-0.2-0.2c0,0-0.1-0.1-0.1-0.1
			c-0.1,0-0.1-0.1-0.2-0.1s-0.1-0.1-0.1-0.1c-0.1,0-0.2-0.1-0.3-0.2c-0.1-0.1-0.2-0.2-0.3-0.2c-0.1-0.1-0.2-0.2-0.4-0.3
			c-0.2-0.1-0.3-0.2-0.3-0.3c0,0-0.1-0.1-0.1-0.1c0,0-0.1-0.1-0.1-0.1c-0.3-0.2-0.4-0.3-0.4-0.3c-0.1,0-0.2-0.1-0.3-0.2
			c-0.1-0.1-0.2-0.2-0.2-0.2c-0.1-0.1-0.2-0.1-0.2-0.2c0,0-0.1-0.1-0.2-0.2c-0.1-0.1-0.1-0.1-0.2-0.2c-0.1-0.1-0.2-0.1-0.2-0.2
			c-0.3-0.2-0.5-0.4-0.8-0.6c-0.1-0.1-0.2-0.1-0.3-0.2l0,0c-0.2-0.1-0.3-0.2-0.4-0.3l-0.4-0.4v0.1c0,0.3,0,0.6,0,0.7v0.4v0.5v0.4
			v0.2v0.3v0.2c0,0,0,0.2,0,0.6v0.6c0,0.4,0,1,0,1.7v0.5v0.1c-0.1,0-0.1,0-0.2,0c0,0-0.1,0-0.2,0h-0.2h-0.7c-0.3,0-0.5,0-0.7,0
			c-0.4,0-0.9,0-1.6,0h-1.6c0,0-0.1,0-0.1,0C148.9,193.9,148.8,193.9,148.7,194L148.7,194z"/>
		<path class="st20" d="M196.4,181.4C196.4,181.5,196.4,181.5,196.4,181.4c0,0.1,0,0.1,0,0.2c0,0.3,0,0.8,0,1.3v1.3
			c0,0.1,0,0.3,0,0.5c0,0-0.1,0-0.1,0c-0.1,0-0.1,0-0.2,0c-0.5,0-0.9,0-1.1,0h-0.4c-0.2,0-0.3,0-0.4,0c-0.3,0-0.5,0-0.6,0
			c-0.1,0-0.3,0-0.6,0c-0.2,0-0.5,0-0.9,0c-0.3,0-0.5,0-0.7,0c-0.1,0-0.1,0-0.3,0c-0.1,0-0.2,0-0.2,0h-0.2c-0.1,0-0.2,0-0.2,0
			c-0.1,0-0.3,0-0.6,0c-0.5,0-0.9,0-1.3,0c-0.2,0-0.4,0-0.7,0c-0.2,0-0.3,0-0.4,0c-0.1,0-0.5,0-1.3,0c0,0-0.2,0-0.7,0h-0.7
			c-0.2,0-0.4,0-0.5,0.1c-0.3,0.1-0.6,0.2-0.8,0.3c-0.3,0.2-0.4,0.4-0.5,0.7c-0.1,0.1-0.1,0.3-0.1,0.5c0,0,0,0.1,0,0.2
			c0,0.1,0,0.1,0,0.2v0.3c0,0.2,0,0.4,0,0.5c0,0,0,0.1,0,0.1v1.4c0,0.1,0,0.2,0,0.3c0,0.3,0.1,0.5,0.2,0.7l0.1,0.1l0.1,0.1
			c0.1,0.1,0.3,0.2,0.5,0.3c0.1,0,0.2,0.1,0.2,0.1c0.1,0,0.2,0.1,0.4,0.1h0.1h1.2c0.3,0,0.5,0,0.6,0h0.4h0.3c0.3,0,0.6,0,0.7,0
			c0.2,0,0.4,0,0.6,0c0.3,0,0.6,0,0.9,0c0.2,0,0.5,0,0.8,0h0.8c0.1,0,0.1,0,0.3,0h0.1c0-0.1,0-0.3,0-0.5c0-0.2,0-0.4,0-0.5h-0.1
			h-0.2c-0.1,0-0.2,0-0.3,0c-0.1,0-0.2,0-0.3,0h-0.6c-0.1,0-0.3,0-0.5,0h-0.3c-0.1,0-0.2,0-0.4,0c-0.2,0-0.3,0-0.4,0
			c-0.1,0-0.2,0-0.4,0c-0.1,0-0.2,0-0.2,0c-0.1,0-0.1,0-0.2,0h-0.1v-0.1v-0.6c0-0.1,0-0.3,0-0.6V188v-1.3c0,0,0-0.1,0-0.2
			c0-0.1,0-0.2,0-0.2h0.1h0.7c0,0,0.1,0,0.2,0c0.4,0,0.7,0,0.9,0c0.2,0,0.3,0,0.4,0c0.1,0,0.4,0,1,0c0.1,0,0.3,0,0.5,0h0.1h0.9
			c0.3,0,0.4,0,0.6,0c0.1,0,0.4,0,0.9,0h0.7c0.2,0,0.7,0,1.5,0c0.1,0,0.2,0,0.4,0c0.2,0,0.3,0,0.4,0v0.1c0,0.1,0,0.2,0,0.3
			c0,0.1,0,0.2,0,0.3v0.1v2c0,0.1,0,0.5,0,1.4v1.3c0,0,0,0.1,0,0.2c0,0.1,0,0.2,0,0.2c0,0,0,0.1,0,0.2c0,0.1,0,0.1,0,0.2
			c0,0.2-0.2,0.4-0.3,0.6c-0.2,0.2-0.4,0.4-0.7,0.5c-0.2,0.1-0.4,0.2-0.6,0.2c0,0-0.1,0-0.1,0l-0.5,0.1h-0.1h-0.9
			c-0.1,0-0.2,0-0.4,0c-0.2,0-0.3,0-0.4,0h-1.2c0,0-0.1,0-0.2,0c-0.3,0-0.6,0-0.8,0c-0.2,0-0.5,0-0.8,0c-0.1,0-0.1,0-0.3,0
			c-0.1,0-0.2,0-0.3,0h-1c-0.3,0-0.4,0-0.6,0c-0.2,0-0.5,0-0.9,0c-0.2,0-0.9,0-1.9,0c-0.1,0-0.2,0-0.3,0c-0.1,0-0.3,0-0.3,0h-0.6
			c-0.1,0-0.2,0-0.3,0c-0.1,0-0.2,0-0.3,0h-0.3h-0.9c-0.2,0-0.4,0-0.7,0c0,0-0.1,0-0.1,0c0,0-0.1,0-0.2,0c-0.1,0-0.1,0-0.2,0
			c-0.3-0.1-0.5-0.1-0.6-0.2c0,0-0.2-0.1-0.5-0.2l0,0c0,0,0,0,0,0c-0.2-0.1-0.5-0.2-0.8-0.5c-0.2-0.2-0.4-0.4-0.6-0.6
			c0,0,0-0.1-0.1-0.1c0,0,0-0.1-0.1-0.1c-0.1-0.2-0.2-0.4-0.3-0.7c0-0.1-0.1-0.3-0.1-0.5v0c0-0.1,0-0.2,0-0.4c0-0.2,0-0.3,0-0.3
			v-0.5c0-0.1,0-0.3,0-0.5v-0.5c0-0.3,0-0.4,0-0.6c0-0.1,0-0.3,0-0.5c0-0.2,0-0.4,0-0.5v-1.3c0-0.1,0-0.2,0-0.4c0-0.1,0-0.2,0-0.3
			c0-0.1,0-0.2,0-0.5c0,0,0-0.1,0-0.2c0-0.1,0-0.1,0-0.2c0.1-0.2,0.1-0.4,0.1-0.4c0-0.1,0.1-0.2,0.2-0.3c0.1-0.1,0.1-0.2,0.1-0.3
			c0.1-0.2,0.2-0.3,0.4-0.5l0.2-0.2c0.2-0.2,0.4-0.3,0.7-0.5c0.2-0.1,0.5-0.2,0.8-0.3c0.1,0,0.2-0.1,0.4-0.1c0.2,0,0.3-0.1,0.4-0.1
			h0.1h0.1c0.3,0,0.6,0,1.1,0c0.2,0,0.3,0,0.4,0c0,0,0.1,0,0.1,0h0.8c0.5,0,0.8,0,0.8,0c0.1,0,0.3,0,0.6,0c0.3,0,0.5,0,0.6,0
			c0.1,0,0.2,0,0.3,0c0.1,0,0.2,0,0.3,0h0.3c0.3,0,0.4,0,0.6,0c0.3,0,0.8,0,1.5,0c0.5,0,0.8,0,1,0c0.1,0,0.4,0,0.7,0
			c0.3,0,0.5,0,0.6,0h0.6h0.4c0.7,0,1.1,0,1.3,0c0.4,0,0.8,0,1.2,0c0.5,0,1,0,1.2,0L196.4,181.4
			C196.4,181.4,196.4,181.4,196.4,181.4L196.4,181.4z"/>
		<path class="st20" d="M207.4,181.3c0.2,0,0.5,0,0.9,0h0.9c0.2,0,0.5,0,1,0h1.5c0.1,0,0.2,0,0.4,0c0,0,0,0.1,0.1,0.1
			c0.1,0.2,0.2,0.3,0.3,0.4c0,0,0.1,0.1,0.1,0.1c0.1,0.1,0.1,0.1,0.1,0.1c0,0.1,0.1,0.2,0.2,0.3c0.1,0.1,0.2,0.2,0.2,0.3
			c0,0.1,0.2,0.4,0.5,0.8c0.3,0.5,0.6,0.9,0.7,1.1c0,0,0,0.1,0.1,0.1c0,0.1,0.1,0.1,0.1,0.1c0,0,0,0.1,0.1,0.1
			c0.1,0.1,0.2,0.2,0.3,0.4c0.1,0.1,0.2,0.3,0.3,0.6c0.1,0.1,0.2,0.3,0.3,0.5c0.1,0.2,0.3,0.5,0.5,0.7c0,0.1,0.1,0.2,0.2,0.3
			c0.1,0.1,0.2,0.2,0.2,0.3c0,0,0.1,0.1,0.2,0.3c0,0,0.1,0.1,0.1,0.2c0.1,0.1,0.1,0.1,0.1,0.1c0,0,0,0,0,0c0,0,0,0,0,0
			c0.1,0.1,0.2,0.3,0.5,0.7c0.2,0.3,0.3,0.5,0.5,0.7c0,0.1,0.1,0.2,0.2,0.3c0,0.1,0.2,0.3,0.4,0.7c0.2,0.3,0.3,0.5,0.4,0.6
			c0,0,0.1,0.1,0.2,0.2c0.1,0.1,0.1,0.2,0.1,0.2c0,0.1,0.1,0.2,0.2,0.3c0.1,0.1,0.2,0.2,0.2,0.3c0.1,0.2,0.3,0.5,0.6,0.8
			c0,0,0,0.1,0.1,0.1l0.1,0.1c0,0,0,0.1,0,0.1h-6.1c0,0-0.1-0.1-0.1-0.1c-0.1-0.1-0.1-0.2-0.2-0.2c0,0-0.1-0.1-0.2-0.3
			c-0.1-0.1-0.2-0.3-0.2-0.4c0,0,0,0,0-0.1c0,0,0,0,0-0.1c0,0-0.1-0.1-0.1-0.2c-0.1-0.1-0.1-0.2-0.2-0.2c0,0,0,0-0.1-0.1
			c0,0,0-0.1-0.1-0.1c0,0,0,0-0.1-0.1c0,0,0-0.1-0.1-0.1c0,0-0.1-0.1-0.1-0.2c-0.1-0.1-0.1-0.2-0.1-0.2h-0.2c0,0-0.1,0-0.1,0
			c-0.1,0-0.1,0-0.1,0h-0.6c-0.4,0-0.5,0-0.5,0c-0.5,0-1,0-1.6,0c-0.4,0-0.9,0-1.6,0h-1.6h-0.1c-0.1,0.1-0.2,0.3-0.2,0.3
			c0,0.1-0.1,0.1-0.1,0.2c-0.1,0.1-0.1,0.1-0.1,0.2c0,0.1-0.1,0.2-0.2,0.3s-0.2,0.3-0.2,0.4c0,0.1-0.1,0.2-0.3,0.4c0,0,0,0,0,0
			c-0.1,0.1-0.2,0.3-0.2,0.3h-0.1h-2h-2h-0.3c-0.1,0-0.1,0-0.2,0h-0.1h-1.2h-0.1l0.2-0.4c0.2-0.3,0.3-0.5,0.3-0.5
			c0.1-0.2,0.2-0.3,0.3-0.4c0.1-0.1,0.1-0.2,0.1-0.3c0.1-0.3,0.3-0.6,0.6-1c0-0.1,0.1-0.2,0.2-0.3c0.1-0.1,0.2-0.2,0.2-0.3
			c0-0.1,0.2-0.3,0.5-0.7l0.4-0.5c0-0.1,0.1-0.2,0.2-0.3s0.2-0.3,0.2-0.3c0-0.1,0.1-0.2,0.3-0.5l0.3-0.5c0.1-0.2,0.2-0.3,0.3-0.4
			c0-0.1,0.1-0.2,0.2-0.3c0.1-0.1,0.1-0.2,0.2-0.3c0-0.1,0.1-0.2,0.2-0.3c0.1-0.1,0.2-0.2,0.2-0.3c0,0,0.1-0.1,0.2-0.3
			c0.1-0.1,0.1-0.2,0.2-0.3c0-0.1,0.1-0.1,0.2-0.3c0.1-0.1,0.1-0.2,0.2-0.3c0.1-0.2,0.3-0.4,0.4-0.6c0.1-0.2,0.2-0.4,0.4-0.5
			l0.2-0.3c0.1-0.2,0.3-0.4,0.3-0.5c0-0.1,0.1-0.2,0.2-0.3c0.1-0.1,0.1-0.2,0.2-0.3l0.3-0.5l0.2-0.3c0,0,0.1-0.1,0.3-0.4
			L207.4,181.3z M210.5,188.4c-0.2-0.3-0.3-0.5-0.3-0.5c0,0,0-0.1-0.1-0.1c0,0,0-0.1-0.1-0.1l-0.1-0.2c-0.1-0.1-0.1-0.1-0.1-0.2
			c0-0.1-0.1-0.1-0.1-0.1c0-0.1-0.1-0.2-0.3-0.4l-0.1-0.1l0,0c-0.2,0.3-0.4,0.6-0.6,0.8c-0.2,0.3-0.3,0.5-0.3,0.5
			c0,0-0.1,0.1-0.1,0.2L210.5,188.4L210.5,188.4z"/>
		<path class="st20" d="M243.3,194.1L243.3,194.1h-1.2H241c-0.1,0-0.3,0-0.5,0c-0.2,0-0.4,0-0.5,0c-0.2,0-0.7,0-1.5,0h-0.4
			c0,0,0,0-0.1,0V194v-2.1c0-0.1,0-0.2,0-0.3c0-0.1,0-0.2,0-0.3c0-0.4,0-0.6,0-0.7v-0.2v-0.9c0,0,0-0.1,0-0.1c0,0,0-0.1,0-0.1v-0.1
			c-0.1,0.1-0.2,0.2-0.2,0.2c-0.1,0.1-0.2,0.3-0.3,0.4c-0.1,0.1-0.1,0.1-0.2,0.2c-0.1,0.1-0.2,0.2-0.3,0.4c0,0-0.1,0.1-0.1,0.1
			l-0.1,0.2c0,0-0.1,0.1-0.1,0.1c0,0-0.1,0-0.1,0.1c0,0.1-0.1,0.1-0.1,0.1c-0.1,0.2-0.3,0.3-0.3,0.4c0,0-0.1,0.1-0.1,0.1
			c-0.1,0.1-0.1,0.1-0.1,0.1c0,0,0,0,0,0.1c0,0,0,0,0,0.1c0,0-0.1,0.1-0.1,0.2c-0.1,0.1-0.2,0.2-0.2,0.3c-0.1,0.1-0.2,0.2-0.2,0.3
			c-0.1,0.1-0.2,0.2-0.2,0.3c0,0-0.1,0-0.2,0h-2.9c-0.1,0-0.2,0-0.4,0c-0.2,0-0.3,0-0.5,0c-0.1,0-0.3,0-0.5,0c-0.2,0-0.4,0-0.5,0h0
			c-0.1,0-0.1-0.1-0.2-0.2c0-0.1-0.1-0.1-0.1-0.2c0-0.1-0.1-0.1-0.1-0.2s-0.1-0.1-0.1-0.2c-0.1-0.1-0.1-0.2-0.2-0.2
			c-0.1-0.1-0.1-0.2-0.3-0.4c0-0.1-0.1-0.1-0.2-0.3c-0.1-0.1-0.1-0.2-0.1-0.2c0,0-0.1-0.1-0.2-0.2c-0.1-0.1-0.2-0.2-0.2-0.3
			c-0.1-0.2-0.2-0.3-0.2-0.4c-0.1-0.1-0.1-0.2-0.3-0.3l-0.1-0.1c-0.1-0.1-0.2-0.2-0.3-0.3c0-0.1-0.1-0.1-0.1-0.1c0,0,0,0,0-0.1
			c0,0,0,0,0-0.1v0.2c0,0.1,0,0.1,0,0.2c0,0.2,0,0.4,0,0.5c0,0.1,0,0.3,0,0.6c0,0.3,0,1,0,2.2c0,0.3,0,0.5,0,0.7v0.3v0c0,0,0,0,0,0
			h0c-0.2,0-0.4,0-0.7,0c-0.6,0-1,0-1.3,0h-0.5c-0.2,0-0.4,0-0.5,0c-0.2,0-0.4,0-0.6,0h-0.6c-0.1,0-0.3,0-0.5,0c0,0-0.1,0-0.2,0
			c-0.1,0-0.2,0-0.2,0c-0.1,0-0.1,0-0.1,0c0,0,0,0,0,0v-0.6c0-0.1,0-0.2,0-0.3c0-0.1,0-0.2,0-0.3c0-0.2,0-1.2,0-2.9
			c0-0.2,0-0.4,0-0.8c0,0,0,0,0-0.1c0,0,0-0.1,0-0.1v-0.1c0-0.8,0-1.2,0-1.3v-1.3v-0.3c0-0.2,0-0.3,0-0.3c0,0,0-0.1,0-0.2
			c0-0.1,0-0.2,0-0.3c0-0.1,0-0.3,0-0.5v-2.3v-0.2c0-0.2,0-0.3,0-0.4c0,0,0.1-0.1,0.1-0.1h0.3h0.3h0.2c0.4,0,0.6,0,0.8,0
			c0.4,0,0.8,0,1.3,0c0.3,0,0.7,0,1.4,0c0.3,0,0.6,0,1.1,0l0.2,0.2c0.1,0.1,0.3,0.4,0.7,0.9c0,0.1,0.1,0.2,0.2,0.3
			c0.1,0.1,0.2,0.2,0.2,0.3c0.1,0.1,0.2,0.2,0.2,0.3c0.1,0.1,0.2,0.3,0.4,0.5c0.1,0.1,0.2,0.3,0.4,0.5c0,0.1,0.1,0.2,0.2,0.3
			c0.1,0.1,0.2,0.3,0.2,0.3c0,0,0.1,0.1,0.1,0.1c0,0,0.1,0.1,0.1,0.1c0.1,0.1,0.2,0.3,0.5,0.6c0.1,0.2,0.3,0.4,0.6,0.7
			c0.1,0.1,0.2,0.2,0.3,0.4c0,0.1,0.1,0.2,0.2,0.3c0.1,0.1,0.2,0.2,0.3,0.3c0,0.1,0.1,0.1,0.2,0.2c0.1,0.1,0.2,0.2,0.2,0.2
			c0,0,0,0.1,0.1,0.1c0,0,0.1-0.1,0.1-0.1c0-0.1,0.1-0.1,0.1-0.1c0.1-0.1,0.3-0.4,0.5-0.7c0-0.1,0.1-0.2,0.2-0.3s0.2-0.2,0.2-0.3
			c0.1-0.1,0.1-0.2,0.2-0.3c0.1-0.1,0.2-0.3,0.2-0.3c0,0,0.1-0.1,0.1-0.1c0-0.1,0.1-0.1,0.1-0.2c0.1-0.1,0.1-0.1,0.1-0.2
			c0,0,0.1-0.1,0.1-0.1c0-0.1,0.1-0.1,0.1-0.1c0.1-0.1,0.2-0.3,0.3-0.4c0.1-0.1,0.2-0.2,0.3-0.3c0.1-0.1,0.1-0.2,0.2-0.3
			c0,0,0.1-0.1,0.1-0.2c0.1-0.1,0.1-0.1,0.1-0.2c0.1-0.1,0.1-0.1,0.2-0.3c0.1-0.1,0.1-0.2,0.2-0.2c0.1-0.1,0.2-0.2,0.3-0.4
			c0.1-0.2,0.2-0.3,0.2-0.3c0.1-0.1,0.1-0.2,0.3-0.4c0.1-0.2,0.2-0.3,0.3-0.4c0.1-0.1,0.2-0.2,0.2-0.2c0,0,0.1-0.1,0.1-0.1
			c0,0,0.1-0.1,0.1-0.1h0.2h3.2c0.1,0,0.2,0,0.4,0c0.2,0,0.3,0,0.4,0c0.1,0,0.6,0,1.3,0c0,0,0.1,0,0.1,0c0,0,0,0.1,0,0.1
			c0,0.1,0,0.1,0,0.1v1.1c0,0.4,0,0.8,0,1c0,0.3,0,0.7,0,1.2v1.2c0,0.1,0,0.2,0,0.4c0,0.2,0,0.3,0,0.4c0,0.5,0,1.1,0,1.8v1.8
			c0,0.3,0,1.1,0,2.5c0,0.1,0,0.1,0,0.3c0,0.1,0,0.2,0,0.2L243.3,194.1z"/>
		<path class="st20" d="M246.3,181.5h0.6h0.7h0.6c0.5,0,0.8,0,1.1,0h0.4c0.2,0,0.3,0,0.4,0c0.2,0,0.4,0,0.7,0h0.2h1.3
			c0,0,0.1,0,0.2,0c0.1,0,0.1,0,0.2,0c0.1,0,0.2,0,0.3,0h0.1c0.1,0,0.2,0,0.2,0c0,0,0.1,0,0.1,0c0,0,0.1,0,0.1,0h0.9
			c0.3,0,0.6,0,0.7,0c0.4,0,0.6,0,0.8,0c0.1,0,0.5,0,1.1,0c0,0,0.1,0,0.4,0l0.4,0c0.1,0,0.2,0,0.3,0c0.1,0,0.2,0,0.3,0
			c0.1,0,0.3,0,0.3,0c0,0,0.2,0,0.4,0c0.1,0,0.7,0,1.8,0c0.5,0,0.9,0,1.2,0h1.1l0,0c0,0.1,0,0.3,0,0.4c0,0.1,0,0.1,0,0.3
			c0,0.1,0,0.2,0,0.4v1.9v0.1h-0.1h-1.6c0,0-0.1,0-0.2,0c-0.1,0-0.1,0-0.1,0c-0.3,0-0.5,0-0.6,0c-0.1,0-0.3,0-0.5,0h-1.4
			c-0.3,0-0.5,0-0.6,0h-0.2c-0.2,0-0.5,0-0.9,0c-0.1,0-0.2,0-0.4,0c-0.2,0-0.3,0-0.4,0H256c-0.2,0-0.3,0-0.4,0c-0.4,0-0.7,0-0.8,0
			c-0.2,0-0.5,0-0.9,0h-0.7h-0.3c-0.1,0-0.3,0-0.6,0h-0.6c0,0-0.1,0-0.1,0c-0.1,0-0.1,0-0.1,0v0.1c0,0,0,0.1,0,0.1
			c0,0.1,0,0.1,0,0.2v0c0,0.1,0,0.2,0,0.4c0,0.2,0,0.3,0,0.4v0h0.1h1.6c0.1,0,0.2,0,0.4,0c0.2,0,0.3,0,0.4,0c0.1,0,0.3,0,0.5,0h0.5
			c0.1,0,0.3,0,0.6,0h0.1h2.6c0.1,0,0.5,0,1.2,0c0,0,0.1,0,0.2,0c0.1,0,0.2,0,0.2,0h0.9c0,0,0.1,0,0.2,0c0.1,0,0.1,0,0.2,0h0.3v0.1
			v0.3c0,0.1,0,0.2,0,0.3v2.1c0,0.2,0,0.3,0,0.4c0,0-0.1,0-0.1,0c-0.1,0-0.1,0-0.1,0c-0.1,0-0.2,0-0.3,0h-0.1h-0.9
			c-0.1,0-0.2,0-0.4,0c-0.2,0-0.3,0-0.4,0c-0.1,0-0.3,0-0.5,0h0c-0.1,0-0.3,0-0.5,0c-0.2,0-0.3,0-0.4,0c-0.1,0-0.2,0-0.4,0
			c-0.2,0-0.3,0-0.4,0c-0.2,0-0.5,0-0.8,0h-0.8c-0.1,0-0.2,0-0.3,0c-0.1,0-0.2,0-0.3,0c-0.2,0-0.4,0-0.5,0c0,0-0.1,0-0.2,0h-0.2
			c-0.1,0-0.3,0-0.5,0c-0.2,0-0.8,0-1.8,0h-0.1v0.3c0,0.1,0,0.1,0,0.3c0,0.1,0,0.2,0,0.3v0.4c0.1,0,0.2,0,0.3,0h2.5c0,0,0.1,0,0.1,0
			c0.1,0,0.1,0,0.1,0c0.1,0,0.3,0,0.6,0c0,0,0.1,0,0.2,0c0.1,0,0.1,0,0.2,0c0.1,0,0.2,0,0.4,0h0.3h1.4c0.3,0,0.5,0,0.7,0
			c0.3,0,0.6,0,0.9,0h0.7h0.6c0.3,0,0.6,0,0.8,0c0.2,0,0.6,0,1.4,0c0.1,0,0.2,0,0.3,0c0.1,0,0.2,0,0.3,0c0,0,0,0,0,0h0
			c0,0.2,0,0.3,0,0.5s0,0.4,0,0.6c0,0.2,0,0.4,0,0.5v1.6h-0.1c-0.1,0-0.3,0-0.5,0c-0.2,0-0.4,0.1-0.5,0.1c-0.2,0-0.5,0-0.8,0
			c-0.1,0-0.2,0-0.3,0c-0.1,0-0.2,0-0.3,0c-0.4,0-0.8,0-1.1,0c-0.5,0-0.9,0-1.1,0c-0.2,0-0.4,0-0.5,0h-0.2c-0.1,0-0.2,0-0.2,0
			c-0.2,0-0.6,0-1.4,0c-0.2,0-0.4,0-0.5,0c-0.1,0-0.4,0-0.9,0c0,0-0.1,0-0.2,0c-0.1,0-0.1,0-0.2,0h0c-0.1,0-0.2,0-0.3,0
			c-0.1,0-0.3,0-0.3,0c-0.1,0-0.2,0-0.4,0h-0.4h-0.3c-0.2,0-0.3,0-0.4,0c-0.1,0-0.3,0-0.6,0h-0.6c-0.3,0-0.7,0-1.2,0
			c-0.5,0-0.8,0-1,0c-0.3,0-0.6,0-0.8,0c-0.3,0-0.5,0-0.6,0c-0.2,0-0.6,0-1,0h0c0,0,0,0,0,0c0,0,0,0,0,0c0-0.4,0-0.7,0-0.8
			c0-0.2,0-0.4,0-0.8c0-0.3,0-0.6,0-0.8c0-0.1,0-0.2,0-0.4v-0.4v-0.4c0-0.2,0-0.3,0-0.4c0-0.3,0-0.6,0-1v-0.7c0-0.3,0-0.5,0-0.7
			c0-0.2,0-0.9,0-1.9c0,0,0-0.1,0-0.1c0-0.1,0-0.1,0-0.2V185v-0.4v-0.3c0-0.4,0-0.8,0-1.2c0-0.2,0-0.4,0-0.7v-0.7L246.3,181.5
			L246.3,181.5C246.2,181.5,246.2,181.5,246.3,181.5L246.3,181.5z"/>
	</g>
	<path class="st21" d="M173.9,235.8c-13.7,5.2-27.4,5.2-41,0c4.2-1.5,8.6-0.6,13-0.9c2.1,1.2,4-0.4,6.1-0.2c1.7,0.4,3.5,0.1,5.2,0.3
		c1.5,0.6,3.2,0,4.6,0.7C165.8,234.3,169.8,234.5,173.9,235.8z"/>
	<path class="st22" d="M151.9,235.7c-2,0.6-4.1,1.5-6.1-0.1c4.2-0.5,8.4-1.3,12.6-0.1c-0.5,0.6-1.2,0.5-1.8,0.5
		C155,235.9,153.4,236.4,151.9,235.7z"/>
	<path class="st23" d="M156.6,235.8c0.6-0.1,1.2-0.2,1.8-0.3c1.2,0.1,2.1-0.2,3.3,0.9c-1.7,0-3.4-0.1-5.1-0.1
		C156.6,236.2,156.6,236,156.6,235.8z"/>
	<path class="st24" d="M156.6,235.8c0,0.2,0,0.4,0,0.6c-1.6,0-3.3,0.7-4.7-0.7C153.5,235.7,155,235.8,156.6,235.8z"/>
	<path class="st25" d="M109.2,239c-5,0.5-9.9,1.7-14.8,3.2c-1.8,0.5-0.1,1.1,0,1.7c0.4,2.4,2.6,5.4,1,6.8c-1.6,1.4-4.3-1.5-6.6-1.9
		c-6-1.1-8.6-5-10-10.7c-1.7-7.1-4.3-14-6.7-21c-0.8-2.4-0.5-3.5,2.2-4.4c32.5-10.3,65.9-13.1,99.6-11.1c20,1.2,39.6,5.4,58.8,11.2
		c1.8,0.5,3,0.9,2.2,3.3c-3.3,9.8-6.5,19.6-9.8,29.4c-0.2,0.7-2-0.9-1.4,1c-4.2,1.7-8.5,3.4-13,5.2c-0.2-3,1.3-5.3,1.6-7.8
		c0-0.6,1.7-1.2-0.1-1.7c-4.8-1.5-9.7-2.7-14.8-3.2c-4.1,1-8-0.4-11.9-1.2c-3.9,0.2-7.7-0.6-11.6-1c-4-1.5-8-0.1-12-0.3
		c-1.3-0.2-7.2,0.5-8.5,0.2c-6.4-0.2-3.2,0-7.6-0.4c-4.2,0.7-8.5-1-12.7,0.6c-4,0.4-7.9,1.2-11.9,1C117.3,238.6,113.4,240,109.2,239
		z"/>
	<g>
		<g>
			<path class="st20" d="M101.5,223.3c-1.1,0.2-1.7,0.4-2.8,0.6c0.3,1.3,0.4,1.9,0.7,3.1c-0.5,0.1-0.7,0.2-1.2,0.3
				c-0.7-3-1.1-4.4-1.8-7.4c1.7-0.4,2.6-0.6,4.3-1c0.1,0.4,0.1,0.6,0.2,1c-1.2,0.3-1.8,0.4-3,0.7c0.2,0.9,0.3,1.3,0.5,2.2
				c1.1-0.3,1.7-0.4,2.8-0.6C101.3,222.7,101.4,222.9,101.5,223.3z"/>
			<path class="st20" d="M103.4,226.2c-0.6-3-1-4.5-1.6-7.4c0.5-0.1,0.7-0.2,1.2-0.3c0.6,3,0.9,4.5,1.6,7.4
				C104.1,226,103.9,226.1,103.4,226.2z"/>
			<path class="st20" d="M106.4,220c0.4,2.1,0.6,3.2,1,5.3c-0.4,0.1-0.6,0.1-1,0.2c-0.6-3-0.9-4.5-1.5-7.4c0.3-0.1,0.5-0.1,0.9-0.2
				c1.9,1.8,2.8,2.7,4.6,4.6c-0.4-2.1-0.6-3.2-1-5.3c0.4-0.1,0.7-0.1,1.1-0.2c0.5,3,0.8,4.5,1.3,7.5c-0.3,0.1-0.5,0.1-0.8,0.2
				C109.1,222.8,108.2,221.9,106.4,220z"/>
			<path class="st20" d="M112.1,216.8c1.4-0.3,2-0.4,3.4-0.6c0.2,0,0.4-0.1,0.6-0.1c0.9,0,1.4,0.5,1.5,1.4c0.3,1.7,0.4,2.6,0.7,4.4
				c0,0.1,0,0.1,0,0.2c0.1,1-0.5,1.6-1.6,1.7c-1.3,0.2-2,0.3-3.3,0.5C112.9,221.2,112.6,219.7,112.1,216.8z M113.5,217.5
				c0.4,2.2,0.5,3.3,0.9,5.5c1-0.2,1.5-0.2,2.5-0.4c0.1,0,0.1-0.1,0.1-0.2c-0.3-2.1-0.5-3.1-0.8-5.2c0-0.1-0.1-0.1-0.2-0.1
				C115,217.3,114.5,217.4,113.5,217.5z"/>
			<path class="st20" d="M124.2,222.6c-0.1-1.1-0.2-1.6-0.3-2.7c-0.2,0-0.3,0-0.4-0.1c-0.2-0.1-0.5-0.4-0.7-0.9
				c-0.8-1.4-1.2-2.1-2-3.5c0.5-0.1,0.8-0.1,1.3-0.2c0.8,1.4,1.2,2.1,1.9,3.5c0,0.1,0.1,0.1,0.2,0.1c0.2,0,0.3,0,0.5-0.1
				c0.1,0,0.1-0.1,0.1-0.1c0.4-1.5,0.6-2.3,1-3.9c0.5-0.1,0.8-0.1,1.3-0.1c-0.4,1.6-0.7,2.3-1.1,3.9c-0.1,0.3-0.1,0.5-0.2,0.7
				c-0.1,0.3-0.4,0.5-0.7,0.6c0.1,1.1,0.2,1.6,0.3,2.7C125,222.5,124.7,222.6,124.2,222.6z"/>
			<path class="st20" d="M127.9,216c0-0.2,0-0.3,0-0.5c0.1-0.7,0.6-1.1,1.6-1.2c0.8-0.1,1.2-0.1,2-0.2c0.2,0,0.4,0,0.6,0
				c0.8,0.1,1.2,0.5,1.3,1.4c0.2,1.9,0.2,2.8,0.4,4.7c0,0.1,0,0.3,0,0.4c-0.1,0.8-0.6,1.2-1.6,1.3c-0.8,0.1-1.2,0.1-2,0.2
				c-0.2,0-0.3,0-0.5,0c-0.8,0-1.3-0.5-1.4-1.4C128.2,218.8,128.1,217.9,127.9,216z M129.3,215.4c-0.1,0-0.1,0.1-0.1,0.1
				c0.2,2.1,0.3,3.2,0.5,5.3c0,0.1,0.1,0.1,0.1,0.1c1.1-0.1,1.6-0.2,2.7-0.2c0.1,0,0.1-0.1,0.1-0.1c-0.2-2.1-0.3-3.2-0.5-5.3
				c0-0.1-0.1-0.1-0.1-0.1C130.9,215.3,130.4,215.3,129.3,215.4z"/>
			<path class="st20" d="M137.2,221.5c-0.2,0-0.3,0-0.5,0c-0.8-0.1-1.3-0.5-1.4-1.4c-0.2-2.5-0.3-3.7-0.5-6.1c0.5,0,0.8-0.1,1.3-0.1
				c0.2,2.6,0.3,3.9,0.5,6.4c0,0.1,0.1,0.1,0.1,0.1c1.1-0.1,1.6-0.1,2.6-0.2c0.1,0,0.1-0.1,0.1-0.1c-0.1-2.6-0.2-3.9-0.4-6.4
				c0.5,0,0.8,0,1.3-0.1c0.1,2.5,0.2,3.7,0.3,6.1c0,0.1,0,0.3,0,0.4c-0.1,0.8-0.6,1.2-1.6,1.2C138.4,221.4,138,221.4,137.2,221.5z"
				/>
			<path class="st20" d="M142.5,221.1c-0.1-3-0.2-4.6-0.3-7.6c1.3-0.1,2-0.1,3.3-0.2c1.2-0.1,1.9,0.5,1.9,1.6c0,0.5,0,0.8,0,1.4
				c0,0.8-0.3,1.3-1,1.6c0.2,0.1,0.4,0.4,0.5,0.7c0.4,0.9,0.5,1.4,0.9,2.3c-0.5,0-0.7,0-1.2,0c-0.4-1.1-0.6-1.7-1.1-2.8
				c0-0.1-0.1-0.1-0.2-0.1c-0.7,0-1,0-1.7,0.1c0.1,1.2,0.1,1.8,0.1,3C143.2,221.1,143,221.1,142.5,221.1z M143.4,214.5
				c0,1,0.1,1.5,0.1,2.5c1,0,1.5-0.1,2.5-0.1c0.1,0,0.1-0.1,0.2-0.2c0-0.9,0-1.3-0.1-2.2c0-0.1-0.1-0.1-0.2-0.2
				C144.9,214.4,144.4,214.4,143.4,214.5z"/>
			<path class="st20" d="M151.5,220.9c0-3,0-4.6-0.1-7.6c1.3,0,2,0,3.3,0c0,0,0.1,0,0.2,0c1.1,0,1.7,0.6,1.7,1.7c0,0.6,0,0.9,0,1.5
				c0,0.2,0,0.4-0.1,0.6c-0.2,0.7-0.8,1-1.8,1c-0.8,0-1.2,0-2,0c0,1.1,0,1.7,0,2.8C152.3,220.9,152,220.9,151.5,220.9z M152.7,214.3
				c0,1.1,0,1.6,0,2.7c1,0,1.5,0,2.4,0c0.1,0,0.1-0.1,0.2-0.2c0-1,0-1.4,0-2.4c0-0.1-0.1-0.1-0.2-0.2
				C154.2,214.3,153.7,214.3,152.7,214.3z"/>
			<path class="st20" d="M161.6,221c-0.1-0.8-0.2-1.1-0.4-1.9c-1.2,0-1.8-0.1-3-0.1c-0.2,0.8-0.3,1.1-0.5,1.9c-0.5,0-0.7,0-1.1,0
				c0.7-2.5,1.1-3.8,1.9-6.4c0.1-0.4,0.3-0.7,0.4-0.9c0.2-0.2,0.6-0.3,1.1-0.3c0.5,0,0.8,0,1.3,0.1c0.6,3.1,0.9,4.6,1.5,7.7
				C162.3,221,162.1,221,161.6,221z M158.5,218c1,0,1.5,0,2.5,0.1c-0.3-1.5-0.4-2.2-0.7-3.6c-0.2,0-0.3,0-0.6,0
				c-0.1,0-0.1,0-0.1,0.1C159.1,215.9,158.9,216.6,158.5,218z"/>
			<path class="st20" d="M163.8,221.1c0.1-3,0.2-4.6,0.3-7.6c1.3,0,2,0.1,3.3,0.1c1.2,0.1,1.8,0.6,1.8,1.8c0,0.5-0.1,0.8-0.1,1.3
				c-0.1,0.8-0.5,1.3-1.2,1.5c0.2,0.1,0.3,0.4,0.4,0.8c0.3,1,0.4,1.4,0.7,2.4c-0.5,0-0.7,0-1.2-0.1c-0.3-1.2-0.5-1.7-0.8-2.9
				c0-0.1-0.1-0.1-0.2-0.2c-0.7,0-1-0.1-1.7-0.1c-0.1,1.2-0.1,1.8-0.1,3C164.6,221.1,164.3,221.1,163.8,221.1z M165.4,214.6
				c-0.1,1-0.1,1.5-0.1,2.5c1,0,1.5,0.1,2.4,0.1c0.1,0,0.1-0.1,0.2-0.1c0.1-0.9,0.1-1.3,0.1-2.2c0-0.1-0.1-0.1-0.2-0.2
				C166.9,214.7,166.4,214.6,165.4,214.6z"/>
			<path class="st20" d="M171.2,221.5c0.2-2.6,0.3-3.9,0.5-6.5c-0.8-0.1-1.1-0.1-1.9-0.1c0-0.4,0-0.6,0.1-1.1c2,0.1,3.1,0.2,5.1,0.4
				c0,0.4-0.1,0.6-0.1,1.1c-0.8-0.1-1.1-0.1-1.9-0.2c-0.2,2.6-0.3,3.9-0.5,6.5C171.9,221.6,171.7,221.6,171.2,221.5z"/>
			<path class="st20" d="M175,221.9c0.3-3,0.4-4.5,0.7-7.6c1.8,0.2,2.7,0.3,4.5,0.5c0,0.4-0.1,0.6-0.1,1.1c-1.3-0.1-1.9-0.2-3.2-0.3
				c-0.1,0.9-0.1,1.3-0.2,2.1c1.2,0.1,1.8,0.2,2.9,0.3c0,0.4-0.1,0.6-0.1,1c-1.2-0.1-1.8-0.2-2.9-0.3c-0.1,0.9-0.1,1.4-0.2,2.3
				c1.3,0.1,1.9,0.2,3.2,0.3c0,0.4-0.1,0.6-0.1,1.1C177.7,222.1,176.8,222,175,221.9z"/>
			<path class="st20" d="M182.3,217.2c-0.3,2.1-0.4,3.2-0.7,5.4c-0.4-0.1-0.6-0.1-1.1-0.1c0.4-3,0.5-4.5,0.9-7.5
				c0.4,0,0.5,0.1,0.9,0.1c1.2,2.3,1.8,3.5,2.9,5.8c0.3-2.1,0.4-3.2,0.7-5.3c0.4,0.1,0.7,0.1,1.1,0.2c-0.4,3-0.6,4.5-1.1,7.5
				c-0.3,0-0.5-0.1-0.8-0.1C184.1,220.7,183.5,219.5,182.3,217.2z"/>
			<path class="st20" d="M191.9,224.1c0-0.8-0.1-1.2-0.1-1.9c-1.2-0.2-1.8-0.3-2.9-0.5c-0.3,0.7-0.5,1.1-0.8,1.8
				c-0.5-0.1-0.7-0.1-1.1-0.2c1.1-2.4,1.6-3.6,2.7-6.1c0.2-0.4,0.4-0.7,0.5-0.8c0.2-0.2,0.6-0.3,1.2-0.2c0.5,0.1,0.8,0.1,1.3,0.2
				c0.2,3.1,0.4,4.7,0.5,7.8C192.7,224.2,192.4,224.1,191.9,224.1z M189.3,220.7c1,0.2,1.5,0.2,2.5,0.4c-0.1-1.5-0.2-2.2-0.3-3.7
				c-0.2,0-0.3-0.1-0.6-0.1c-0.1,0-0.1,0-0.2,0.1C190.2,218.7,189.9,219.3,189.3,220.7z"/>
			<path class="st20" d="M194.3,224.5c0.5-3,0.8-4.5,1.3-7.5c0.5,0.1,0.8,0.1,1.3,0.2c-0.5,3-0.8,4.5-1.4,7.5
				C195,224.6,194.8,224.5,194.3,224.5z"/>
			<path class="st20" d="M197.4,225c0.6-3,0.9-4.5,1.4-7.5c1.3,0.2,2,0.4,3.3,0.6c1.2,0.2,1.7,0.9,1.5,2c-0.1,0.5-0.2,0.8-0.3,1.3
				c-0.2,0.8-0.6,1.2-1.4,1.3c0.2,0.2,0.3,0.4,0.3,0.8c0.1,1,0.2,1.5,0.3,2.5c-0.5-0.1-0.7-0.2-1.2-0.3c-0.1-1.2-0.2-1.8-0.4-3
				c0-0.1-0.1-0.2-0.2-0.2c-0.7-0.1-1-0.2-1.7-0.3c-0.2,1.2-0.3,1.8-0.6,2.9C198.1,225.2,197.9,225.1,197.4,225z M199.8,218.8
				c-0.2,1-0.3,1.5-0.5,2.5c1,0.2,1.4,0.3,2.4,0.5c0.1,0,0.2,0,0.2-0.1c0.2-0.9,0.3-1.3,0.5-2.2c0-0.1,0-0.1-0.1-0.2
				C201.3,219.1,200.8,219,199.8,218.8z"/>
			<path class="st20" d="M203.8,226.4c0.7-3,1-4.5,1.6-7.4c1.8,0.4,2.6,0.6,4.4,1c-0.1,0.4-0.1,0.6-0.2,1c-1.3-0.3-1.9-0.4-3.1-0.7
				c-0.2,0.8-0.3,1.3-0.5,2.1c1.2,0.3,1.7,0.4,2.9,0.7c-0.1,0.4-0.1,0.6-0.2,1c-1.1-0.3-1.7-0.4-2.9-0.7c-0.2,0.9-0.3,1.3-0.5,2.2
				c1.3,0.3,1.9,0.4,3.1,0.7c-0.1,0.4-0.1,0.6-0.2,1C206.4,226.9,205.6,226.7,203.8,226.4z"/>
		</g>
	</g>
	<path class="st0" d="M109.2,239c3.8-0.7,7.6-1.5,11.3-2.2c9.9,4.4,20.2,7.7,30.8,10.1c1.5,0.3,3,0.3,4.4,0
		c10.4-2.4,20.6-5.6,30.4-10.1c3.8,0.7,7.5,1.5,11.3,2.2c-9.8,6.2-20.9,9.4-31.8,13.2c-9.4,3.3-18.3,2.2-27.4-0.9
		C128.3,248,118.2,244.8,109.2,239z"/>
	<path class="st26" d="M223.8,246.5c-0.6-0.5-1.2-0.9-1.8-1.4c1.2-0.8,2.2,0.1,3.3,0.4C225,246.1,224.4,246.4,223.8,246.5z"/>
	<path class="st27" d="M94.5,243.9c-0.8-0.4-1.6-0.8-3-1.5c1.4-0.1,2.2-0.1,3-0.1C94.5,242.8,94.5,243.4,94.5,243.9z"/>
	<path class="st28" d="M212.3,242.2c0.8,0,1.6,0.1,3,0.2c-1.3,0.7-2.1,1.1-2.9,1.6C212.3,243.4,212.3,242.8,212.3,242.2z"/>
	<path class="st5" d="M118.9,88.6c3.1-10.8,5.4-22,9.7-32.4c4.4-10.4,13.3-17.3,23.2-22.7c1.7-0.9,3.3-0.2,4.6,0.6
		c11.1,7.2,21.1,15.2,24.3,29.2c1.8,7.9,4.7,15.6,7.1,23.4c0.5,1.7,1.3,3.3,0.5,5.4c-1.6-4-3.1-7.7-4.6-11.5
		c-2.8-3.4-3.3-7.8-4.3-11.8c-1.8-7.4-5-13.8-10.8-18.8c-2.9-4.7-7.5-7.4-11.7-10.7c-0.6-0.4-1.2-0.4-1.8,0.1c-0.7,2.1,0,4.5-1,6.6
		c-0.6,1.1-1.6,1.9-2.6,2.6c-9.3,6.6-15.2,15.3-17.3,26.7c-1,5.3-2.5,10.6-4,15.8c-0.9,3.1-0.7,5.6,2,7.6c1.7,1.3,2.4,3.6,4.5,4.7
		c2.5,2.2,4.4,4.8,5.9,7.6c2.2,5.3,5.6,9.9,9.3,14.2c1.8,2.1,3,1.8,4.5-0.1c3.3-4.3,6-9,8.2-14c1.3-2.8,2.9-5.4,5.4-7.3
		c1.8-0.7,2.8-2.4,4.2-3.6c1.1-0.9,1.9-2.3,3.7-1.8c0.2,2.2,0.5,4.3-1.3,6.1c-6.1,6.5-10,14.6-15.7,21.3c-6.9,8.1-5,8.3-13.1,0.8
		c-3-2.8-5.3-6.2-7.6-9.5c-2.5-3.6-5-7.1-7.8-10.5c-3.8-4.5-9.5-7.9-8.4-15.7c-2.3,1.6-1.3,3.2-2,4.4c-2.5-2.6,0.1-5.5-0.7-8.2
		c-1.1-0.2-1.1,0.9-1.5,1.5C119.5,88.9,119.2,88.9,118.9,88.6z"/>
	<path class="st5" d="M120.7,65.9c-2.3,7.7-4.3,14.6-6.6,21.4c-0.9,2.5,0.4,6.1-1.5,7.2c-1.8,1-4.9-0.8-7.4-0.8
		c-14.1-0.4-26.4,8.4-31.7,22.5c-0.4,1.1-0.8,2.3-1.2,3.6c-1-3.9-2-24.5-1.5-27.8c0.2-1.2,0.7-2,1.7-2.7
		C87.2,79.4,102.8,71.3,120.7,65.9z"/>
	<path class="st25" d="M235,119.7c-11.7-22.9-21.4-28.7-41.4-24.9c0.3-8-3.7-14.9-5.4-22.4c-0.2-1.1-0.6-2.1-1-3.1
		c-0.9-2.6-0.1-3.1,2.5-2.3c10.2,3.4,20,7.7,29.4,13c5,2.8,9.8,5.9,14.7,8.8c1.5,0.9,2.3,2,2.3,3.9C236,101.7,236,110.7,235,119.7z"
		/>
	<path class="st0" d="M177.8,98.4c-2.8,1.4-3.8,5.1-7.3,5.7c-0.9-1.8,0.1-3.4,0.7-5.1c3.8-10.1,2.1-19.4-4.2-28.1
		c-1.1-1.5-3.6-3.6-1.8-5.1c2-1.7,3.8,1,5.1,2.6c1.8,2,3.2,4.4,4.1,6.9c-0.5-0.3,0.5,0,0.1,0.3c-0.4,0.4,0.1,0.9,0.1,0.3
		c-0.1-1-0.5-2-0.9-3c-0.7-3.4-2.1-6.6-1.9-10.3c0.2-3.2-2.6-5.2-4.8-7.2c-1.4-1.3-3.1-2.2-4.2-3.8c-0.4-0.7-1-1.4-0.4-2.2
		c0.5-0.8,1.4-0.5,2.2-0.4c1.3,0.1,2.2,1.7,3.7,1c0.1-0.3,0.3-0.5,0.5-0.6c4.9,3.6,8.6,8,10.1,14.2c1.4,5.7,3.7,11.3,4.6,17.1
		c-2-0.1-0.9,1.2-0.8,1.9c0.8,2.6,1.7,5.1,2.5,7.6c0.5,0.9,0.6,1.7-0.8,1.6c-2.2,1.2-0.1,3.4-1.1,4.9c-0.7-0.5-1.4-1-2.1-1.5
		c-0.9,0.8-0.9,2.4-2.5,2.5C178.4,97.9,178.1,98.2,177.8,98.4z"/>
	<path class="st29" d="M83.8,114c2-0.5,3.9-1.1,5.9-1.5c1.7-0.3,2.8,0.1,2,2.2c-1.7,4.4-2.8,9.1-5.3,13.1c-0.7,1-1.3,1.9-2.3,2.5
		c-1.7,2.7-3.4,5.4-5.2,8.1c-0.8,0.1-1.2-0.1-0.8-1c1.1-5,3.6-9.3,5.7-13.9c0.6-1.4,3.2-3.2-0.3-4.5c-0.1,0,0.3-1.2,0.5-1.9
		C81.5,115,81.5,114.8,83.8,114z"/>
	<path class="st30" d="M83.8,114c-2.6,1.1,1.5,2.1,0.1,3.2c-4.1,1.4-4.9,5.9-7.8,8.6c0.6-13.3,11-24.7,23.3-25.8
		c-4.7,4.1-10.1,7.4-14.3,12C84.5,112.7,83.9,113.2,83.8,114z"/>
	<path class="st31" d="M156.1,158.8c-0.4,0.3-0.7,0.6-1.1,0.8c-4.8-1.5-9.4-0.9-13.9,0.9c1.5-4.9,2.1-5.3,6.8-4.1
		C150.7,157.1,153.4,158,156.1,158.8z"/>
	<path class="st32" d="M128.1,161.3c3.6-0.1,6.9,0.9,10.1,2.5c-3.7,1.1-7.3,0-10.9-0.8C126.7,162.1,127.3,161.6,128.1,161.3z"/>
	<path class="st33" d="M224.4,114.9c-2.5-2.3-5.1-4.6-7.6-6.9c3.8,0.7,6.3,3.1,8.5,6C225,114.2,224.7,114.5,224.4,114.9z"/>
	<path class="st34" d="M227.6,137.8c-1.6-2.4-3.2-4.9-4.8-7.3c0.2-0.2,0.4-0.3,0.5-0.5c1.2,0.9,2.4,1.8,3.5,2.7
		c0.5,0.9,0.9,2,1.6,2.7C229.9,136.9,228.5,137.2,227.6,137.8z"/>
	<path class="st35" d="M138.5,161.1c-3.3-0.8-6.2-1.5-9.1-2.2C132.6,158.4,136,157.1,138.5,161.1z"/>
	<path class="st36" d="M178.7,97.7c0.5-1.2,1.3-2,2.5-2.5c0,0.7,0,1.3-0.1,2c-0.1,0.9,0.5,2.2-0.7,2.4
		C179.4,99.8,179.3,98.4,178.7,97.7z"/>
	<path class="st37" d="M130.2,155.6c1.9-1,3-0.9,4.3,0.1C133.1,156.8,132,156.3,130.2,155.6z"/>
	<path class="st38" d="M184.5,91.8c0.3-0.5,0.5-1.1,0.8-1.6c1.2,1.3,0.8,2.9,1.8,5C184.8,94.3,185.1,92.8,184.5,91.8z"/>
	<path class="st39" d="M118.9,88.6c0.3,0,0.6,0,0.9,0c0.1,1.5-0.3,2.8-1.1,4.4C117.8,91.3,118,89.9,118.9,88.6z"/>
	<path class="st40" d="M140,156c-1.4,1.6-2.4,1.3-3.6,0.6C137.3,154.9,138.5,155.9,140,156z"/>
	<path class="st41" d="M78,137.4c0.3,0.3,0.5,0.6,0.8,1c-0.5,1-0.5,2.4-2,2.8C76.9,139.8,77.2,138.5,78,137.4z"/>
	<path class="st42" d="M84,130.4c0.5-1.1,1-2.2,2.3-2.5c-0.1,1.3-0.7,2.4-1.6,3.3C84.5,130.9,84.3,130.6,84,130.4z"/>
	<path class="st43" d="M128.1,161.3c-0.3,0.6-0.6,1.2-0.8,1.8c-0.8-0.2-1-0.8-0.7-1.5C126.9,160.8,127.5,160.9,128.1,161.3z"/>
	<path class="st15" d="M186.2,236.8c0.9,2-1.1,1.9-2,2.2c-8.6,3.9-17.5,6.5-26.6,8.9c-3,0.8-5.8,0.6-8.8-0.1
		c-8.7-2.2-17.2-4.9-25.5-8.4c-1.1-0.4-3.3-0.1-2.8-2.5c4.1-0.2,8.1-1.4,12.3-1c3.4,0.1,6.7,0.7,10,1.4c8.4,1.8,16.7,1.2,25-0.7
		c2-0.4,4-0.7,6-0.6C178,235.4,182.1,236.6,186.2,236.8z"/>
	<path class="st15" d="M168.9,50.1c0.5,0.9,1,1.7,1.7,3.1c-2.9-1.3-4.8-3.2-8.2-3.8c3.1,4.2,8.1,5.9,9.8,10.3
		c1.7,4.2,0.8,8.9,2.4,13.2c0.2,1.2,1.3,2.6-0.8,3.3c-2.4-3.7-4.1-8-8.6-10.3c10,11.7,12.1,24.3,5.2,38.1c-1.6,2.4-3.3,4.8-4.9,7.2
		c-1.1,2.1-2.8,3.7-4.6,5.1c-5.8,4.8-11.8,4.2-16.7-1.6c-0.9-1-1.8-2-2.4-3.3c-1.9-2.5-3.7-5-5.6-7.5c-4.3-4.3-5.7-9.9-5.2-15.4
		c0.9-11.4,5.4-21.4,15.2-28.1c3.9-2.7,6.6-5.5,5.8-10.6c-0.2-1.4,0.5-2.6,1.1-3.9c0.6-2.7-0.6-5.5,0.8-8.1
		C160,40.9,165,44.8,168.9,50.1z"/>
	<path class="st0" d="M153.2,46.2c0,0.5,0.1,1.1,0.1,1.6c0.9,6.3-1,10.3-6.7,14.3c-10.7,7.5-20,22.7-10.4,41.9
		c-4.5-1.4-8.6-8.1-7.6-12.3c2-7.9,3.7-15.9,6.1-23.6C137.8,58.3,144.6,51.4,153.2,46.2z"/>
	<path class="st0" d="M141.9,111.5c11.2,9.5,11.3,9.5,23,0.2c0.2-0.2,0.5-0.3,0.7-0.4c-2.5,6-5.7,11.7-10.1,16.6
		c-0.8,0.9-1.5,2-2.5,0.7C148.7,123.2,143.8,118.3,141.9,111.5z"/>
	<path class="st44" d="M168.9,50.1c-5-4-9.9-8-14.9-12c0.4-0.2,1.1-0.8,1.3-0.7c5.3,3.1,10.5,6.3,13.6,12
		C168.9,49.6,168.9,49.9,168.9,50.1z"/>
	<path class="st45" d="M145.7,40c-4.1,4-8.1,7.8-11.6,11.2C136.2,46.5,140.4,43,145.7,40z"/>
	<path class="st46" d="M173.9,76.3c1-0.9,0.6-2.2,0.8-3.3c1.2,1.5,0.5,3.3,0.9,5C174.2,77.9,174.2,76.9,173.9,76.3z"/>
	<path class="st18" d="M149.6,87.6c3,3.7,4.5,3.7,7.5,0.2c0.9,5.1-1.6,6.9-8.2,4.6c7.8,5.8,3.1,12.9,4.8,19.4
		c-6.8-2.2-12.4-7.7-15.3-14.4c3.7-0.8,4.1-1.7,1.7-5.1c-0.9-1.3-1.8-2.3-0.2-3.8c1.5-1.5,2.5-0.8,3.7,0.4
		C146.1,91.5,148.1,90.4,149.6,87.6z"/>
	<path class="st3" d="M148.7,77c-0.3-0.1-0.8-0.2-1.1-0.4c-5.1-3.5-5.2-4.4-0.7-8.7c6.5-6.2,6.5-6.2,12.9,0.1c4.7,4.7,4.4,5.9-2.2,9
		c-0.2-1.2-0.3-2.4-0.5-3.7c-2.5,0.7-1,4.6-3.8,4.6c-2.9,0-1.4-3.9-3.6-4.7C148.6,74.3,149.9,76,148.7,77z"/>
	<path class="st47" d="M146,82.7c-3.2,0.4-5.4-0.1-6.4-2.9c-0.3-0.7,0-1.4,0.9-1.4C143.4,78.2,144.8,80,146,82.7z"/>
	<path class="st48" d="M162.3,82.7c0.8-2.8,2.4-4.3,5-4.2c1.1,0,1.2,0.8,0.9,1.8C167.7,82.1,166.1,82.8,162.3,82.7z"/>
</g>
</svg>
