<svg xmlns="http://www.w3.org/2000/svg" viewBox="0 0 136.57 112.55"><path d="M81,31.13c-.4,2.54-3.66,4.07-6,4.79A91.27,91.27,0,0,0,51.74,47.4a4.38,4.38,0,0,0-2.2,4c.28,9.75.61,19.49,1.86,29.17.32,2.46.63,4.93,1,7.39-2.44.87-2.93.62-3.31-1.8-1.13-7.3-1.64-14.65-2-22-.24-4.3-.15-8.6-.37-12.89a6.59,6.59,0,0,1,3.14-6.14A90,90,0,0,1,78.09,31.82C78.5,31.71,80.52,30.76,81,31.13Z" transform="translate(-24.81 -20.01)" style="fill:#3a3b88"/><path d="M134.82,88.4a288,288,0,0,0,2.84-36.52,4.94,4.94,0,0,0-2.48-4.67,91.2,91.2,0,0,0-23.87-11.57c-1.9-.57-4.63-2-4.84-4,.63-.71,2.87.25,3.59.44a84.52,84.52,0,0,1,21.75,9.46,57.52,57.52,0,0,1,6.41,4.21,5.58,5.58,0,0,1,2.27,4.49A217.48,217.48,0,0,1,139.36,75c-.35,3.53-.68,7.06-1.24,10.58C137.68,88.36,137.74,88.37,134.82,88.4Z" transform="translate(-24.81 -20.01)" style="fill:#3a3b88"/><path d="M56.7,118.61s-5-.53-5.45,1.42a5.17,5.17,0,0,0,2.42,5c1.15.41.94,7.54.94,7.54l10.58-3.09s-4.52-1.42-5.46-3.57S56.7,118.61,56.7,118.61Z" transform="translate(-24.81 -20.01)" style="fill:#21224e"/><path d="M129.59,118.28s5-1.11,5.69.82a5.27,5.27,0,0,1-1.9,5.33c-1.12.54-.11,7.76-.11,7.76l-11.08-2s4.42-1.94,5.14-4.23S129.59,118.28,129.59,118.28Z" transform="translate(-24.81 -20.01)" style="fill:#21224e"/><path d="M75.76,65c-.62-.54-.87-1.45-1.84-1.81-.07.75.43,1.2.73,1.74-1.16,1.25-2.8,1.26-4,1.77,1.73.57,3.9,1,5.08,3.11.06.71.61,1.31.4,2.07-1.34,1.09-3,.32-4.47.76-1.05.32-2.61,0-3,1.16s1.15,1.61,1.89,2.32c1.16,1.12,2.24,2.3,3.3,3.52.65.76.77,1.54-.09,2.05C70.64,83.51,68,86,65.3,88.38H58.37c-.36-1.73.93-2.67,1.85-3.77a10.44,10.44,0,0,1,2-1.63c.66-.48,2-.51,1.86-1.52S62.81,80.23,62,79.85a24,24,0,0,0-2.5-.76c-1.89-.59-2.21-1.16-1.72-3.13a27.71,27.71,0,0,1,1.43-3.74c.25-.51.8-.93.44-1.6a7.22,7.22,0,0,1,.44-1.89c.72-1.59,1.23-3.26,1.89-4.87.52-1.28.4-2-1.24-1.46a1.61,1.61,0,0,1-1.54-.16c-.49-.78,0-1.25.52-1.72a21.22,21.22,0,0,1,7.19-5.29c1.64-1,3.39-.28,4.86.14,5.23,1.46,9,4.88,11.75,9.56a1.57,1.57,0,0,1-1.2.6,4.81,4.81,0,0,1-1.69-.09C79,64.9,77.36,65.28,75.76,65Z" transform="translate(-24.81 -20.01)" style="fill:#2b2c64"/><path d="M59.18,72.22c.16,1.46-.51,2.77-.94,4.06-.53,1.61.11,2,1.43,2.27a9.22,9.22,0,0,1,5.19,2.36c.68.68,1.11,1.17-.24,1.61a10.37,10.37,0,0,0-6.25,5.86c-.69-.12-1.46.22-2-.39.27-3.4,2.79-5,5.32-6.59-1.68-.79-1.68-.79-6.84.4C55.92,78.31,57,75,59.18,72.22Z" transform="translate(-24.81 -20.01)" style="fill:#9d4292"/><path d="M65.3,88.38c1.64-3.21,4.67-4.93,7.54-6.72,1.44-.9,1.21-1.38.2-2.28a43.26,43.26,0,0,0-4.29-3.94c-.57-.38-1.41-.87-1.26-1.68s1.16-1,1.91-1.21a19.73,19.73,0,0,1,6.75-.71c.19,1.08-.42,1.2-1.3,1.17a11.86,11.86,0,0,0-5.26.63,48.73,48.73,0,0,1,5.64,7.07c.49.72.56,1-.42,1.38-3.19,1.14-5.29,3.59-7.11,6.31Z" transform="translate(-24.81 -20.01)" style="fill:#393a87"/><path d="M128.74,62.56c1.27,2.17,3,4.12,3.31,7.38-1.68-1.9-2.57-3.91-4.75-5.09.73,2.46,2.32,4.25,2.65,6.52,0,.37-.85-.27-.46.39a4.59,4.59,0,0,1,.83,2.15,38.41,38.41,0,0,1,1.65,6c.16,1.26.17,2-1.6,1.53-1.43-.4-3-1.11-4.74,0,2.59,1.79,5,3.56,6,6.6-.4.59-.83.22-1.25,0-.77-.42-.77-.42-.82.41l-9.79-.06a5.85,5.85,0,0,0-2.08-1.16c-2.66-1-2.92-1.34-2.92-4.23a4.57,4.57,0,0,0-.1-1.38,4,4,0,0,1-.13-.9c.56-.92,1.68-1.37,2.09-2.43-.56-.25-.66-.6-.26-1.07a4,4,0,0,0,1-1.44l.75-.78a1.44,1.44,0,0,0,1.24-1.16.76.76,0,0,1,.06-.26c-1.59-.85-3.36-.76-5.07-1-.78-.11-1.64,0-2.23-.71,1.16-2.17,2.59-4,5.5-4.51l-1.45-.81c-.95-1.15-2.53-.82-3.65-1.56.21-.75,1-1.24,1-2.26-1.14.48-1.44,1.63-2.24,2.24a53.13,53.13,0,0,1-6.64.86,1.55,1.55,0,0,1-1.45-.44c3.16-4.92,7-8.93,13-10.28,4.64-1.06,12.15,1.89,14,7.76l-1.06-.71c-1.28-.39-1.82-1.74-2.83-2.22A6.44,6.44,0,0,1,128.74,62.56Z" transform="translate(-24.81 -20.01)" style="fill:#2e306c"/><path d="M129.57,88.4l-1.35-2.78c1.31.69,1.6,1.66,2.17,2.37A.88.88,0,0,1,129.57,88.4Z" transform="translate(-24.81 -20.01)" style="fill:#161520"/><path d="M75.75,69.77a22.61,22.61,0,0,0-5.82-2.89c1.39-1.39,3.08-1.64,4.72-2,.64.86.64.86.08,1.92-.2.37.11.62.23.92A5.85,5.85,0,0,1,75.75,69.77Z" transform="translate(-24.81 -20.01)" style="fill:#393a86"/><path d="M80.65,64.94h1.61c.51.34,1.32.08,1.65.79,1.5.74,1.78,2.4,2.71,3.58.62.78,1.16,1.62,1.73,2.44,3.1,1.2,3.29,3.73,3,6.51-.1,1,0,2,0,3,0,.66-.28,1-1,.66-3,.91-6-.89-9.12-.19.2-.83,1.18-1.9-.73-2-.59,0-.61-1.09-.6-1.76a9.18,9.18,0,0,0-1-4.46C77.46,71,77.5,68,76.16,65.39c0-.91.69-.64,1.13-.63A10.53,10.53,0,0,1,80.65,64.94Z" transform="translate(-24.81 -20.01)" style="fill:#3a3b88"/><path d="M80.65,64.94c-1.49.22-3.07-.46-4.49.45-.13-.14-.27-.28-.4-.43A6.33,6.33,0,0,1,80.65,64.94Z" transform="translate(-24.81 -20.01)" style="fill:#393a86"/><path d="M83.91,65.74,82.26,65l1.23,0Z" transform="translate(-24.81 -20.01)" style="fill:#393a86"/><path d="M90.33,81.94c.68-.12.81-.59.81-1.19,0-2,0-3.9,0-5.86a1.58,1.58,0,0,0-1-1.57,2.84,2.84,0,0,1-1.76-1.56c2.5.78,3.6,2.38,3.21,5.07a37.78,37.78,0,0,0,0,4.39C91.5,82,91.28,82.62,90.33,81.94Z" transform="translate(-24.81 -20.01)" style="fill:#2c2e66"/><path d="M103.26,65.33c2-.27,4-.57,6-.76a2.48,2.48,0,0,1,2.12.34c-1.82,2.71-1.65,5.76-1.42,8.78.08,1.21,0,2.43.22,3.61a7.31,7.31,0,0,1-3,7.17,3.55,3.55,0,0,1-3.73,1,43.23,43.23,0,0,0-5.27-1.33c-1.2-.23-1.49-.83-1.46-2,.06-2.49,0-5,0-7.47,0-.75,0-1.54.71-2,1.7-1,2.67-2.62,3.76-4.14a29.51,29.51,0,0,0,2.07-3.23Z" transform="translate(-24.81 -20.01)" style="fill:#3a3b88"/><path d="M103.27,65.33a5.06,5.06,0,0,1-2.07,3.23A7.07,7.07,0,0,1,103.27,65.33Z" transform="translate(-24.81 -20.01)" style="fill:#2e306c"/><path d="M112.56,64.93c1.36.18,2.86,0,3.65,1.56C115.08,65.78,113.44,66.25,112.56,64.93Z" transform="translate(-24.81 -20.01)" style="fill:#343578"/><path d="M112.16,71.81c2.56,0,5.2-.27,7.3,1.72a26.64,26.64,0,0,0-8.2.38A3.28,3.28,0,0,1,112.16,71.81Z" transform="translate(-24.81 -20.01)" style="fill:#383984"/><path d="M115,81c.68.8.44,1.78.4,2.67-.06,1.65.44,2.65,2.27,2.77,1.08.07,2.13.44,2.11,1.87-1.41.29-2.66-.39-4-.68a2.65,2.65,0,0,1-2-.38l-1.14-.19A6.54,6.54,0,0,1,115,81Z" transform="translate(-24.81 -20.01)" style="fill:#9a4290"/><path d="M115,81c-1.3,1.82-1.74,4-2.37,6.06-.5.06-1.22-.11-1-.57,1-2,.27-4.75,2.92-5.85Z" transform="translate(-24.81 -20.01)" style="fill:#3a3881"/><path d="M117.88,75.73c.34,1-1.42,1.4-.78,2.51-.44-.12-.92.57-1.28,0s.22-.72.48-1C116.8,76.75,117.35,76.25,117.88,75.73Z" transform="translate(-24.81 -20.01)" style="fill:#333477"/><path d="M119.86,73.79c.06.94-.32,1.3-1.23,1.16Z" transform="translate(-24.81 -20.01)" style="fill:#35367c"/><path d="M56.32,88a4.57,4.57,0,0,1-4,0,3.27,3.27,0,0,1-1.06-2.52A202.45,202.45,0,0,1,49.2,60.14c0-2.55-.44-5.08-.44-7.65a6.78,6.78,0,0,1,3.37-6.21A92.17,92.17,0,0,1,74.2,35.5a11.54,11.54,0,0,0,5.23-3.72,34.44,34.44,0,0,1,11.35-11,5.14,5.14,0,0,1,5.54,0A33.35,33.35,0,0,1,108,32.23c1.53,2.46,4.21,2.89,6.64,3.76A97.25,97.25,0,0,1,135.5,46.62,5.89,5.89,0,0,1,138.37,52a282.5,282.5,0,0,1-2.52,34,3.62,3.62,0,0,1-1,2.35c-1.07-.11-2.2.25-3.18-.44-1.93-1.93-3.54-4.15-5.75-5.85-1.08-.83-.09-1.54.84-1.78a6.51,6.51,0,0,1,3,.26c1.29.29,1.66,0,1.47-1.4C131,77.44,130,75.9,130,74.12c.68-1.05-.24-1.79-.51-2.66a33.12,33.12,0,0,0-2.06-4.78c-.25-.58-.78-1.31,0-1.8s1.25.18,1.75.61A9.29,9.29,0,0,1,131,67.63c-.41-1.82-2.25-3-2.46-5.08a1,1,0,0,1,.44-.63c.35-1-.48-1.43-1-2-5.24-5.76-12.67-6-18.71-.7a31.37,31.37,0,0,0-5.44,5.95,3.88,3.88,0,0,1-.3.48,13.71,13.71,0,0,0-2,3.41,7.81,7.81,0,0,1-2,2.73,4.84,4.84,0,0,0-2,4.74c.1,1.6,0,3.22,0,4.83a2,2,0,0,0,1.79,2.26c.79.16,1.56.39,2.35.59,4.8,1.21,7.81-1.23,7.89-6.25,0-2.36-.46-4.68-.44-7a10.44,10.44,0,0,1,1.74-6.1A15.09,15.09,0,0,1,112.23,63c.42-.41.88-1,1.51-.48s.23.95,0,1.43c-.1.24-.23.48-.31.72.79,1,2.15.78,3.12,1.39.52.27,1.26.42,1.27,1.12s-.64.81-1.13,1c-2,.71-3.06,2.31-4.09,4-.45.81,0,.87.66.81a18,18,0,0,1,6,.17,1,1,0,0,1,.35.45c0,.78-.57,1.18-1,1.7-.32.32-.65.64-1,1-.31.7-1.92.83-.91,2.11,0,1.3-1.15,1.86-1.87,2.68-2.07,1-1.81,3.21-2.45,4.94-.13.34.26.56.6.66s.77.3.85.77c-.37.79-1.11.53-1.73.6a34.34,34.34,0,0,1-10.27-1.47c-2.25-.6-4.53-1.08-6.79-1.63-1.33-.37-2.65-.79-4-1.16-1.59-.44-2.75-.13-3.06,1.71-.3.86-.16,1.88-1,2.53a1,1,0,0,1-1.19,0c-2,.5-4-.38-6,0-1.24.77-2.6.33-3.91.37-2.74.07-5.49,0-8.24,0-.35-1,.37-1.66.92-2.29a14,14,0,0,1,4.9-4.1c1.24-.52,1.23-1.16.47-2.12C72.7,78.26,71.45,76.6,70.07,75s-1.06-1.89.78-2.38a16.29,16.29,0,0,1,3.82-.23c.46,0,.77-.17.86-.64A8.55,8.55,0,0,0,75.21,70c-.93-1.5-.5-3.29-1.08-4.85a3.14,3.14,0,0,1-.39-.69c-.19-.49-.46-1.07.06-1.44s1,.1,1.38.43a7.33,7.33,0,0,1,1,1.22,5.47,5.47,0,0,1,.52.74c1.41,3.95,3,7.83,3.77,12A4.47,4.47,0,0,0,84.16,81a17.9,17.9,0,0,0,6,.3c.26-.07.61-.16.64-.41a18.56,18.56,0,0,0,0-6.73c-.25-1.07-1.64-1.26-2.45-1.92-2-1.73-2.84-4.35-4.61-6.27A9.11,9.11,0,0,1,83,65c-2.47-3.51-5.3-6.61-9.35-8.32a11.27,11.27,0,0,0-6.67-1c-6,1-9.33,4.81-10.83,10.19.86-.74,1.06-2.75,3.13-2.26,1.14,1.28.93,2.5.13,4a51.8,51.8,0,0,0-2.72,6,1,1,0,0,1-.25.42c.07,0,.12,0,.16-.18.58-1.45,1-3,2.53-3.77a.84.84,0,0,1,.78.34c.55.87.07,1.53-.42,2.19-1.78,2.41-2.57,5.24-3.81,8.15a26.59,26.59,0,0,0,3.5-.44,3.56,3.56,0,0,1,2.16.27c.81.41.93.92.22,1.53a17.33,17.33,0,0,1-2.13,1.53C57.78,84.67,57.62,86.73,56.32,88Z" transform="translate(-24.81 -20.01)" style="fill:#100f0d"/><path d="M104.14,88.36c-3.27-1.14-6.31-2.89-9.73-3.66,0-.42.12-.59.54-.41,4.72,1,9.43,2,14.16,3a29.39,29.39,0,0,0,3,.3c.89.62,2-.5,2.89.41-2.46.72-5,.17-7.47.32C106.4,88.43,105.27,88.36,104.14,88.36Z" transform="translate(-24.81 -20.01)" style="fill:#97418e"/><path d="M113.77,87.28c.73-.16,1.36.26,2,.38L115,88c-1-.14-2,.12-2.89-.41C112.66,87.54,113.29,87.73,113.77,87.28Z" transform="translate(-24.81 -20.01)" style="fill:#121113"/><path d="M87.08,88a5.52,5.52,0,0,1,.45-2.84c2.1-2.3,4.53-1.26,6.92-.72a42.41,42.41,0,0,1,8.29,2.74c.57.26,1.34.33,1.4,1.2-5.12,0-10.24,0-15.36,0C88.19,88.4,87.55,88.5,87.08,88Z" transform="translate(-24.81 -20.01)" style="fill:#2e306b"/><path d="M79.85,88c.05-.65.4-.65,1-.57,1.68.24,3.38.39,5.08.58A9.89,9.89,0,0,1,79.85,88Z" transform="translate(-24.81 -20.01)" style="fill:#2a2a5d"/><polygon points="120.75 91.83 17.34 91.83 0 67.64 136.57 67.64 120.75 91.83" style="fill:#21224e"/><path d="M39.51,101.67v-.11s0-.09,0-.12V100H43.9a.29.29,0,0,0,.13,0h.12a3.34,3.34,0,0,0,.41,0h.14a.66.66,0,0,0,.21,0h.15a1,1,0,0,0,.28-.06.3.3,0,0,0,.2-.21.23.23,0,0,0,0-.07v-.1c0-.07-.08-.11-.19-.13a1,1,0,0,0-.22,0H41.86l-.29,0h-.46l-.18,0-.15,0a1.46,1.46,0,0,1-.3-.07,1.21,1.21,0,0,1-.36-.18l0,0a1.17,1.17,0,0,1-.28-.21s0,0,0,0l-.05,0,0,0a.55.55,0,0,1-.15-.24,1.85,1.85,0,0,1-.15-.48.22.22,0,0,1,0-.09.46.46,0,0,0,0-.09,1.23,1.23,0,0,0,0-.17v-.23a1.81,1.81,0,0,1,.13-.6,2.68,2.68,0,0,1,.16-.34.58.58,0,0,1,.08-.1l.07-.08A3.2,3.2,0,0,1,40,96l.16-.09.17-.09a1.77,1.77,0,0,1,.46-.17l.26-.06.19,0a.9.9,0,0,1,.21,0h2.71a1.48,1.48,0,0,0,.29,0h.08s.06,0,.06,0H48V96c0,.22,0,.36,0,.4s0,.45,0,.8H46l-.16,0H43.43a1,1,0,0,0-.25,0,0,0,0,0,1,0,0h-.59a.28.28,0,0,0-.19.07.32.32,0,0,0-.11.17.24.24,0,0,0,0,.12.23.23,0,0,0,.16.14h.83l.22,0a4.26,4.26,0,0,0,.63,0h1.47a.86.86,0,0,1,.23,0h.66l.25,0,.24,0a2.28,2.28,0,0,1,.44.14,1,1,0,0,1,.23.12l.14.09.14.09.07.07a1.93,1.93,0,0,1,.23.26.86.86,0,0,1,.18.34.93.93,0,0,0,0,.1.58.58,0,0,1,0,.1,1.15,1.15,0,0,1,0,.22,4.5,4.5,0,0,1,0,.53s0,.08,0,.11,0,.11,0,.23a1.83,1.83,0,0,1-.07.26,3.33,3.33,0,0,1-.25.42,1.36,1.36,0,0,1-.24.24l-.1.1a1,1,0,0,1-.35.23l-.18.07-.18.06a.78.78,0,0,1-.22,0h-4l-.11,0h-.61l-.26,0H39.55Z" transform="translate(-24.81 -20.01)" style="fill:#fff"/><path d="M52.38,95.71v.06a2,2,0,0,1,0,.31,1,1,0,0,0,0,.23c0,.09,0,.25,0,.46a2.68,2.68,0,0,1,0,.34s0,.11,0,.21v.21a0,0,0,0,1,0,0l0,0,.51-.33.09,0,.08-.06.15-.08.14-.09.1-.06.09-.06.12-.07.11-.06.53-.35.07,0,.08-.05.07,0,.11-.07.11-.06a1.65,1.65,0,0,0,.22-.16l.33-.2,0,0a3.24,3.24,0,0,1,.42,0h3.7v0l-.13.1-.21.13-.26.15-.07,0s-.05,0-.07,0a2.54,2.54,0,0,1-.38.23l-.18.11a.4.4,0,0,0-.14.09,4.36,4.36,0,0,0-.46.27l-.1.06-.1.08-.34.2-.15.08-.14.08-.46.29-.25.15-.1.06-.18.12-.18.13-.14.07-.11.07-.09.06-.1.06-.27.13s0,0-.06,0l0,0a.8.8,0,0,1,.16.13l0,0,0,0,.15.11.13.08.38.25a.73.73,0,0,0,.19.11l.18.11a1.93,1.93,0,0,0,.24.14l.25.15a3,3,0,0,1,.44.27l.23.14s0,0,0,0h0a5.32,5.32,0,0,1,.47.3s0,0,.1.07l.1,0,.18.13a3.68,3.68,0,0,0,.4.25l.43.24s0,0,.06,0l.05,0,.23.14.16.09.32.19.1.07s0,0,0,0h-.42l-.12,0H55.61l-.11-.07-.08,0a1.56,1.56,0,0,1-.19-.14l-.12-.09L55,101.3l-.25-.17-.29-.17h0l-.17-.1-.16-.1-.16-.12-.16-.11-.07,0-.21-.14-.13-.08-.1-.07-.16-.12L53,100a.64.64,0,0,0-.16-.1l-.15-.11-.15-.1-.07-.07a.08.08,0,0,1,0,0h0v.78c0,.23,0,.4,0,.51a1.86,1.86,0,0,1,0,.26v.32a.39.39,0,0,0,0,.13v.11h0a.07.07,0,0,1-.06,0h-2.5a.08.08,0,0,1-.06,0,.69.69,0,0,1,0-.25c0-.06,0-.27,0-.61,0,0,0-.11,0-.2s0-.16,0-.21v-.31a2.19,2.19,0,0,0,0-.29V98.05c0-.07,0-.16,0-.29v-.11a.44.44,0,0,1,0-.13v-1c0-.1,0-.17,0-.22a.08.08,0,0,1,0,0v-.06a1,1,0,0,0,0-.21v-.07c0-.11,0-.2,0-.25a.05.05,0,0,1,0,0l.44,0h.57a2.77,2.77,0,0,1,.4,0h1l.09,0h.1Z" transform="translate(-24.81 -20.01)" style="fill:#fff"/><path d="M63.77,95.51a.05.05,0,0,0,0,0,1.23,1.23,0,0,0,0,.17v.18c0,.1,0,.41,0,.93,0,.06,0,.16,0,.29a2.19,2.19,0,0,1,0,.29c0,.06,0,.09,0,.13v.27c0,.12,0,.21,0,.27s0,.28,0,.62,0,1.2,0,2.71a.84.84,0,0,1,0,.19.07.07,0,0,1-.06.08H63.3l-.17,0H61.24a.13.13,0,0,1-.08,0v-.43c0-.09,0-.23,0-.4a1.25,1.25,0,0,0,0-.24c0-.12,0-.28,0-.48v-.47c0-.16,0-.38,0-.65v-.83a1.36,1.36,0,0,0,0-.18s0-.09,0-.17a2.27,2.27,0,0,0,0-.29c0-.09,0-.22,0-.39v-.48c0-.33,0-.5,0-.5s0-.31,0-.55v-.07a.08.08,0,0,1,.08-.05h1l.21,0h.42a.17.17,0,0,1,.1,0h.83Z" transform="translate(-24.81 -20.01)" style="fill:#fff"/><path d="M67.67,95.66a.13.13,0,0,1,0,.08v.65a1.79,1.79,0,0,1,0,.21v.19a.68.68,0,0,0,0,.12v.15s0,.23,0,.54a3.44,3.44,0,0,0,0,.35s0,.13,0,.25v1.92l.06,0h.38l.17,0H69.5l.18,0a1.93,1.93,0,0,1,.34,0h.76a.94.94,0,0,0,.24,0h2a.22.22,0,0,1,.1,0v.16c0,.15,0,.6,0,1.35v0a.05.05,0,0,1-.05,0H71.36a0,0,0,0,1-.06,0H65.12v-.06a.89.89,0,0,0,0-.13v-.31c0-.14,0-.35,0-.64s0-.49,0-.63,0-.29,0-.53v-.53c0-.11,0-.28,0-.52a3.66,3.66,0,0,1,0-.37v-.37a.57.57,0,0,1,0-.12V97c0-.21,0-.37,0-.48v-.43c0-.19,0-.33,0-.43a0,0,0,0,1,0,0v0h.69a.11.11,0,0,0,.08,0h1.85Z" transform="translate(-24.81 -20.01)" style="fill:#fff"/><path d="M77,95.66a.24.24,0,0,1,0,.08v.86a1.58,1.58,0,0,0,0,.19s0,.06,0,.12a.38.38,0,0,1,0,.15s0,.23,0,.54c0,.15,0,.26,0,.35a1.56,1.56,0,0,1,0,.25c0,.06,0,.22,0,.5v.62a1.31,1.31,0,0,0,0,.17v.63l.07,0h.38l.16,0h1.19l.17,0a1.93,1.93,0,0,1,.34,0h.76a1,1,0,0,0,.25,0h2a.26.26,0,0,1,.11,0v.16c0,.15,0,.6,0,1.35v0a.07.07,0,0,1-.06,0H80.72s0,0-.07,0H74.47v-.06c0-.08,0-.12,0-.13v-.95c0-.28,0-.49,0-.63s0-.29,0-.53v-.53c0-.11,0-.28,0-.52a3.12,3.12,0,0,1,0-.37v-.49a.46.46,0,0,0,0-.1c0-.07,0-.2,0-.41s0-.37,0-.48v-.93h.7a.11.11,0,0,0,.08,0h1.84Z" transform="translate(-24.81 -20.01)" style="fill:#fff"/><path d="M90,95.51l0,0a1.23,1.23,0,0,0,0,.17v.18c0,.1,0,.41,0,.93,0,.06,0,.16,0,.29v.69c0,.12,0,.21,0,.27s0,.28,0,.62,0,1.2,0,2.71a1.67,1.67,0,0,1,0,.19c0,.05,0,.07-.07.08H89.5l-.18,0H87.43a.09.09,0,0,1-.07,0v-.43c0-.09,0-.23,0-.4s0-.19,0-.24,0-.28,0-.48v-.47c0-.16,0-.38,0-.65v-.64a1.58,1.58,0,0,1,0-.19V98s0-.09,0-.17a2.27,2.27,0,0,0,0-.29c0-.09,0-.22,0-.39v-.48a3.8,3.8,0,0,0,0-.5c0-.12,0-.31,0-.55v-.07a.09.09,0,0,1,.08-.05h1l.21,0h.43a.14.14,0,0,1,.09,0H90Z" transform="translate(-24.81 -20.01)" style="fill:#fff"/><path d="M91.28,101.73a.07.07,0,0,1,0-.06v-.17a.08.08,0,0,1,0,0v-1a1.48,1.48,0,0,1,0-.23,1.77,1.77,0,0,1,0-.19c0-.08,0-.14,0-.17s0-.16,0-.3h0v-.47a3.52,3.52,0,0,1,0-.44c0-.12,0-.3,0-.55v-.31c0-.09,0-.22,0-.39s0-.31,0-.4v-.2c0-.06,0-.12,0-.15v0a0,0,0,0,0,0,0v-.78a.18.18,0,0,1,0-.06v-.06h2.62a.2.2,0,0,1,.14.05l.22.18a2,2,0,0,1,.26.19s0,0,.08.07l.15.13.16.13a1.2,1.2,0,0,0,.2.15,3.47,3.47,0,0,0,.33.26l.23.17.16.13a.86.86,0,0,1,.16.13l.06,0,0,0a2.37,2.37,0,0,0,.25.19l.16.13.16.13.23.21L97,98l.2.14.22.18.21.17.11.09.09.06.08.06.08.07.06.06.06,0V97.72a.82.82,0,0,0,0-.14v-.49a1.36,1.36,0,0,0,0-.18s0-.1,0-.18a2.3,2.3,0,0,0,0-.34V95.9a.71.71,0,0,0,0-.16.08.08,0,0,1,0-.06l.16,0h1.52a1.66,1.66,0,0,0,.27,0h.67v.52c0,.16,0,.37,0,.64v.64c0,.24,0,.43,0,.55s0,.56,0,1.23v1c0,.27,0,.47,0,.61a2.52,2.52,0,0,1,0,.37v.16a1.18,1.18,0,0,0,0,.16v.09a.32.32,0,0,0,0,.08.07.07,0,0,1,0,.06H98a.14.14,0,0,1-.09,0l-.1-.07a.45.45,0,0,1-.1-.09l-.09-.07-.1-.08a.29.29,0,0,1-.1-.06l-.13-.11-.13-.1L97,101l-.18-.16,0,0a.2.2,0,0,0-.09-.09l-.07-.06-.09-.07-.07-.06-.14-.11-.15-.12-.2-.16-.17-.13-.06,0,0,0-.22-.17-.14-.11-.1-.09c-.06,0-.09-.06-.1-.08l-.09-.08L95,99.3l-.11-.08-.39-.31a.38.38,0,0,0-.13-.09h0a1.12,1.12,0,0,0-.18-.14L94,98.48v0a3.66,3.66,0,0,1,0,.37v1a1.23,1.23,0,0,1,0,.31v.32c0,.2,0,.49,0,.87v.3H91.32Z" transform="translate(-24.81 -20.01)" style="fill:#fff"/><path d="M114.86,95.51s0,0,0,0,0,0,0,0,0,.37,0,.65v.65s0,.12,0,.23h-.15c-.24,0-.42,0-.54,0H114l-.17,0h-2.1a3.64,3.64,0,0,1-.66,0h-.35l-.22,0h-1.3a1.24,1.24,0,0,0-.27,0,1.66,1.66,0,0,0-.39.15.76.76,0,0,0-.27.32.91.91,0,0,0-.06.26s0,.05,0,.09,0,.07,0,.09v.15c0,.11,0,.19,0,.24a.43.43,0,0,1,0,0v.68a.75.75,0,0,0,.09.5l0,0,.06,0,.24.15.11,0,.21,0h.65l.29,0h1a3.38,3.38,0,0,1,.45,0h.79a.37.37,0,0,1,.13,0h.07c0-.06,0-.14,0-.26s0-.21,0-.27h-.75a1.34,1.34,0,0,1-.25,0h-.51l-.21,0h-.26V99.1c0-.07,0-.16,0-.29V98a.57.57,0,0,0,0-.12h1.67a1.2,1.2,0,0,0,.24,0h2.72v0s0,.08,0,.14,0,.11,0,.14v1s0,.27,0,.67v.77a.75.75,0,0,1,0,.11s0,0,0,.09,0,.06,0,.08a.66.66,0,0,1-.17.3,1.33,1.33,0,0,1-.35.27.79.79,0,0,1-.27.1h-.07l-.26,0h-1.42a.08.08,0,0,0-.07,0H107.7a2.1,2.1,0,0,1-.34,0h-.24l-.28-.07-.25-.12h0a1.87,1.87,0,0,1-.39-.24,1.11,1.11,0,0,1-.29-.28.17.17,0,0,0,0,0s0,0,0,0a.9.9,0,0,1-.15-.34,1.18,1.18,0,0,1,0-.25v0a.72.72,0,0,1,0-.17c0-.08,0-.14,0-.17V99.6a1.94,1.94,0,0,1,0-.27v-.26a2.27,2.27,0,0,0,0-.29s0-.14,0-.25a1.78,1.78,0,0,0,0-.26v-.64a1.49,1.49,0,0,1,0-.22v-.14a1.3,1.3,0,0,0,0-.25.56.56,0,0,0,0-.1.22.22,0,0,1,0-.09c0-.11,0-.18,0-.19a.8.8,0,0,1,.08-.17.53.53,0,0,0,.06-.13.84.84,0,0,1,.18-.23l.11-.11a2.29,2.29,0,0,1,.33-.24,1.29,1.29,0,0,1,.37-.15l.19,0,.19,0h.65l.21,0h1.56l.14,0h5.12s0,0,0,0Z" transform="translate(-24.81 -20.01)" style="fill:#fff"/><path d="M120.3,95.46h2.31s0,0,0,.05l.13.21.06.07s0,0,0,0l.1.14a.92.92,0,0,1,.11.15c0,.05.1.18.24.39l.36.56s0,0,0,.06l0,.07s0,0,0,0a.8.8,0,0,1,.16.21l.15.28a1.6,1.6,0,0,0,.15.25l.25.36.1.16a1,1,0,0,1,.1.14.66.66,0,0,1,.12.17l.06.08.06,0a0,0,0,0,0,0,0s0,0,0,0l.24.36a3.9,3.9,0,0,1,.22.36l.11.17s.09.15.22.36a2.94,2.94,0,0,0,.19.29l.09.11s0,.09.07.1a1.21,1.21,0,0,0,.1.16.76.76,0,0,0,.1.15c0,.09.15.22.28.4,0,0,0,0,0,.05l0,.07a.06.06,0,0,1,0,0h-3l-.05-.07-.08-.12-.09-.13-.11-.18a0,0,0,0,0,0,0s0,0,0,0l-.07-.1a.49.49,0,0,0-.08-.1s0,0,0,0l0,0,0,0a.05.05,0,0,1,0,0l-.07-.1a.37.37,0,0,1-.06-.1h-.75a7.1,7.1,0,0,1-.81,0h-1.63a1.44,1.44,0,0,0-.12.17.49.49,0,0,1-.07.11l-.06.08-.1.17a1.08,1.08,0,0,0-.11.18l-.14.21a0,0,0,0,0,0,0l-.11.17h-2.17l-.09,0h-.68l.1-.21c.1-.15.15-.24.16-.26s.1-.17.13-.22a.69.69,0,0,0,.06-.13,4.17,4.17,0,0,1,.31-.47l.1-.16.1-.15s.1-.15.23-.37l.19-.26.11-.17.11-.16.17-.26.16-.26.13-.2.09-.14a.48.48,0,0,1,.09-.13l.1-.15.1-.16a.48.48,0,0,0,.08-.12l.08-.13.09-.13.09-.13A2.2,2.2,0,0,0,119,97a1.14,1.14,0,0,1,.17-.27l.08-.13.16-.26.09-.15.08-.12.16-.24.08-.16a2.12,2.12,0,0,1,.13-.18ZM121.83,99a1.54,1.54,0,0,0-.17-.24.08.08,0,0,0,0,0,.09.09,0,0,1,0,0l-.07-.1a.35.35,0,0,1-.06-.09l0-.06a2.24,2.24,0,0,0-.13-.19l0,0,0,0a3.46,3.46,0,0,1-.29.4,2.64,2.64,0,0,0-.16.26s0,0-.07.11h1.11Z" transform="translate(-24.81 -20.01)" style="fill:#fff"/><path d="M138.1,101.77h-2.62v-1s0-.08,0-.14a.82.82,0,0,0,0-.14,2.21,2.21,0,0,0,0-.32v-.51a0,0,0,0,1,0,0v-.11l-.09.1-.16.22a.62.62,0,0,0-.09.12l-.16.19,0,.05-.05.09a.21.21,0,0,0,0,.06l0,0s0,0,0,0-.13.16-.16.2,0,0-.06.06l-.05.06s0,0,0,0,0,0,0,0,0,0-.07.11l-.1.13a3110353066833.26,3110353066833.26,0,0,0-.2.26l-.12,0h-2.4a.24.24,0,0,1-.08-.09l-.06-.09-.07-.1,0-.08a.74.74,0,0,1-.09-.12l-.14-.18-.09-.12-.07-.1a.39.39,0,0,1-.09-.11l-.11-.13a1.36,1.36,0,0,1-.12-.18l-.13-.17-.06-.06-.13-.16,0-.06,0,0s0,0,0,0v.09a.22.22,0,0,0,0,.09,1.86,1.86,0,0,0,0,.26v1.87H127.6s0,0,0,0v-.31a.88.88,0,0,1,0-.14v-.15c0-.11,0-.58,0-1.41a3.3,3.3,0,0,0,0-.39.1.1,0,0,1,0,0v-.11c0-.37,0-.59,0-.66v-.76c0-.09,0-.13,0-.13v-.12a.66.66,0,0,1,0-.13,1.79,1.79,0,0,0,0-.27V95.87a.81.81,0,0,1,0-.2.06.06,0,0,1,.06,0h.4a2.76,2.76,0,0,1,.39,0,4.32,4.32,0,0,0,.63,0h1.23l.08.08a5.39,5.39,0,0,1,.33.45,1,1,0,0,1,.1.14l.11.16c0,.06.08.1.1.14a1.92,1.92,0,0,1,.19.23,2.74,2.74,0,0,1,.2.26l.11.16a1.59,1.59,0,0,1,.11.16.1.1,0,0,1,0,0l0,0s.11.15.23.3l.28.37a2,2,0,0,0,.17.2l.11.15.13.16.1.13.1.11,0,0,.05-.06,0-.07.27-.36.11-.14.12-.15a1.42,1.42,0,0,0,.11-.16l.12-.16a.42.42,0,0,1,.06-.08l.07-.09.06-.08a.15.15,0,0,0,0-.06l0-.06a.56.56,0,0,1,.16-.2,1.33,1.33,0,0,0,.12-.16l.12-.15.06-.09.08-.09.1-.13.09-.12.15-.2.12-.16s.08-.1.13-.18a1.29,1.29,0,0,0,.13-.18c0-.07.08-.11.09-.11l0-.07a.09.09,0,0,0,0,0h2.73v.07a.18.18,0,0,1,0,.06v.57c0,.21,0,.37,0,.48s0,.33,0,.59V98a1.53,1.53,0,0,0,0,.18v.21c0,.23,0,.53,0,.91v.9c0,.15,0,.56,0,1.26v.13a.57.57,0,0,0,0,.12Z" transform="translate(-24.81 -20.01)" style="fill:#fff"/><path d="M139.55,95.55h4.25a2.9,2.9,0,0,0,.4,0h2.46c.25,0,.44,0,.57,0h.57v0a1.7,1.7,0,0,0,0,.21.45.45,0,0,1,0,.13,1.22,1.22,0,0,1,0,.22v1H145.6a1.85,1.85,0,0,1-.3,0h-1.53l-.42,0h-1.22v0a.2.2,0,0,1,0,.07v.08h0v.19a1.42,1.42,0,0,1,0,.19v0h1.78a1.73,1.73,0,0,0,.3,0h2.84V98a.53.53,0,0,0,0,.14v1c0,.1,0,.17,0,.22h-.14a.6.6,0,0,0-.16,0H142.1v.15a.72.72,0,0,1,0,.13v.35l.13,0H144a.8.8,0,0,0,.19,0h.85l.35,0h2.42v1.6h0l-.22,0-.26,0h-.7a2.53,2.53,0,0,1-.55,0H143.4a.42.42,0,0,0-.16,0h-3.76a0,0,0,0,0,0,0v0a3.37,3.37,0,0,1,0-.4v-.37a2.25,2.25,0,0,1,0-.39s0-.12,0-.22v-.57a1.88,1.88,0,0,0,0-.48v-.32a3.13,3.13,0,0,0,0-.34v-1a.41.41,0,0,0,0-.12v-.49a3.86,3.86,0,0,0,0-.6c0-.07,0-.19,0-.35v-.42h0v0Z" transform="translate(-24.81 -20.01)" style="fill:#fff"/><path d="M103.73,122.39a27.69,27.69,0,0,1-20.3,0c2.1-.75,4.28-.29,6.41-.43,1,.58,2-.22,3-.08a20,20,0,0,0,2.57.13c.73.3,1.56,0,2.29.36A9.57,9.57,0,0,1,103.73,122.39Z" transform="translate(-24.81 -20.01)" style="fill:#3a3a87"/><path d="M92.86,122.36c-1,.28-2,.77-3,0,2.07-.26,4.14-.64,6.22,0-.24.31-.59.25-.91.26C94.39,122.46,93.6,122.72,92.86,122.36Z" transform="translate(-24.81 -20.01)" style="fill:#25254c"/><path d="M95.17,122.41l.9-.13c.58,0,1-.11,1.63.44l-2.52,0Z" transform="translate(-24.81 -20.01)" style="fill:#1a1a2b"/><path d="M95.17,122.41a1.29,1.29,0,0,1,0,.28c-.78,0-1.63.35-2.32-.33Z" transform="translate(-24.81 -20.01)" style="fill:#111010"/><path d="M71.74,124a34.48,34.48,0,0,0-7.3,1.59c-.88.27-.06.55,0,.83.18,1.17,1.31,2.66.5,3.36s-2.12-.72-3.28-.93c-3-.55-4.25-2.48-4.94-5.32-.87-3.52-2.15-6.94-3.32-10.38-.41-1.21-.25-1.75,1.1-2.18,16.08-5.11,32.59-6.49,49.31-5.49A127.3,127.3,0,0,1,132.88,111c.88.26,1.49.46,1.1,1.6-1.64,4.85-3.23,9.71-4.83,14.56-.12.34-1-.45-.72.49L122,130.28c-.12-1.48.65-2.6.77-3.84,0-.28.85-.6,0-.85a35.18,35.18,0,0,0-7.31-1.58c-2,.49-4-.19-5.89-.61a36.88,36.88,0,0,1-5.75-.49c-2-.73-4,0-6-.16-.67-.08-3.57.23-4.23.11a25.75,25.75,0,0,1-3.75-.21c-2.08.33-4.22-.47-6.28.28a40.23,40.23,0,0,1-5.9.47C75.72,123.8,73.79,124.5,71.74,124Z" transform="translate(-24.81 -20.01)" style="fill:#9e4392"/><path d="M67.9,116.22l-1.37.31.36,1.55-.6.15c-.35-1.47-.52-2.2-.87-3.66l2.12-.49.11.52-1.5.34.26,1.09,1.38-.32Z" transform="translate(-24.81 -20.01)" style="fill:#fff"/><path d="M68.86,117.64l-.8-3.67.62-.13.77,3.67Z" transform="translate(-24.81 -20.01)" style="fill:#fff"/><path d="M70.33,114.61l.52,2.62-.52.1-.75-3.68.43-.09c.92.9,1.37,1.36,2.25,2.28l-.48-2.62.55-.09c.26,1.48.39,2.22.66,3.7l-.42.07C71.69,116,71.24,115.52,70.33,114.61Z" transform="translate(-24.81 -20.01)" style="fill:#fff"/><path d="M73.16,113l1.68-.31.29,0a.7.7,0,0,1,.76.69l.32,2.16v.09c0,.49-.22.78-.8.86l-1.62.23C73.54,115.2,73.41,114.46,73.16,113Zm.7.39c.18,1.09.27,1.63.46,2.72l1.24-.2a.08.08,0,0,0,.06-.09l-.4-2.57a.08.08,0,0,0-.09-.07Z" transform="translate(-24.81 -20.01)" style="fill:#fff"/><path d="M79.17,115.89,79,114.55l-.22,0a1,1,0,0,1-.36-.43l-1-1.76.66-.08.94,1.73a.09.09,0,0,0,.08,0l.26,0a.08.08,0,0,0,.07-.07L80,112l.63-.07c-.22.77-.32,1.16-.53,1.94a2.8,2.8,0,0,1-.11.32.48.48,0,0,1-.34.28l.16,1.34Z" transform="translate(-24.81 -20.01)" style="fill:#fff"/><path d="M81,112.62a1,1,0,0,1,0-.24c0-.36.31-.56.8-.61l1-.09h.31a.66.66,0,0,1,.64.69c.08.93.11,1.39.19,2.32a1.34,1.34,0,0,1,0,.2c0,.38-.29.59-.79.64l-1,.09a2.08,2.08,0,0,1-.25,0,.67.67,0,0,1-.69-.68Zm.68-.29a.07.07,0,0,0-.06.07c.1,1,.15,1.57.26,2.62a.07.07,0,0,0,.07.06l1.32-.12a.07.07,0,0,0,.06-.07c-.09-1-.14-1.58-.23-2.63a.09.09,0,0,0-.07-.06Z" transform="translate(-24.81 -20.01)" style="fill:#fff"/><path d="M85.58,115.32a1,1,0,0,1-.24,0,.66.66,0,0,1-.67-.7c-.1-1.21-.14-1.82-.23-3l.64,0c.09,1.28.13,1.92.22,3.19a.07.07,0,0,0,.07.06l1.31-.08a.07.07,0,0,0,.06-.07c-.07-1.28-.11-1.92-.18-3.19l.64,0c.06,1.22.09,1.83.16,3a1.34,1.34,0,0,1,0,.2c0,.38-.31.58-.81.61Z" transform="translate(-24.81 -20.01)" style="fill:#fff"/><path d="M88.2,115.13c-.07-1.5-.1-2.26-.17-3.76l1.64-.08c.62,0,.93.23,1,.78l0,.67a.74.74,0,0,1-.51.78.79.79,0,0,1,.25.36l.45,1.16h-.62c-.2-.55-.31-.83-.52-1.38a.11.11,0,0,0-.1-.07l-.84,0c0,.59,0,.88.06,1.47Zm.47-3.28.06,1.26,1.21,0A.08.08,0,0,0,90,113l0-1.11a.07.07,0,0,0-.08-.07Z" transform="translate(-24.81 -20.01)" style="fill:#fff"/><path d="M92.67,115c0-1.5,0-2.26,0-3.76l1.64,0h.09c.56,0,.84.29.83.82v.76a1.06,1.06,0,0,1,0,.31.8.8,0,0,1-.88.5h-1c0,.56,0,.83,0,1.39Zm.6-3.26v1.35h1.2s.07,0,.08-.08v-1.19a.07.07,0,0,0-.08-.07Z" transform="translate(-24.81 -20.01)" style="fill:#fff"/><path d="M97.65,115.08c-.07-.38-.11-.57-.18-1l-1.48,0c-.1.38-.15.56-.26.94h-.56c.36-1.26.54-1.89.93-3.15a1.15,1.15,0,0,1,.2-.43.64.64,0,0,1,.55-.16l.64,0c.32,1.51.47,2.27.77,3.78Zm-1.51-1.5,1.23,0c-.15-.71-.22-1.07-.37-1.79h-.28a.08.08,0,0,0-.07.07C96.44,112.56,96.34,112.9,96.14,113.58Z" transform="translate(-24.81 -20.01)" style="fill:#fff"/><path d="M98.76,115.13c.06-1.51.1-2.26.17-3.76l1.65.06q.92,0,.87.87l0,.67a.75.75,0,0,1-.58.73.79.79,0,0,1,.22.38c.13.48.2.72.33,1.19l-.61,0c-.16-.57-.23-.85-.4-1.42a.11.11,0,0,0-.09-.08l-.84,0c0,.59,0,.89-.07,1.48Zm.77-3.23-.07,1.26,1.22.07a.08.08,0,0,0,.08-.07l.07-1.11s0-.07-.08-.08Z" transform="translate(-24.81 -20.01)" style="fill:#fff"/><path d="M102.41,115.35c.1-1.29.15-1.93.24-3.22l-.94-.07,0-.53c1,.07,1.51.11,2.52.2l0,.53-.94-.08c-.11,1.28-.16,1.93-.27,3.22Z" transform="translate(-24.81 -20.01)" style="fill:#fff"/><path d="M104.31,115.51l.35-3.74c.88.08,1.33.13,2.21.23l-.06.52-1.58-.17-.1,1.06c.58,0,.87.08,1.45.15l-.06.52c-.57-.07-.86-.1-1.44-.15L105,115l1.57.17-.06.52Z" transform="translate(-24.81 -20.01)" style="fill:#fff"/><path d="M107.92,113.21l-.33,2.65-.52-.06c.18-1.49.26-2.24.44-3.73l.43.05c.59,1.14.88,1.71,1.43,2.86.14-1,.22-1.58.36-2.63l.54.08c-.21,1.48-.31,2.23-.52,3.72l-.42-.06C108.78,114.94,108.5,114.36,107.92,113.21Z" transform="translate(-24.81 -20.01)" style="fill:#fff"/><path d="M112.67,116.6c0-.39,0-.58-.06-1l-1.46-.23-.38.9-.56-.09c.52-1.2.79-1.8,1.33-3a1.19,1.19,0,0,1,.26-.4.66.66,0,0,1,.57-.09l.63.12c.12,1.54.17,2.32.27,3.86Zm-1.3-1.69,1.21.2c0-.73-.08-1.1-.13-1.83l-.29,0s0,0-.07.06C111.8,113.94,111.65,114.26,111.37,114.91Z" transform="translate(-24.81 -20.01)" style="fill:#fff"/><path d="M113.83,116.79l.65-3.7.62.12c-.27,1.47-.4,2.21-.67,3.69Z" transform="translate(-24.81 -20.01)" style="fill:#fff"/><path d="M115.35,117.08c.28-1.48.42-2.22.71-3.7l1.63.3c.6.12.85.45.74,1l-.14.65a.74.74,0,0,1-.67.65.83.83,0,0,1,.16.4c.06.49.1.74.16,1.23l-.6-.13c-.08-.58-.11-.88-.19-1.46a.14.14,0,0,0-.08-.1l-.83-.16c-.12.57-.17.86-.28,1.44Zm1.23-3.08-.24,1.23,1.19.25a.08.08,0,0,0,.09-.06l.23-1.09a.1.1,0,0,0-.06-.09Z" transform="translate(-24.81 -20.01)" style="fill:#fff"/><path d="M118.55,117.73c.32-1.46.49-2.2.81-3.67l2.18.5-.12.52-1.56-.37-.23,1,1.43.33-.13.51c-.56-.14-.85-.21-1.42-.33l-.25,1.09,1.55.36-.12.52C119.84,118,119.41,117.92,118.55,117.73Z" transform="translate(-24.81 -20.01)" style="fill:#fff"/><path d="M71.74,124l5.61-1.11a85.26,85.26,0,0,0,15.24,5,4.77,4.77,0,0,0,2.19,0,76.76,76.76,0,0,0,15-5l5.6,1.12c-4.87,3.07-10.36,4.63-15.74,6.51-4.64,1.62-9.05,1.07-13.54-.43C81.19,128.42,76.2,126.84,71.74,124Z" transform="translate(-24.81 -20.01)" style="fill:#3a3b88"/><path d="M128.43,127.69l-.9-.69c.6-.4,1.09,0,1.62.2A.84.84,0,0,1,128.43,127.69Z" transform="translate(-24.81 -20.01)" style="fill:#6e3677"/><path d="M64.43,126.43,63,125.67l1.49-.07C64.44,125.88,64.43,126.15,64.43,126.43Z" transform="translate(-24.81 -20.01)" style="fill:#6f3678"/><path d="M122.73,125.59l1.47.08-1.44.77Z" transform="translate(-24.81 -20.01)" style="fill:#703679"/><path d="M76.53,49.57c1.55-5.36,2.65-10.91,4.79-16S87.9,25,92.78,22.3a2.12,2.12,0,0,1,2.29.32c5.49,3.56,10.44,7.5,12,14.43.89,3.93,2.32,7.73,3.5,11.59a3.76,3.76,0,0,1,.25,2.69l-2.3-5.67c-1.36-1.7-1.61-3.84-2.11-5.83a16.94,16.94,0,0,0-5.33-9.28c-1.42-2.33-3.73-3.68-5.79-5.31a.7.7,0,0,0-.91,0c-.36,1.06,0,2.22-.48,3.25a3.68,3.68,0,0,1-1.26,1.28A20.31,20.31,0,0,0,84.06,43a75.07,75.07,0,0,1-2,7.81,3.11,3.11,0,0,0,1,3.78c.85.66,1.2,1.81,2.21,2.31a13.7,13.7,0,0,1,2.94,3.78,28.44,28.44,0,0,0,4.6,7c.87,1,1.47.88,2.2-.08a34.41,34.41,0,0,0,4-6.94,9.16,9.16,0,0,1,2.65-3.62c.91-.34,1.4-1.19,2.1-1.78.54-.45,1-1.15,1.85-.9.07,1.07.24,2.12-.62,3-3,3.2-5,7.21-7.77,10.54-3.41,4-2.47,4.11-6.48.38A27.8,27.8,0,0,1,87,63.66c-1.23-1.77-2.47-3.53-3.85-5.18-1.89-2.25-4.71-3.89-4.13-7.77-1.12.8-.64,1.6-1,2.17-1.23-1.28,0-2.72-.35-4-.56-.09-.52.47-.76.73A.29.29,0,0,1,76.53,49.57Z" transform="translate(-24.81 -20.01)" style="fill:#2e306c"/><path d="M77.43,38.34c-1.16,3.78-2.12,7.2-3.28,10.56-.42,1.23.19,3-.74,3.56s-2.41-.37-3.67-.41c-7-.19-13.08,4.17-15.68,11.13-.21.56-.39,1.12-.62,1.78a90.44,90.44,0,0,1-.73-13.77,1.78,1.78,0,0,1,.82-1.32A89.34,89.34,0,0,1,77.43,38.34Z" transform="translate(-24.81 -20.01)" style="fill:#2e306c"/><path d="M134,65c-5.77-11.31-10.59-14.21-20.5-12.32.14-3.93-1.82-7.37-2.66-11.07-.12-.52-.32-1-.49-1.54-.42-1.29,0-1.55,1.24-1.13a85.49,85.49,0,0,1,14.56,6.41c2.46,1.38,4.83,2.93,7.25,4.38a2,2,0,0,1,1.13,2A129.29,129.29,0,0,1,134,65Z" transform="translate(-24.81 -20.01)" style="fill:#9e4392"/><path d="M105.68,54.42c-1.39.71-1.89,2.55-3.63,2.8-.43-.91,0-1.7.35-2.5,1.89-5,1.06-9.61-2.06-13.88-.56-.77-1.79-1.79-.92-2.54s1.87.51,2.54,1.27A11.47,11.47,0,0,1,104,43c-.24-.14.23,0,0,.18s.07.43,0,.17a7.14,7.14,0,0,0-.43-1.48c-.32-1.69-1-3.27-.92-5.1.08-1.57-1.27-2.58-2.37-3.57a11,11,0,0,1-2.07-1.9c-.22-.33-.49-.71-.21-1.1s.7-.25,1.11-.21c.64.05,1.07.83,1.81.5a.78.78,0,0,1,.25-.32,12.28,12.28,0,0,1,5,7c.7,2.83,1.81,5.56,2.27,8.47-1,0-.47.6-.37.92.37,1.27.81,2.52,1.23,3.78.23.45.32.83-.4.79-1.09.59-.06,1.68-.57,2.41l-1-.73c-.45.38-.47,1.2-1.26,1.23Z" transform="translate(-24.81 -20.01)" style="fill:#3a3b88"/><path d="M59.16,62.13c1-.24,1.92-.53,2.9-.72.83-.16,1.36,0,1,1.07-.83,2.19-1.36,4.49-2.6,6.5a4.2,4.2,0,0,1-1.16,1.25l-2.56,4c-.38,0-.59,0-.41-.48a35.47,35.47,0,0,1,2.8-6.88c.31-.69,1.56-1.57-.14-2.21,0,0,.16-.6.24-.93C58,62.63,58,62.55,59.16,62.13Z" transform="translate(-24.81 -20.01)" style="fill:#9b4291"/><path d="M59.16,62.13c-1.31.57.77,1,0,1.59-2,.72-2.4,2.94-3.84,4.25.3-6.56,5.42-12.2,11.52-12.74-2.31,2-5,3.65-7.09,6A1.79,1.79,0,0,0,59.16,62.13Z" transform="translate(-24.81 -20.01)" style="fill:#9c4291"/><path d="M95,84.29l-.54.41a9.89,9.89,0,0,0-6.88.44c.76-2.43,1-2.62,3.38-2C92.26,83.46,93.6,83.89,95,84.29Z" transform="translate(-24.81 -20.01)" style="fill:#93408d"/><path d="M81.07,85.53a10.29,10.29,0,0,1,5,1.25c-1.85.53-3.62,0-5.41-.38C80.41,85.92,80.69,85.7,81.07,85.53Z" transform="translate(-24.81 -20.01)" style="fill:#2d2e66"/><path d="M128.74,62.56,125,59.13a6.8,6.8,0,0,1,4.22,3Z" transform="translate(-24.81 -20.01)" style="fill:#141319"/><path d="M130.32,73.91l-2.38-3.61.26-.26L130,71.37a7,7,0,0,0,.77,1.34C131.43,73.45,130.76,73.61,130.32,73.91Z" transform="translate(-24.81 -20.01)" style="fill:#14141a"/><path d="M86.23,85.42l-4.51-1.1C83.29,84.1,85,83.44,86.23,85.42Z" transform="translate(-24.81 -20.01)" style="fill:#743b84"/><path d="M106.11,54.06a2.27,2.27,0,0,1,1.26-1.23c0,.33,0,.66,0,1s.24,1.08-.37,1.19S106.39,54.4,106.11,54.06Z" transform="translate(-24.81 -20.01)" style="fill:#2b2d63"/><path d="M82.1,82.71a1.71,1.71,0,0,1,2.13.07C83.54,83.3,83,83.08,82.1,82.71Z" transform="translate(-24.81 -20.01)" style="fill:#6e3573"/><path d="M109,51.15c.13-.26.27-.52.4-.79.57.63.38,1.45.91,2.46C109.16,52.39,109.26,51.64,109,51.15Z" transform="translate(-24.81 -20.01)" style="fill:#272855"/><path d="M76.53,49.57H77a4.13,4.13,0,0,1-.57,2.17A2,2,0,0,1,76.53,49.57Z" transform="translate(-24.81 -20.01)" style="fill:#2a2c60"/><path d="M87,82.93a1.17,1.17,0,0,1-1.79.29C85.63,82.35,86.24,82.87,87,82.93Z" transform="translate(-24.81 -20.01)" style="fill:#683677"/><path d="M56.3,73.74l.41.48c-.22.5-.23,1.16-1,1.39A2.76,2.76,0,0,1,56.3,73.74Z" transform="translate(-24.81 -20.01)" style="fill:#873c83"/><path d="M59.27,70.23c.25-.54.48-1.1,1.16-1.25a2.4,2.4,0,0,1-.81,1.64Z" transform="translate(-24.81 -20.01)" style="fill:#1b161f"/><path d="M81.07,85.53l-.42.87c-.42-.1-.47-.4-.34-.72S80.76,85.32,81.07,85.53Z" transform="translate(-24.81 -20.01)" style="fill:#903f8b"/><path d="M109.82,122.89c.42,1-.55.93-1,1.12a83.44,83.44,0,0,1-13.17,4.4,8.55,8.55,0,0,1-4.35-.07,88.42,88.42,0,0,1-12.62-4.18c-.52-.22-1.63-.08-1.36-1.26,2-.09,4-.69,6.08-.52a30.57,30.57,0,0,1,4.95.7,28.34,28.34,0,0,0,12.36-.37,10.72,10.72,0,0,1,3-.32C105.79,122.19,107.78,122.81,109.82,122.89Z" transform="translate(-24.81 -20.01)" style="fill:#100f0d"/><path d="M101.27,30.54l.86,1.56c-1.43-.67-2.38-1.56-4-1.87,1.56,2.06,4,2.91,4.87,5.11s.37,4.4,1.17,6.5c.11.6.63,1.29-.39,1.62-1.21-1.83-2-4-4.24-5.08,4.92,5.78,6,12,2.55,18.84L99.63,60.8a8.73,8.73,0,0,1-2.27,2.53c-2.85,2.38-5.86,2.06-8.27-.8a7.28,7.28,0,0,1-1.19-1.62L85.14,57.2a9.39,9.39,0,0,1-2.59-7.61C83,44,85.24,39,90.07,35.71,92,34.38,93.34,33,93,30.49a3.1,3.1,0,0,1,.56-1.91c.28-1.32-.28-2.72.39-4A18.78,18.78,0,0,1,101.27,30.54Z" transform="translate(-24.81 -20.01)" style="fill:#100f0d"/><path d="M93.51,28.58c0,.27,0,.54.07.81.46,3.1-.51,5.11-3.32,7.07C85,40.19,80.37,47.68,85.14,57.2c-2.21-.7-4.27-4-3.75-6.08,1-3.9,1.82-7.85,3-11.69C85.89,34.59,89.25,31.17,93.51,28.58Z" transform="translate(-24.81 -20.01)" style="fill:#3a3b88"/><path d="M87.9,60.91c5.57,4.71,5.62,4.71,11.39.1a3.87,3.87,0,0,1,.34-.21,28.11,28.11,0,0,1-5,8.21c-.38.43-.75,1-1.26.33C91.29,66.71,88.86,64.28,87.9,60.91Z" transform="translate(-24.81 -20.01)" style="fill:#3a3b88"/><path d="M101.27,30.54l-7.37-6c.23-.11.54-.39.65-.32,2.61,1.55,5.2,3.12,6.71,5.91C101.27,30.3,101.27,30.42,101.27,30.54Z" transform="translate(-24.81 -20.01)" style="fill:#383983"/><path d="M89.8,25.54,84.08,31.1C85.07,28.71,87.18,27,89.8,25.54Z" transform="translate(-24.81 -20.01)" style="fill:#984290"/><path d="M103.74,43.46c.52-.45.28-1.07.39-1.62.61.76.26,1.61.42,2.47C103.87,44.25,103.89,43.79,103.74,43.46Z" transform="translate(-24.81 -20.01)" style="fill:#191829"/><path d="M91.71,49.07c1.49,1.83,2.22,1.84,3.71.11.43,2.53-.81,3.44-4.07,2.28,3.84,2.89,1.52,6.4,2.37,9.58a12.71,12.71,0,0,1-7.55-7.12c1.84-.39,2-.84.86-2.55-.46-.66-.89-1.12-.13-1.86s1.24-.4,1.83.2C90,51,91,50.44,91.71,49.07Z" transform="translate(-24.81 -20.01)" style="fill:#2e306b"/><path d="M91.3,43.83a2,2,0,0,1-.53-.2c-2.54-1.7-2.57-2.17-.33-4.29,3.23-3.07,3.23-3.07,6.37.07,2.33,2.33,2.19,2.91-1.08,4.43L95.49,42c-1.22.34-.51,2.27-1.86,2.28s-.69-1.91-1.8-2.31C91.24,42.49,91.88,43.31,91.3,43.83Z" transform="translate(-24.81 -20.01)" style="fill:#9d4292"/><path d="M90,46.66c-1.56.21-2.66,0-3.17-1.44-.14-.36,0-.67.43-.7C88.66,44.44,89.37,45.32,90,46.66Z" transform="translate(-24.81 -20.01)" style="fill:#f3f3f3"/><path d="M98,46.63a2.42,2.42,0,0,1,2.48-2.1c.53,0,.59.41.46.88C100.68,46.35,99.91,46.7,98,46.63Z" transform="translate(-24.81 -20.01)" style="fill:#f4f4f4"/></svg>